<?xml version="1.0" encoding="utf-8"?>
<!-- Generator: Adobe Illustrator 23.0.2, SVG Export Plug-In . SVG Version: 6.00 Build 0)  -->
<svg version="1.1" id="Livello_1" xmlns="http://www.w3.org/2000/svg" xmlns:xlink="http://www.w3.org/1999/xlink" x="0px" y="0px"
	 viewBox="0 0 330 310.67" style="enable-background:new 0 0 330 310.67;" xml:space="preserve">
<style type="text/css">
	.st0{fill:#090807;}
	.st1{fill:#FCFCFC;}
	.st2{fill:#F9F9F9;}
	.st3{fill:#FAFAFA;}
	.st4{fill:#939393;}
	.st5{fill:#4A4A4B;}
	.st6{fill:#A0764C;}
	.st7{fill:#D39D65;}
	.st8{fill:#654B30;}
	.st9{fill:#D49D66;}
	.st10{fill:#926C45;}
	.st11{fill:#7A5B3A;}
	.st12{fill:#A77B4F;}
	.st13{fill:#CB9761;}
	.st14{fill:#BB8A59;}
	.st15{fill:#C3915D;}
	.st16{fill:#B58656;}
	.st17{fill:#AC7F52;}
	.st18{fill:#AD8052;}
	.st19{fill:#A57A4E;}
</style>
<g>
	<g>
		<path class="st0" d="M118.74,1.01c6.44,0,12.89,0,19.33,0c2.07,0.92,4.07,2.26,6.23,2.66c3.37,0.61,6.9,0.3,10.28,0.87
			c51.69,8.7,91.68,37.85,124.01,76.57c25.85,30.96,39.45,69.19,50.02,108.07c0.61,2.26,1.83,4.35,2.76,6.51
			c0,18.87,0,37.74,0,56.61c-1.39,3.31-3.24,6.5-4.08,9.95c-3.39,13.97-11.19,22.91-26.2,24.19c-4.81,0.41-9.7,1.59-14.41,1.09
			c-5.22-0.56-7.64,1.72-10.46,5.53c-9.06,12.26-20.38,19.89-36.79,18.72c-41.05-2.93-82.18-4.85-123.21-7.98
			c-18.28-1.39-36.57-3.93-54.59-7.35C35.97,291.57,15,279.64,5.36,253.32c-1.01-2.76-2.64-5.28-3.98-7.92c0-29.46,0-58.91,0-88.37
			c0.34-1.93,0.68-3.87,1.02-5.8c-0.34-2.21-0.68-4.42-1.02-6.63c0-4.6,0-9.21,0-13.81c1.4-8.68,3.02-17.32,4.15-26.03
			c4.04-31.12,16.08-57.95,41.89-77.09C66.78,13.32,89.89,8.71,112.77,3.64C114.85,3.18,116.76,1.91,118.74,1.01z M154.7,18.68
			c-2.25-0.65-4.5-1.29-6.75-1.94c-1.91-0.13-3.82-0.26-5.73-0.39c-27.35-3.51-52.42,4.62-76.82,15.46
			c-5.3,2.36-9.75,6.65-14.58,10.05c-2.86,2.89-5.72,5.78-8.58,8.67c-2.22,2.78-4.43,5.56-6.65,8.34
			C30.66,70.1,24.09,80.93,21.22,92.68c-3.34,13.65-3.75,28.08-4.86,42.21c-2.57,32.66-6.16,65.34-2.55,98.12
			c2.29,20.83,11.98,37.04,32.25,45.1c23.76,9.45,48.83,11.82,74.1,12.74c12.44,0.84,24.88,1.68,37.32,2.52
			c7.81,0.48,15.63,0.97,23.44,1.45c20.7,1.44,41.4,2.88,62.1,4.32c1.38-0.04,2.76-0.08,4.15-0.12c0.93-0.31,1.87-0.63,2.8-0.94
			c1.39-0.94,2.77-1.87,4.16-2.81c1.44-0.72,2.89-1.43,4.33-2.15c10.65-7.73,15.88-18.85,16.12-31.34
			c0.28-14.61-0.4-29.46-2.76-43.87c-6.76-41.18-13.87-82.03-39.19-117.56c-13.18-18.49-28.58-32.43-48.83-41.69
			c-0.08-0.8-0.15-1.61-0.23-2.41c0.13-1.36,0.26-2.72,0.38-4.09c1.44-1.77,2.87-3.55,4.31-5.32c8.56,4.58,17.13,9.15,25.69,13.73
			c9.56,10.12,19.12,20.24,28.68,30.36c7.07,13.09,15.3,25.71,20.97,39.39c11.39,27.51,16.68,56.75,21.54,86.01
			c0.21,0.95,0.41,1.91,0.62,2.86c0.2,2.27,0.41,4.54,0.61,6.81c0.25,1.41,0.51,2.82,0.76,4.23c0.25,3.65,0.5,7.3,0.76,10.94
			c0.2,1.42,0.4,2.84,0.59,4.25c-0.78,9.19-1.56,18.39-2.34,27.58c0.36,0.44,0.72,0.87,1.08,1.31c2.31-0.08,4.62-0.15,6.93-0.23
			c1.4-0.2,2.81-0.39,4.21-0.59c8.92,0.15,13.82-4.47,16.11-12.87c5.14-18.91,7.19-38.35,3.71-57.39
			c-7.3-40.04-23.31-77-46.27-110.49c-17.62-25.7-43.64-42.11-70.19-57.31c-6.99-4-14.68-6.76-22.05-10.08
			c-2.3-1.09-4.6-2.18-6.9-3.27c-3.27-0.54-6.54-1.08-9.81-1.62C160.19,19.87,157.45,19.28,154.7,18.68z"/>
		<path class="st1" d="M331.38,195.7c-0.93-2.17-2.15-4.26-2.76-6.51c-10.57-38.88-24.17-77.12-50.02-108.07
			c-32.33-38.71-72.32-67.86-124.01-76.57c-3.38-0.57-6.91-0.25-10.28-0.87c-2.17-0.4-4.16-1.74-6.23-2.66
			c64.32,0,128.64,0,193.31,0C331.38,65.91,331.38,130.8,331.38,195.7z"/>
		<path class="st2" d="M1.38,245.4c1.34,2.63,2.97,5.16,3.98,7.92c9.63,26.32,30.61,38.25,56.29,43.13
			c18.02,3.42,36.31,5.96,54.59,7.35c41.03,3.13,82.16,5.05,123.21,7.98c16.41,1.17,27.73-6.45,36.79-18.72
			c2.81-3.81,5.24-6.08,10.46-5.53c4.71,0.5,9.6-0.68,14.41-1.09c15.01-1.28,22.81-10.22,26.2-24.19c0.84-3.44,2.69-6.64,4.08-9.95
			c0,20.22,0,40.44,0,60.7c-110,0-220,0-330,0C1.38,290.44,1.38,267.92,1.38,245.4z"/>
		<path class="st3" d="M118.74,1.01c-1.99,0.9-3.89,2.17-5.98,2.63c-22.88,5.07-45.99,9.68-65.35,24.04
			C21.61,46.82,9.57,73.65,5.53,104.77c-1.13,8.71-2.75,17.36-4.15,26.03c0-43.26,0-86.53,0-129.79
			C40.5,1.01,79.62,1.01,118.74,1.01z"/>
		<path class="st4" d="M1.38,144.61c0.34,2.21,0.68,4.42,1.02,6.63c-0.39-0.1-0.73-0.01-1.02,0.28
			C1.38,149.21,1.38,146.91,1.38,144.61z"/>
		<path class="st5" d="M1.38,151.51c0.29-0.29,0.63-0.38,1.02-0.28c-0.34,1.93-0.68,3.87-1.02,5.8
			C1.38,155.2,1.38,153.35,1.38,151.51z"/>
		<path class="st6" d="M50.82,41.86c4.84-3.4,9.28-7.69,14.58-10.05c24.4-10.84,49.48-18.98,76.82-15.46
			c2.47,3.92,4.33,8.46,7.55,11.62c4.36,4.29,9.77,7.52,14.72,11.21c5.41,4.03,6.84,8.66,3.08,14.84
			c-5.24,8.6-4.89,17.87-0.02,26.22c4.57,7.84,10.14,15.23,16.1,22.1c19.31,22.29,31.27,48.5,39.82,76.17
			c4.47,14.49,5.86,29.94,8.48,44.99c1.56,8.97,3.73,17.97,3.97,27c0.44,16.56,1.42,32.91,7.11,48.64
			c-20.7-1.44-41.4-2.88-62.1-4.32c-1.28-1.64-2.25-4.17-3.9-4.75c-6.66-2.36-13.45-4.46-20.34-6.03
			c-20.91-4.75-41.95-8.94-62.82-13.89c-10-2.37-19.27-7.55-24.44-16.43c-5.46-9.38-10.22-19.68-12.63-30.18
			c-3.6-15.7-5.96-31.88-6.86-47.97c-1.4-25.01-1.37-50.11-1.45-75.18c-0.02-7.93,2.03-15.85,2.31-23.8
			C51.18,65.02,50.84,53.44,50.82,41.86z"/>
		<path class="st7" d="M183.79,58.67c20.25,9.26,35.65,23.2,48.83,41.69c25.32,35.53,32.43,76.38,39.19,117.56
			c2.36,14.4,3.04,29.25,2.76,43.87c-0.24,12.49-5.47,23.61-16.12,31.33c-1.48-3.57-3.42-7.02-4.35-10.72
			c-5.42-21.6-2.96-44.01-7.59-65.99c-4-18.97-5.09-38.71-13.19-56.54c-8.41-18.51-17.93-36.58-28.05-54.22
			c-4.95-8.63-12.48-15.77-18.65-23.73C178.57,71.53,178.14,67.31,183.79,58.67z"/>
		<path class="st8" d="M120.16,290.84c-25.27-0.92-50.34-3.28-74.1-12.74c-20.27-8.06-29.95-24.27-32.25-45.1
			c-3.61-32.78-0.02-65.46,2.55-98.12c1.11-14.13,1.52-28.56,4.86-42.21c2.87-11.74,9.44-22.58,14.38-33.81
			c0.56,2.34,1.72,4.71,1.58,7c-0.7,11.61-2.49,23.2-2.5,34.8c-0.04,25.33,0.69,50.66,1.23,75.99c0.46,21.63,4.09,42.69,11.64,63.04
			c7.14,19.23,18.61,34.06,39.48,39.56c9.5,2.5,19.03,4.92,28.45,7.7C117.26,287.48,118.61,289.51,120.16,290.84z"/>
		<path class="st9" d="M179.65,25.36c7.37,3.33,15.07,6.08,22.05,10.08c26.55,15.2,52.58,31.62,70.19,57.31
			c22.96,33.49,38.96,70.45,46.27,110.49c3.47,19.04,1.43,38.48-3.71,57.39c-2.29,8.41-7.19,13.02-16.11,12.87
			c0.46-5.75-0.83-12.48,1.75-17.03c5.09-8.98-1.76-16.9-0.22-25.66c1.19-6.77-2.89-14.51-4.77-21.78
			c-3.57-13.82-7.16-27.64-10.91-41.41c-2.6-9.53-4.93-19.19-8.41-28.4c-4.22-11.18-8.72-22.41-14.59-32.77
			c-4.84-8.54-11.6-16.05-17.95-23.65c-7.97-9.55-15.33-20.03-24.87-27.73c-11.93-9.62-25.82-16.82-38.87-25.07
			C179.55,28.46,179.6,26.91,179.65,25.36z"/>
		<path class="st10" d="M50.82,41.86c0.02,11.58,0.36,23.17-0.04,34.73c-0.28,7.95-2.33,15.87-2.31,23.8
			c0.07,25.06,0.04,50.17,1.45,75.18c0.9,16.09,3.27,32.26,6.86,47.97c2.41,10.51,7.17,20.81,12.63,30.18
			c5.17,8.89,14.44,14.06,24.44,16.43c20.86,4.94,41.9,9.14,62.82,13.89c6.89,1.56,13.68,3.67,20.34,6.03
			c1.66,0.59,2.62,3.12,3.9,4.75c-7.81-0.48-15.63-0.97-23.44-1.45c-1.85-1.33-3.52-3.4-5.58-3.89
			c-19.75-4.72-39.62-8.97-59.35-13.78c-9.87-2.41-18.58-6.96-25.69-14.79c-10.13-11.16-14.72-24.78-18.39-38.74
			c-6.88-26.18-7.87-53.18-8.09-79.97c-0.19-24.36,2.56-48.73,3.59-73.12c0.26-6.15-1.1-12.37-1.72-18.56
			C45.1,47.63,47.96,44.75,50.82,41.86z"/>
		<path class="st11" d="M42.24,50.52c0.62,6.19,1.98,12.41,1.72,18.56c-1.03,24.38-3.78,48.76-3.59,73.12
			c0.21,26.79,1.21,53.79,8.09,79.97c3.67,13.96,8.26,27.58,18.39,38.74c7.12,7.84,15.82,12.39,25.69,14.79
			c19.73,4.81,39.6,9.06,59.35,13.78c2.05,0.49,3.73,2.55,5.58,3.89c-12.44-0.84-24.88-1.68-37.32-2.52
			c-1.55-1.34-2.89-3.37-4.68-3.89c-9.42-2.78-18.95-5.19-28.45-7.7c-20.87-5.5-32.34-20.32-39.48-39.56
			c-7.55-20.34-11.18-41.41-11.64-63.04c-0.54-25.33-1.27-50.66-1.23-75.99c0.02-11.6,1.8-23.19,2.5-34.8
			c0.14-2.29-1.02-4.67-1.58-7C37.81,56.08,40.03,53.3,42.24,50.52z"/>
		<path class="st12" d="M243.02,299.14c-5.69-15.73-6.67-32.08-7.11-48.64c-0.24-9.03-2.41-18.03-3.97-27
			c-2.61-15.05-4-30.5-8.48-44.99c-8.54-27.67-20.5-53.88-39.82-76.17c-5.96-6.87-11.53-14.26-16.1-22.1
			c-4.87-8.35-5.22-17.61,0.02-26.22c3.76-6.18,2.33-10.81-3.08-14.84c-4.95-3.69-10.36-6.92-14.72-11.21
			c-3.22-3.16-5.08-7.7-7.55-11.62c1.91,0.13,3.82,0.26,5.73,0.39c4.16,10.87,13.39,15.89,23.26,20.18
			c2.44,5.8,9.15,10.27,5.52,17.94c-0.46,0-0.92,0-1.37,0.01c-5.09-0.3-4.47,3.97-5.52,6.9c-3.24,10.52,1.48,19.32,7.96,26.25
			c19.14,20.44,32.01,44.59,43.3,69.74c3.92,8.72,7.34,17.88,9.34,27.19c3.11,14.47,4.81,29.24,7.1,43.89
			c1.37,8.79,2.99,17.54,3.96,26.37c0.76,6.96,0.22,14.08,1.13,21.02c1,7.67,2.99,15.2,4.55,22.8
			C245.78,299.06,244.4,299.1,243.02,299.14z"/>
		<path class="st13" d="M179.5,30.01c13.05,8.25,26.94,15.44,38.87,25.07c9.54,7.7,16.9,18.18,24.87,27.73
			c6.35,7.6,13.11,15.11,17.95,23.65c5.87,10.36,10.38,21.59,14.59,32.77c3.48,9.21,5.81,18.88,8.41,28.4
			c3.76,13.77,7.34,27.59,10.91,41.41c1.88,7.27,5.96,15.01,4.77,21.78c-1.54,8.77,5.3,16.68,0.22,25.66
			c-2.58,4.55-1.29,11.28-1.75,17.03c-1.4,0.2-2.81,0.4-4.21,0.59c0.04-1.6-0.2-3.28,0.17-4.8c6.25-25.65,0.78-50.31-6.31-74.81
			c-3.82-13.19-8.45-26.17-11.57-39.52c-4.79-20.51-11.92-39.9-24.16-57.1c-2.17-3.05-6.38-4.66-9.64-6.93
			c-9.56-10.12-19.12-20.24-28.68-30.36c-1.19-1.81-1.97-4.2-3.62-5.34c-9.01-6.17-18.47-11.72-27.31-18.11
			c-7.03-5.08-13.4-11.07-20.06-16.66c3.27,0.54,6.54,1.08,9.81,1.63C175,24.73,177.25,27.37,179.5,30.01z"/>
		<path class="st14" d="M242.61,90.93c3.27,2.27,7.47,3.88,9.64,6.93c12.25,17.2,19.37,36.6,24.16,57.1
			c3.12,13.34,7.75,26.33,11.57,39.52c7.1,24.5,12.57,49.16,6.31,74.81c-0.37,1.52-0.13,3.2-0.17,4.8
			c-2.31,0.08-4.62,0.15-6.93,0.23c-0.36-0.44-0.72-0.87-1.08-1.31c0.78-9.19,1.56-18.39,2.34-27.58c-0.2-1.42-0.4-2.84-0.6-4.25
			c-0.25-3.65-0.5-7.3-0.76-10.94c-0.25-1.41-0.51-2.82-0.76-4.23c-0.2-2.27-0.41-4.54-0.61-6.81c-0.21-0.95-0.41-1.91-0.62-2.86
			c-4.86-29.26-10.15-58.51-21.54-86.01C257.92,116.64,249.68,104.03,242.61,90.93z"/>
		<path class="st15" d="M183.79,58.67c-5.64,8.64-5.22,12.87,2.84,23.25c6.17,7.96,13.7,15.09,18.65,23.73
			c10.12,17.64,19.64,35.71,28.05,54.22c8.1,17.83,9.19,37.57,13.19,56.54c4.63,21.98,2.17,44.39,7.59,65.99
			c0.93,3.7,2.88,7.15,4.35,10.72c-1.44,0.72-2.89,1.44-4.33,2.15c-2.32-9.01-6.03-17.94-6.65-27.07c-1-14.79-0.55-29.55-4.21-44.22
			c-2.9-11.64-2.22-24.25-5.63-35.69c-5.14-17.24-11.54-34.25-19.12-50.56c-5.92-12.73-14.16-24.45-21.95-36.24
			c-5.27-7.98-11.88-15.07-17.29-22.97c-6.04-8.82-4.51-20.2,4.3-22.29C183.63,57.06,183.71,57.86,183.79,58.67z"/>
		<path class="st16" d="M183.56,56.25c-8.81,2.08-10.34,13.46-4.3,22.29c5.41,7.9,12.02,14.99,17.29,22.97
			c7.79,11.79,16.03,23.5,21.95,36.24c7.59,16.31,13.99,33.32,19.12,50.56c3.41,11.44,2.73,24.04,5.63,35.69
			c3.66,14.67,3.21,29.43,4.21,44.22c0.62,9.13,4.33,18.05,6.65,27.07c-1.39,0.94-2.77,1.87-4.16,2.81
			c-0.72-3.34-1.49-6.67-2.16-10.01c-1.17-5.81-3.5-11.69-3.2-17.43c1.4-26.86-5.9-52.68-9.72-78.8
			c-2.26-15.45-10.36-30.1-16.19-44.96c-8.21-20.91-19.9-39.62-35.36-56.09c-7.46-7.95-12.65-17.44-12.1-29.01
			c1.38-2.3,2.75-4.61,4.13-6.91c0.46,0,0.92-0.01,1.38-0.01c2.4-0.9,4.81-1.79,7.21-2.69C183.81,53.53,183.69,54.89,183.56,56.25z"
			/>
		<path class="st17" d="M171.23,61.77c-0.55,11.58,4.63,21.07,12.1,29.01c15.46,16.47,27.15,35.17,35.36,56.09
			c5.83,14.87,13.93,29.51,16.19,44.96c3.83,26.12,11.12,51.94,9.72,78.8c-0.3,5.74,2.03,11.63,3.2,17.43
			c0.67,3.35,1.44,6.68,2.16,10.01c-0.93,0.31-1.87,0.63-2.8,0.94c-1.56-7.59-3.55-15.13-4.55-22.8
			c-0.91-6.94-0.36-14.05-1.13-21.02c-0.97-8.83-2.59-17.59-3.96-26.37c-2.28-14.65-3.99-29.42-7.1-43.89
			c-2-9.31-5.42-18.47-9.34-27.19c-11.29-25.14-24.16-49.3-43.3-69.74c-6.49-6.93-11.2-15.72-7.96-26.25
			C170.3,61.77,170.76,61.77,171.23,61.77z"/>
		<path class="st14" d="M162.94,20.47c6.66,5.59,13.03,11.58,20.06,16.66c8.84,6.39,18.3,11.94,27.31,18.11
			c1.65,1.13,2.44,3.52,3.62,5.34c-8.56-4.58-17.13-9.15-25.69-13.73c-5.68-3.77-11.36-7.54-17.04-11.31
			c-1.61-1.51-3.29-2.95-4.82-4.54c-3.93-4.07-7.8-8.21-11.69-12.32C157.45,19.28,160.19,19.87,162.94,20.47z"/>
		<path class="st18" d="M171.21,35.53c5.68,3.77,11.36,7.54,17.04,11.31c-1.44,1.78-2.87,3.55-4.31,5.32
			c-2.4,0.9-4.81,1.79-7.21,2.69c3.63-7.66-3.08-12.14-5.52-17.94C171.21,36.46,171.21,35.99,171.21,35.53z"/>
		<path class="st17" d="M171.21,35.53c0,0.46,0,0.92,0,1.38c-9.87-4.29-19.1-9.31-23.26-20.18c2.25,0.65,4.5,1.29,6.75,1.94
			c3.89,4.11,7.76,8.25,11.69,12.32C167.92,32.58,169.6,34.03,171.21,35.53z"/>
		<path class="st7" d="M179.5,30.01c-2.25-2.64-4.5-5.27-6.75-7.91c2.3,1.09,4.6,2.18,6.91,3.27
			C179.6,26.91,179.55,28.46,179.5,30.01z"/>
		<path class="st19" d="M286.35,226.01c0.25,1.41,0.51,2.82,0.76,4.23C286.86,228.83,286.6,227.42,286.35,226.01z"/>
		<path class="st19" d="M287.87,241.19c0.2,1.42,0.4,2.84,0.59,4.25C288.26,244.02,288.07,242.61,287.87,241.19z"/>
		<path class="st19" d="M285.12,216.33c0.21,0.95,0.41,1.91,0.62,2.86C285.53,218.24,285.32,217.29,285.12,216.33z"/>
		<path class="st19" d="M286.12,273.02c0.36,0.44,0.72,0.87,1.08,1.31C286.84,273.9,286.48,273.46,286.12,273.02z"/>
		<path class="st18" d="M171.23,61.77c-0.46,0-0.93,0-1.39-0.01c1.05-2.93,0.43-7.2,5.52-6.9C173.98,57.16,172.6,59.47,171.23,61.77
			z"/>
	</g>
</g>
</svg>
