<?xml version="1.0" encoding="utf-8"?>
<!-- Generator: Adobe Illustrator 23.0.2, SVG Export Plug-In . SVG Version: 6.00 Build 0)  -->
<svg version="1.1" id="Livello_1" xmlns="http://www.w3.org/2000/svg" xmlns:xlink="http://www.w3.org/1999/xlink" x="0px" y="0px"
	 viewBox="0 0 1290 1034" style="enable-background:new 0 0 1290 1034;" xml:space="preserve">
<style type="text/css">
	.st0{fill:#FDFDFD;}
	.st1{fill:#050504;}
	.st2{fill:#A0764C;}
	.st3{fill:#D69F66;}
	.st4{fill:#D8BB3E;}
	.st5{fill:#D49E66;}
	.st6{fill:#654B30;}
	.st7{fill:#1A0D01;}
	.st8{fill:#AE8052;}
	.st9{fill:#D29C65;}
	.st10{fill:#926C45;}
	.st11{fill:#ECD675;}
	.st12{fill:#CA9661;}
	.st13{fill:#D49D65;}
	.st14{fill:#674C31;}
	.st15{fill:#6E5234;}
	.st16{fill:#B88858;}
	.st17{fill:#86633F;}
	.st18{fill:#C08E5C;}
	.st19{fill:#997148;}
	.st20{fill:#795939;}
	.st21{fill:#7E5E3C;}
	.st22{fill:#BB8A59;}
	.st23{fill:#8C6742;}
	.st24{fill:#B08253;}
	.st25{fill:#C4915E;}
	.st26{fill:#FAFAFA;}
	.st27{fill:#020202;}
	.st28{fill:#030201;}
	.st29{fill:#050402;}
</style>
<g>
	<g>
		<path class="st0" d="M1291,791c0,81.33,0,162.67,0,244c-430,0-860,0-1290,0C1,690.33,1,345.67,1,1c430,0,860,0,1290,0
			c0,251.33,0,502.67,0,754c-0.35-0.5-0.86-0.96-1.03-1.52c-4.6-14.55-14.81-23.97-27.6-31.53c-6.34-3.74-12.9-8.15-17.35-13.83
			c-10.04-12.82-19.22-26.37-28.02-40.09c-7.63-11.91-14.03-24.6-21.47-36.64c-2.43-3.94-3.04-7.56-3-12.04
			c0.13-16.64,0.58-33.36-0.72-49.92c-1.97-25.1-9.77-48.39-27.26-67.28c-6.5-7.02-14.28-12.86-21.78-19.51
			c7.31-16.75,4.43-33.86-2.75-50.28c-17.22-39.35-44.37-70.65-80-94.38c-37.94-25.27-80.07-38.86-125.37-42.81
			c-29.58-2.58-58.55-0.03-86.53,10.62c-1.6,0.61-3.58,0.46-5.36,0.3c-11.61-1.01-23.19-2.38-34.81-3.15
			c-32.46-2.15-64.58,0.53-96.33,7.49c-28.64,6.28-55.57,17.17-81.83,30.06c-19.49,9.57-40.08,15.42-62.06,15.19
			c-6.4-0.07-13.11,0.34-15-8.12c-0.03-0.15-0.19-0.27-0.28-0.41c-15.63-23.92-26.53-49.94-33.97-77.44
			c-0.49-1.83-0.13-4.37,0.8-6.04c20.61-36.89,33.41-76.17,36.19-118.45c1.55-23.59,0.06-46.98-7.01-69.73
			c-1.52-4.9-3.59-9.71-6.03-14.23c-10.93-20.18-29.37-25.37-49.37-14.06c-12.06,6.83-21.69,16.5-30.85,26.7
			c-1.22,1.36-2.59,2.6-3.26,3.26c-9.31-15.31-24.16-21.67-39.29-26.73c-34.85-11.65-61.62,1.64-84.02,30.35
			c0-7.74-0.96-14.13,0.18-20.12c3.45-18.09,15.65-30.03,30.14-39.99c3.2-2.2,5.96-4.47,5.29-8.79c-0.71-4.58-4.19-6.4-8.17-6.82
			c-11.07-1.16-22.21-3.1-33.25-2.71c-23.18,0.82-43.55,9.16-59.45,26.67c-12.43,13.7-19.3,30.2-23.32,48
			c-1.45,6.4-2.41,12.91-3.74,20.18c-6.58-7.27-10.54-14.92-12.34-23.75c-2.09-10.27-0.57-20.2,2.55-30.03
			c3.15-9.91-0.97-15.42-11.21-13.55c-7.54,1.38-15.27,3.8-21.93,7.52c-12.63,7.07-20.52,18.74-26.43,31.73
			c-9.69,21.32-12.8,44.04-13.81,67.12c-1.42,32.42,1.63,64.57,6.33,96.62c0.51,3.48-0.19,7.14-0.33,10.72
			c-0.54,0.01-1.08,0.01-1.62,0.02c-0.49-1.51-0.97-3.03-1.48-4.54c-3.92-11.5-7.25-23.24-11.9-34.44
			c-15.33-36.95-43.95-59.12-81.51-69.96c-21.98-6.34-41.61,2.91-53.04,22.79C8.94,170.74,5.62,185.31,3.92,200.3
			c-4.22,37.12,2.93,72.7,15.59,107.32c20.08,54.91,50.34,103.88,88.42,148.05c3.64,4.22,4.26,7.6,3.11,12.74
			c-7.03,31.39-14.6,62.62-26.92,92.45c-22.17,53.69-33.44,109.45-31.93,167.6c0.95,36.63,7.72,72.1,22.51,105.87
			c12.76,29.13,32.38,53.42,53.21,76.94c37.96,42.85,85.56,62.99,142.7,61.77c33.29-0.71,66.14-4.89,98.6-11.73
			c43.97-9.27,88.24-15.43,133.2-16.39c85.54-1.84,169.92,7.5,253.5,25.53c32.05,6.92,62.22,19.04,92.75,30.39
			c40.89,15.2,82.92,26.02,126.38,30.78c33.85,3.71,67.54,3.34,100.86-4.6c53.49-12.75,93.48-42.97,118.72-92.12
			c14.32-27.9,21.89-57.84,26.08-88.72c0.41-3.01,1.58-4.05,4.32-4.96c9.61-3.22,19.43-6.1,28.53-10.45
			c16.89-8.07,30.44-19.76,36.06-38.61C1289.76,791.67,1290.52,791.38,1291,791z"/>
		<path class="st1" d="M1291,791c-0.48,0.38-1.24,0.67-1.38,1.15c-5.62,18.85-19.16,30.54-36.06,38.61
			c-9.1,4.35-18.93,7.23-28.53,10.45c-2.74,0.92-3.91,1.96-4.32,4.96c-4.19,30.88-11.76,60.82-26.08,88.72
			c-25.24,49.15-65.23,79.38-118.72,92.12c-33.32,7.94-67.01,8.3-100.86,4.6c-43.46-4.76-85.49-15.58-126.38-30.78
			c-30.53-11.35-60.69-23.47-92.75-30.39c-83.58-18.03-167.95-27.37-253.5-25.53c-44.96,0.97-89.23,7.12-133.2,16.39
			c-32.46,6.85-65.31,11.02-98.6,11.73c-57.14,1.22-104.74-18.92-142.7-61.77c-20.84-23.52-40.45-47.81-53.21-76.94
			c-14.79-33.77-21.56-69.24-22.51-105.87c-1.51-58.14,9.77-113.91,31.93-167.6c12.31-29.83,19.89-61.05,26.92-92.45
			c1.15-5.14,0.53-8.52-3.11-12.74c-38.08-44.17-68.34-93.14-88.42-148.05C6.85,273.01-0.3,237.43,3.92,200.3
			c1.7-14.99,5.02-29.56,12.65-42.82C28,137.6,47.63,128.35,69.61,134.69c37.55,10.84,66.18,33.01,81.51,69.96
			c4.65,11.2,7.97,22.94,11.9,34.44c0.51,1.51,0.99,3.02,1.48,4.54c0.54-0.01,1.08-0.01,1.62-0.02c0.14-3.58,0.84-7.24,0.33-10.72
			c-4.7-32.04-7.75-64.2-6.33-96.62c1.01-23.08,4.12-45.8,13.81-67.12c5.91-12.99,13.8-24.66,26.43-31.73
			c6.66-3.72,14.39-6.14,21.93-7.52c10.24-1.87,14.36,3.64,11.21,13.55c-3.13,9.83-4.64,19.76-2.55,30.03
			c1.8,8.83,5.76,16.49,12.34,23.75c1.33-7.26,2.29-13.77,3.74-20.18c4.02-17.8,10.89-34.3,23.32-48
			c15.9-17.51,36.26-25.85,59.45-26.67c11.04-0.39,22.18,1.55,33.25,2.71c3.98,0.42,7.46,2.24,8.17,6.82
			c0.67,4.32-2.09,6.59-5.29,8.79c-14.49,9.96-26.69,21.91-30.14,39.99c-1.14,5.99-0.18,12.39-0.18,20.12
			c22.4-28.72,49.16-42,84.02-30.35c15.13,5.06,29.98,11.42,39.29,26.73c0.67-0.66,2.03-1.9,3.26-3.26
			c9.16-10.2,18.79-19.87,30.85-26.7c20-11.32,38.44-6.13,49.37,14.06c2.44,4.51,4.51,9.33,6.03,14.23
			c7.07,22.74,8.56,46.14,7.01,69.73c-2.78,42.28-15.59,81.56-36.19,118.45c-0.93,1.67-1.29,4.21-0.8,6.04
			c7.44,27.5,18.34,53.52,33.97,77.44c0.09,0.14,0.25,0.26,0.28,0.41c1.88,8.46,8.6,8.06,15,8.12c21.97,0.22,42.57-5.63,62.06-15.19
			c26.26-12.89,53.19-23.78,81.83-30.06c31.76-6.96,63.88-9.64,96.33-7.49c11.62,0.77,23.21,2.14,34.81,3.15
			c1.77,0.15,3.76,0.3,5.36-0.3c27.98-10.64,56.96-13.19,86.53-10.62c45.3,3.95,87.43,17.54,125.37,42.81
			c35.63,23.73,62.78,55.03,80,94.38c7.18,16.41,10.06,33.53,2.75,50.28c7.5,6.65,15.28,12.49,21.78,19.51
			c17.49,18.89,25.29,42.18,27.26,67.28c1.3,16.56,0.85,33.28,0.72,49.92c-0.03,4.48,0.57,8.11,3,12.04
			c7.44,12.04,13.83,24.73,21.47,36.64c8.8,13.72,17.98,27.27,28.02,40.09c4.45,5.68,11.01,10.08,17.35,13.83
			c12.79,7.56,23,16.98,27.6,31.53c0.18,0.56,0.68,1.02,1.03,1.52C1291,767,1291,779,1291,791z M510.32,227.92
			c0.23,0.69,0.45,1.39,0.68,2.08c0.15,1.3,0.29,2.6,0.44,3.91c0.31,2.85,0.63,5.69,0.94,8.54c0.39,0.04,0.78,0.09,1.17,0.13
			c0.6-1.46,1.2-2.91,1.8-4.37c0.35-1.39,0.7-2.78,1.06-4.17c2.56-5.29,5.53-10.42,7.6-15.89c15-39.61,21.14-80.3,13.98-122.44
			c-1.87-11.02-4.6-21.86-11.2-31.21c-5.71-8.07-12.87-10.31-21.75-6.33c-4.31,1.93-8.14,4.93-12.19,7.44
			c-2.19,1.83-4.37,3.67-6.56,5.5c-1.08,1.01-2.16,2.02-3.24,3.02c-1.13,0.96-2.44,1.77-3.35,2.9
			c-9.69,12.06-19.25,24.22-29.01,36.23c-2.83,3.49-1.92,5.38,1.37,8c15.76,12.55,27.69,27.79,32.13,47.99
			c0.31,1.41,0.97,2.9,1.91,3.97c4.49,5.11,9.14,10.09,13.73,15.11c1.68,2.91,3.36,5.81,5.04,8.72c1.3,3.68,2.59,7.36,3.89,11.04
			c0.46,4.97,0.92,9.93,1.38,14.9C510.19,224.64,510.25,226.28,510.32,227.92z M1128.22,459.54c-0.75,5.17-1.51,10.35-2.47,16.96
			c1.77-1.13,3.91-1.75,4.09-2.73c0.83-4.51,1.11-9.12,1.59-13.69c-0.15-1.11-0.3-2.21-0.44-3.32c-0.15-1.22-0.3-2.44-0.45-3.66
			c-0.17-0.7-0.34-1.41-0.5-2.11c-4.07-10.05-7.23-20.59-12.4-30.03c-9.98-18.21-23.06-34.29-38.21-48.51
			c-30.91-29.02-67.73-46.83-108.72-56.46c-29.6-6.96-59.44-8.71-90.74-3.57c2.17,0.71,3.22,1.16,4.32,1.41
			c34.25,7.58,67.44,18.51,99.71,32.19c36.48,15.47,71.44,33.76,102.64,58.44c18.07,14.29,35.44,29.45,41.52,53.23
			C1128.18,458.3,1128.2,458.92,1128.22,459.54z M454.8,83.53c-15.3-0.57-29.63,1.53-40.4,14.7c7.11,3.75,13.8,7.28,20.82,10.98
			c1.52-2.13,2.9-4.18,4.4-6.13c5.02-6.54,10.08-13.05,15.07-19.61c-0.15-0.29-0.3-0.57-0.1-0.18
			C454.33,82.99,454.56,83.26,454.8,83.53z M62.98,148.8c-2.98-0.18-5.96-0.35-8.94-0.53c-2.35,0.56-4.7,1.12-7.05,1.68
			c-1.37,0.59-2.74,1.19-4.11,1.78c-2.3,1.74-4.6,3.48-6.9,5.21c-3.36,5.26-7.64,10.15-9.91,15.84c-9.31,23.32-9.74,47.74-6.74,72.2
			c2.86,23.35,9.57,45.77,18.24,67.67c17.17,43.37,41.39,82.54,69.85,119.26c2.66,3.44,5.56,6.69,9.27,11.12
			c0.32-3.63,0.51-5.73,0.7-7.82c1.22-5.4,2.44-10.8,3.67-16.2c1.35-5.74,2.7-11.47,4.09-17.4c-1.34-0.52-2.36-1.16-3.45-1.31
			c-7.13-1.01-13.15-4.11-18.24-9.17c-0.67-0.66-1.7-0.95-2.56-1.42c-5.65-8.24-11.3-16.49-16.95-24.73
			c-1.23-2.49-2.68-4.9-3.66-7.49c-1.93-5.11-3.6-10.33-5.37-15.5c-3.31-14.24-7.46-28.36-9.75-42.76
			c-3.91-24.62-6.97-49.39-9.76-74.17c-1.51-13.47-0.72-26.95,4.45-39.83c2.97-7.4,7.35-13.36,15.23-16.06
			c3.64,0.62,7.28,1.24,10.93,1.86c2.97,3.34,5.94,6.67,8.9,10.01c2.83,8.31,5.66,16.62,8.49,24.93c0.18,0.69,0.36,1.37,0.54,2.06
			c0.15,0.98,0.31,1.96,0.46,2.94c0.17,0.69,0.34,1.38,0.51,2.07c0.1,0.65,0.21,1.3,0.31,1.94c0.21,1.03,0.41,2.05,0.62,3.08
			c0.1,0.64,0.2,1.28,0.31,1.92c4.3,29.11,14.4,55.95,31.42,80.06c2.53,3.58,5.44,6.9,9.06,11.44c1.44-5.81,2.51-10.11,3.57-14.41
			c0.47-1.64,0.94-3.27,1.4-4.91c0.35-1.29,0.71-2.59,1.06-3.88c0.46-1.76,0.91-3.53,1.37-5.29c0.88-4.28,2.49-8.58,2.41-12.84
			c-0.06-3.45-2.22-6.84-3.34-10.29c-5.83-17.87-11-35.97-17.58-53.56c-8.65-23.12-27.99-36.32-47.96-48.6
			c-5.81-2.26-11.62-4.53-17.43-6.79C67.74,150.22,65.36,149.51,62.98,148.8z M763,474.99c3.34,0.92,6.68,1.84,10.02,2.77
			c3.65,0.78,7.31,1.57,10.96,2.35c2.56,0.65,5.09,1.55,7.7,1.91c21.85,2.99,43.67,6.41,65.6,8.61c16.16,1.62,32.47,1.62,48.72,2.34
			c5,0.09,9.99,0.17,14.99,0.26c3.67,0.08,7.35,0.17,11.02,0.25c3.66-0.01,7.32-0.02,10.98-0.03c3-0.06,6-0.13,9-0.19
			c3.67-0.08,7.34-0.15,11.01-0.23c7.66-0.29,15.33-0.58,22.99-0.87c32.84-0.94,65.46-3.89,97.58-11.02
			c7.25-1.61,14.44-4.04,21.23-7.06c7.74-3.44,10.4-9.98,7.06-17.77c-2.65-6.18-6.27-12.14-10.47-17.4
			c-10.15-12.74-22.97-22.68-36.27-31.9c-45.33-31.4-95.13-53.32-147.8-68.99c-23.37-6.95-46.89-13.41-71.36-15.34
			c-6.11-0.92-12.23-1.84-18.34-2.76c-7.21-0.61-14.42-1.23-21.63-1.84c-7.68-0.12-15.37-0.24-23.05-0.36
			c-12.28,0.71-24.62,0.95-36.84,2.24c-28.49,3-55.98,10.2-82.34,21.49c-15.91,6.82-31.43,14.64-47.63,20.69
			c-24.35,9.1-49.49,12.01-75,4.75c-16.69-4.75-31.32-13.1-42.49-26.69c-3.36-4.08-2.84-8.06,0.75-10.98
			c3.4-2.77,6.89-2.34,10.61,1.34c2.25,2.22,4.22,4.81,6.73,6.67c5.05,3.75,10.38,7.12,15.6,10.65c0.45-0.51,0.9-1.02,1.35-1.52
			c-0.84-1.71-1.62-3.46-2.54-5.13c-20.68-37.6-33.05-77.7-36.27-120.56c-0.69-9.26-2.9-17.97-9.19-25.28
			c-0.43,0.39-0.76,0.54-0.85,0.79c-0.27,0.78-0.49,1.59-0.67,2.41c-4.99,23.22-17.23,42.35-33.44,59.25
			c-3.12,3.26-6.62,5.2-11.13,3.21c-4.54-2.01-5.09-5.77-4.84-10.38c1.55-28.09-5.72-52.52-30.01-69.45
			c-8.04-5.6-16.69-10-27.23-12.33c1.37,3.39,2.44,5.95,3.45,8.54c14.88,38.23,0.09,75.85-26.12,99.25
			c-6.51,5.81-14.93,2.11-16.81-6.46c-2.25-10.22-4.35-20.6-8.05-30.33c-9.63-25.36-27.3-43.01-53.18-51.98
			c-1.74-0.6-3.61-0.84-6.43-1.47c1.36,3.09,2.25,5.04,3.07,7.01c5.16,12.41,8.82,25.18,8.31,38.77
			c-0.41,10.87-3.07,21.14-10.27,29.66c-4.84,5.72-10.54,5.42-15.1-0.41c-1.54-1.97-3-4-4.62-5.9
			c-10.96-12.86-24.4-19.93-41.76-17.61c-9.1,1.22-16.93,5.45-24.91,9.77c-5.21,2.82-7.16,6.62-8.51,11.8
			c-8.99,34.47-18.44,68.83-27.14,103.38c-4.84,19.19-8.54,38.67-12.76,58.02c-0.17,0.7-0.34,1.41-0.51,2.11
			c-0.12,0.66-0.23,1.33-0.35,1.99c-2.39,10.98-4.79,21.96-7.18,32.93c-0.67,3.64-1.34,7.29-2,10.94
			c-0.85,3.37-1.71,6.75-2.56,10.12c-1.45,6.63-2.89,13.26-4.34,19.89c-6.62,21.35-13.25,42.71-19.87,64.06
			c-1.52,3.67-3.05,7.33-4.55,11.01c-17.54,42.93-26.31,87.75-28.2,133.93c-0.9,21.97,0.86,43.84,4.81,65.51
			c5.3,29.08,14.59,56.77,31.05,81.48c8.91,13.38,18.9,26.14,29.29,38.43c18.06,21.38,38.52,40,64.69,51.33
			c21.4,9.26,43.9,12.78,67.03,13.13c8-0.26,15.99-0.53,23.99-0.79c6-0.42,12-0.84,18-1.26c5.69-0.73,11.38-1.47,17.07-2.2
			c5.01-0.72,10.02-1.44,15.04-2.16c4.3-0.71,8.61-1.43,12.91-2.14c7.21-1.24,14.48-2.17,21.6-3.78
			c51.04-11.58,102.82-16.6,155.02-15.78c33.72,0.53,67.55,2.14,101.07,5.72c36.82,3.93,73.36,10.58,109.99,16.22
			c9.48,1.46,18.86,3.6,28.28,5.42c0.23,0.14,0.47,0.27,0.7,0.41c-0.24-0.13-0.47-0.27-0.71-0.4c-0.53-0.6-0.98-1.31-1.61-1.79
			c-11.12-8.48-22.53-16.61-33.33-25.47c-15.75-12.92-30.06-27.35-42.38-43.64c-3.63-4.81-3.33-9.15,0.34-11.91
			c3.88-2.91,7.45-1.76,11.58,2.68c11.67,12.54,22.92,25.59,35.54,37.11c24.97,22.78,53.33,40.95,82.76,57.43
			c22.68,12.7,47.22,20.61,72.09,27.63c7.33,2.01,14.66,4.02,22,6.02c4.65,1.07,9.3,2.15,13.95,3.22c4.35,0.9,8.71,1.8,13.06,2.69
			c8.51,1.5,16.98,3.29,25.53,4.44c33.03,4.45,66.03,5.17,98.91-1.44c44.6-8.97,80.82-30.83,106.14-69.3
			c15.61-23.72,24.74-50.02,30.39-77.64c1.53-7.5,2.68-15.09,4.06-22.91c-10.79,7.9-20.93,15.34-31.08,22.77
			c-1.02,0.63-2.03,1.27-3.05,1.9c-1.3,0.73-2.61,1.46-3.91,2.19c-1.69,0.93-3.39,1.86-5.08,2.8c-0.78,0.28-1.59,0.49-2.33,0.85
			c-35.49,17.75-73.44,26.75-112.66,29.9c-22.34,1.79-44.92,1.99-67.33,1.13c-21.56-0.83-43.14-3.18-64.51-6.22
			c-31.46-4.47-62.44-11.54-92.94-20.55c-62.51-18.47-121.03-44.97-172.2-86.09c-19.16-15.4-36.65-32.48-50.9-52.66
			c-3.38-4.79-3.09-9.22,0.55-11.99c3.72-2.83,8.15-1.83,11.49,2.95c18.89,27.05,43.59,48,70.38,66.63
			c33.28,23.14,69.43,40.78,107.49,54.52c9.33,3.37,18.95,5.96,28.43,8.9c6.5,2.05,12.99,4.1,19.49,6.15
			c3.37,0.87,6.74,1.74,10.11,2.61c3.33,0.98,6.67,1.96,10,2.94c5.61,1.19,11.22,2.37,16.82,3.56
			c26.91,6.32,54.16,10.46,81.69,12.93c46.53,4.16,92.8,3.28,138.52-7.32c34.26-7.94,66.45-20.59,93.65-43.67
			c7.32-6.21,14.24-12.94,20.93-19.83c7.07-7.28,6.17-20.71-1.78-29.2c-3.17-3.38-6.83-6.34-10.51-9.19
			c-11.68-9.06-19.55-20.84-22.11-35.2c-2.18-12.2-3.51-24.82-3.04-37.18c1.12-29.78,3.63-59.5,5.35-89.25
			c1.18-20.48,1.45-40.95-2.58-61.24c-6.5-32.67-24.41-55.91-55.74-68.44c-3.93-1.57-6.78-1.28-10.67,0.1
			c-10,3.56-20.34,6.19-30.54,9.2c-1.67,0.29-3.34,0.58-5.01,0.87c-1.37,0.23-2.74,0.45-4.11,0.68c-1.29,0.21-2.58,0.42-3.87,0.62
			c-2.72,0.43-5.44,0.85-8.16,1.28c-32.18,2.37-64.33,5.73-96.56,6.8c-27.74,0.92-55.59-0.42-83.37-1.43
			c-31.3-1.13-62.39-4.72-93.07-11.1c-20.89-4.35-41.73-9.38-60.26-20.44c-7.88-4.71-16.51-10.11-21.41-17.46
			c-9.84-14.77-17.42-31.07-22.25-48.38c-6.2-22.21-1.37-37.26,16.61-48.55c7.13-4.47,14.43-9.87,23.86-8.62
			c3.41,3.28,4.88,7,2.58,11.55c-2.01,1.32-4.02,2.64-6.03,3.96c-1.35,0.61-2.71,1.23-4.06,1.84c-3.65,1.95-7.54,3.57-10.9,5.93
			c-6.22,4.36-9.97,10.27-9.06,18.26c0.45,3.94,0.69,8.01,1.9,11.74c2.53,7.73,5.62,15.27,8.52,22.87
			c8.08,21.13,22.79,35.14,44.66,41.42C753.01,471.64,758,473.32,763,474.99z M1229.28,810.02c-0.18,0.98-0.36,1.95-0.53,2.93
			c-1.64,4.15-3.28,8.31-5.38,13.61c4.35-1.57,7.55-2.73,10.75-3.89c3.19-1.23,6.46-2.28,9.56-3.72
			c16.66-7.74,30.17-18.05,33.06-38.02c3.04-20.94-3.88-36.85-21.13-45.25c-8.74-4.26-15.92-10.19-22.12-17.51
			c-15.23-18.01-27.03-38.31-39.04-58.47c-0.85-1.43-1.75-2.83-3.19-5.16c-0.37,4.17-0.69,6.97-0.87,9.79
			c-1.18,18.92-2.94,37.83-3.32,56.77c-0.45,22.77,7.76,41.63,28.12,53.84C1224.72,784.69,1230.89,795.79,1229.28,810.02z
			 M342,228.09c3.29,9.85,6.59,19.7,10.08,30.14c9.89-11.71,16.8-24.48,18.96-39.55c2.88-20.17-3.01-38.15-13.89-54.87
			c-4.34-6.68-3.64-9.9,2.83-13.96c23.58,2.56,45.11,10.22,62.74,26.57c5.67,5.26,10.2,11.74,15.25,17.67
			c6.49,12.74,10.92,26.12,11.98,41.7c9.34-12.29,15.87-24.34,19.02-38.01c4.18-18.17,0.9-35-11.08-49.3
			c-6.24-7.45-13.5-14.43-21.45-19.96c-9.92-6.89-20.94-12.24-31.66-17.91c-8.41-4.45-10.25-10.49-4.85-18.28
			c6.03-8.71,13.96-15.13,23.73-19.26c1.59-0.67,3.17-1.35,5.33-2.28c-9.44-5.66-18.84-8.37-28.9-8.91
			c-9.38-1.63-18.12,0.63-26.39,4.77c-14,7.01-23.52,18.62-31.51,31.68c-3.55,5.8-5.34,6.59-11.82,5.23
			c-1.02-1.29-2.35-2.44-3.03-3.89c-12.54-26.88-9.61-51.16,10.11-74c2.22-2.57,4.62-4.99,6.94-7.48c-0.15-0.57-0.31-1.14-0.46-1.71
			c-7.63,0.7-15.27,1.39-22.9,2.09c-13.74,1.42-25.53,7.25-35.52,16.52c-15.53,14.41-22.04,33.32-25.41,53.52
			c-1.17,6.99-2.17,14.26-1.5,21.23c0.71,7.36,0.39,9.57-6.63,11.85c-4.08-2.4-8.57-4.3-12.16-7.28
			c-19.1-15.84-27.36-36.12-24.01-60.89c0.32-2.38,0.67-4.77,1.08-7.71c-7.42,2.74-13.4,6.34-17.82,12.24
			c-2.67,3.56-5.75,6.88-7.95,10.71c-9.93,17.28-13.34,36.4-15.13,55.9c-2.54,27.64-0.79,55.19,2.26,82.69
			c0.89,8.03,2.13,16.02,3.17,23.74c0.83,0.23,0.99,0.33,1.12,0.3c0.48-0.11,1-0.18,1.43-0.41c20.18-10.63,40.54-11.89,61.13-1.18
			c6.22,5.1,12.45,10.19,20.01,16.39c0.52-7.63,1.74-14.36,1.29-20.98c-1.05-15.59-7.4-29.5-15.39-42.69
			c-3.43-5.66-3.28-8.27,1.26-13.23c2.29-0.18,4.62-0.71,6.88-0.47c25.89,2.7,47.99,13.35,65.03,33.06
			C331.03,209.81,336.11,219.31,342,228.09z M78.59,183.53c-2.1,2.85-3.69,4.12-4.06,5.68c-1.7,7.05-4.54,14.26-4.23,21.29
			c0.74,17.15,2.38,34.33,4.81,51.33c3.04,21.25,6.69,42.44,11.1,63.45c3.49,16.62,9.38,32.56,19.68,46.44
			c4.52,6.1,9.93,11.09,17.4,13.55c3.42,1.13,5.05,0.75,5.96-3.2c3.93-17.11,8.27-34.13,12.18-51.24c0.38-1.66-0.64-4.14-1.82-5.56
			c-4.26-5.09-9.35-9.53-13.25-14.86c-15.1-20.65-25.04-43.79-31.28-68.48c-3.77-14.91-6.53-30.07-10.22-45
			C83.8,192.65,81.11,188.78,78.59,183.53z M457.55,78.11c-0.11,0.11-0.31,0.22-0.31,0.34c-0.01,0.12,0.17,0.25,0.27,0.37
			c0.11-0.11,0.31-0.22,0.31-0.34C457.83,78.36,457.65,78.23,457.55,78.11z"/>
		<path class="st2" d="M135.87,425.01c0.12-0.66,0.23-1.33,0.35-1.99c0.17-0.7,0.34-1.41,0.51-2.11
			c4.22-19.35,7.92-38.83,12.76-58.02c8.71-34.54,18.15-68.9,27.14-103.38c1.35-5.18,3.3-8.98,8.51-11.8
			c7.98-4.32,15.81-8.55,24.91-9.77c17.35-2.32,30.79,4.74,41.76,17.61c1.62,1.9,3.08,3.93,4.62,5.9c4.55,5.83,10.26,6.13,15.1,0.41
			c7.2-8.51,9.86-18.79,10.27-29.66c0.51-13.58-3.15-26.36-8.31-38.77c-0.82-1.97-1.72-3.92-3.07-7.01
			c2.82,0.63,4.69,0.87,6.43,1.47c25.88,8.97,43.55,26.62,53.18,51.98c3.7,9.73,5.8,20.12,8.05,30.33
			c1.89,8.57,10.3,12.27,16.81,6.46c26.21-23.41,41-61.02,26.12-99.25c-1.01-2.59-2.08-5.15-3.45-8.54
			c10.54,2.34,19.19,6.73,27.23,12.33c24.29,16.93,31.56,41.36,30.01,69.45c-0.25,4.61,0.29,8.37,4.84,10.38
			c4.51,2,8.01,0.05,11.13-3.21c16.21-16.9,28.45-36.03,33.44-59.25c0.17-0.81,0.4-1.62,0.67-2.41c0.09-0.25,0.42-0.4,0.85-0.79
			c6.29,7.31,8.49,16.02,9.19,25.28c3.21,42.86,15.59,82.95,36.27,120.56c0.92,1.67,1.7,3.42,2.54,5.13
			c-0.45,0.51-0.9,1.02-1.35,1.52c-5.22-3.53-10.55-6.9-15.6-10.65c-2.51-1.87-4.48-4.45-6.73-6.67c-3.72-3.68-7.22-4.11-10.61-1.34
			c-3.59,2.93-4.11,6.9-0.75,10.98c11.17,13.59,25.8,21.93,42.49,26.69c25.51,7.26,50.65,4.35,75-4.75
			c16.19-6.05,31.71-13.87,47.63-20.69c26.35-11.29,53.84-18.49,82.34-21.49c12.22-1.29,24.56-1.52,36.84-2.24
			c0.91,1.71,1.39,4.28,2.81,5c11.9,6.09,24.03,11.72,35.96,17.76c3.33,1.69,6.2,4.31,9.28,6.5c-4.53,1.01-9.09,1.89-13.58,3.05
			c-20.02,5.14-38.34,13.25-51.8,29.85c-19.12,23.59-12.49,54.93,14.58,68.69c10,5.09,20.75,7.33,31.82,7.24
			c10.13-0.09,20.24-1.34,30.36-1.82c17.94-0.86,35.9-2.17,53.85-2.15c33.93,0.03,67.86,0.87,101.78,1.37
			c-0.42,4.43-4.46,4.59-7.28,5.63c-15.41,5.68-30.97,10.98-46.42,16.56c-10.77,3.89-21.51,7.89-32.13,12.16
			c-2.45,0.99-6.3,1.16-6.18,5.4c-16.25-0.72-32.56-0.72-48.72-2.34c-21.94-2.2-43.75-5.62-65.6-8.61c-2.6-0.36-5.13-1.26-7.7-1.91
			c-1.2-7.86-7.23-12.72-12.38-17.43c-8.39-7.68-18-14.01-27.08-20.94c-7.3-5.58-14.06-11.6-17.61-20.46
			c-3.68-9.16-1.38-18.01,1.44-26.69c2.7-8.32,4.49-16.75,3.53-25.42c-0.75-6.86-2.34-13.67-7.46-19.23
			c-1.53,0.94-2.78,1.7-4.03,2.47c-9.42-1.24-16.73,4.15-23.86,8.62c-17.97,11.28-22.81,26.33-16.61,48.55
			c4.83,17.3,12.41,33.6,22.25,48.38c4.9,7.35,13.53,12.76,21.41,17.46c18.53,11.06,39.36,16.09,60.26,20.44
			c30.69,6.38,61.77,9.97,93.07,11.1c27.78,1,55.62,2.34,83.37,1.43c32.22-1.07,64.37-4.43,96.56-6.8c1.4,1.44,2.62,3.13,4.23,4.26
			c4.03,2.84,8.75,4.88,12.25,8.23c5.61,5.37,10.54,11.47,15.6,17.4c10.13,11.86,19.44,24.01,25.5,38.83
			c9.55,23.39,11.08,46.98,6.9,71.55c-2.43,14.32-4.46,28.82-5.1,43.3c-0.69,15.74,0.32,31.56,0.84,47.34
			c0.17,5.1,1.23,10.16,1.67,15.26c0.51,5.94,1.19,11.9,1.05,17.84c-0.16,6.59-0.88,13.2-1.9,19.72c-0.52,3.31-1.7,6.77-3.48,9.58
			c-2.83,4.45-6.32,8.5-9.69,12.58c-8.45,10.23-18.87,16.91-32.38,18.57c-15.08,1.86-30.07,4.35-45.13,6.34
			c-15.23,2.01-30.45,4.41-45.76,5.43c-16.73,1.12-33.57,0.51-50.34,1.3c-10.71,0.51-21.42,1.81-32.03,3.45
			c-16.33,2.51-32.64,5.28-48.83,8.58c-10.9,2.22-22.48,2.72-31.84,10.02c-9.49-2.95-19.1-5.54-28.43-8.9
			c-38.07-13.73-74.22-31.38-107.49-54.52c-26.79-18.63-51.5-39.58-70.38-66.63c-3.34-4.78-7.77-5.78-11.49-2.95
			c-3.64,2.77-3.93,7.2-0.55,11.99c14.25,20.17,31.74,37.26,50.9,52.66c51.17,41.13,109.69,67.63,172.2,86.09
			c30.5,9.01,61.48,16.07,92.94,20.55c21.38,3.04,42.95,5.4,64.51,6.22c22.41,0.86,44.99,0.66,67.33-1.13
			c39.22-3.15,77.17-12.15,112.66-29.9c0.73-0.37,1.55-0.57,2.33-0.85c-1.82,3.08-3.09,6.71-5.54,9.16
			c-13.5,13.54-27.27,26.8-40.98,40.12c-0.94,0.91-2.03,1.75-3.18,2.36c-18.05,9.51-35.89,19.47-54.27,28.31
			c-16.99,8.17-35.64,10.9-54.02,14.45c-17.67,3.4-35.46,6.84-52.59,12.17c-18.17,5.66-35.94,12.51-54.87,15.48
			c-1.94,0.3-3.65,2.1-5.47,3.2c-24.87-7.02-49.41-14.93-72.09-27.63c-29.43-16.48-57.78-34.65-82.76-57.43
			c-12.63-11.52-23.87-24.57-35.54-37.11c-4.14-4.44-7.7-5.6-11.58-2.68c-3.68,2.76-3.98,7.1-0.34,11.91
			c12.32,16.29,26.63,30.72,42.38,43.64c10.8,8.87,22.21,16.99,33.33,25.47c0.63,0.48,1.07,1.19,1.61,1.79l0.01-0.01
			c-9.42-1.83-18.8-3.96-28.28-5.42c-36.63-5.65-73.17-12.3-109.99-16.22c-33.52-3.57-67.35-5.18-101.07-5.72
			c-52.2-0.83-103.99,4.2-155.02,15.78c-7.12,1.62-14.4,2.54-21.6,3.78c-0.88-1.32-1.45-3.25-2.68-3.86
			c-4.74-2.35-9.52-5.24-14.6-6.15c-9.57-1.71-19.33-2.63-29.05-3.07c-17.6-0.79-35.03-2.35-51.79-8.14
			c-15.44-5.33-30.62-11.49-42.84-22.62c-11.36-10.35-22.09-21.44-32.63-32.64c-4.73-5.02-8.7-10.87-12.35-16.76
			c-5.42-8.74-10.22-17.86-15.35-26.78c-7.84-13.64-16.05-27.08-23.49-40.93c-6.45-12.02-8.93-25.22-9.24-38.83
			c-0.3-13.12-0.66-26.23-1.01-39.34c-0.02-0.82-0.19-1.65-0.28-2.47c-1.24-11.83-3.06-23.63-3.57-35.49
			c-0.83-19.4-0.24-38.82,3.84-57.93c4.28-20.04,8.43-40.12,13.2-60.05c6.12-25.56,12.71-50.96,10.9-77.67
			c-1.08-15.88-1.37-31.8-2.16-47.7C137.85,427.48,136.58,426.26,135.87,425.01z M565.78,795.51c-0.26-10.5-0.77-20.99-0.73-31.49
			c0.06-17.47,7.4-32.25,17.41-46.08c4.6-6.36,9.91-12.51,10.54-20.93c4.99-0.01,10.06-0.61,14.96,0.06
			c16.27,2.21,30.13,8.29,37,24.79c1.79,4.31,5.58,5.87,9.25,4.48c4.08-1.55,5.85-5.18,4.36-9.8c-2.86-8.84-8.29-15.96-15.69-21.42
			c-15.48-11.42-33.03-14.82-51.95-13.16c-34.49,3.02-66.42,25.16-72.45,63.74c-2.52,16.11-0.87,31.47,9.84,44.36
			c14.13,17.01,33.77,22.18,54.79,23.32c3.69,0.2,6.62-2.25,6.99-6.48c0.38-4.29-1.57-7.05-5.76-8.05c-1.6-0.38-3.3-0.38-4.92-0.68
			C574.87,797.31,570.33,796.39,565.78,795.51z M256.98,689.01c-1.35-3.89-3.52-7.71-3.9-11.69c-1.71-18.21-2.91-36.47-4.32-54.71
			c-0.18-2.31,0.25-5.18-0.94-6.78c-1.69-2.26-4.6-4.82-7.07-4.91c-2.18-0.08-4.83,2.76-6.6,4.87c-0.98,1.17-0.89,3.52-0.77,5.3
			c1.17,17.77,1.72,35.62,3.86,53.27c3.72,30.73,22.86,53.19,51.61,60.05c35.61,8.49,68.86,1.82,98.87-19.12
			c13.83-9.65,23.47-22.63,25.93-39.94c0.89-6.26,1.57-12.55,2.37-18.83c2.17-17.01,7.4-32.49,21.65-43.48
			c11.08-8.54,23.89-13.19,37.36-15.98c9.11-1.89,18.4-2.88,27.61-4.27c4.64-0.7,7.5-3.8,7.33-7.98c-0.17-4.29-3.18-6.96-8.1-6.91
			c-2.82,0.03-5.72,0.07-8.45,0.68c-14.42,3.24-28.8,6.66-43.19,10.02c-1.32-0.83-2.63-2.32-3.96-2.33
			c-2.25-0.02-4.55,0.74-6.75,1.45c-13.57,4.34-27.04,8.97-40.68,13.07c-6.98,2.09-12.37,6.04-16.96,11.45
			c-6.42,7.58-12.9,15.11-19.3,22.7c-9.77,11.61-22.9,19-34.81,27.93c-13.44,10.08-27.91,17.89-44.52,21.23
			C274.52,685.85,265.74,687.37,256.98,689.01z M227.32,511.77c0.48,16.59,1.59,33,5.67,49.1c7.4,29.17,25.89,46.91,55.23,53.37
			c17.38,3.83,34.79,2.66,52.09-0.41c38.11-6.76,64.33-27.57,73.68-65.98c4.63-19,6.84-38.6,9.97-57.96
			c1.03-6.39,1.35-12.88,2.28-19.29c0.7-4.84,2.88-9.67,2.6-14.4c-1.14-18.81-7.15-36.14-17.68-51.84
			c-28.01-41.75-80.48-55.18-123.49-30.37c-33.98,19.6-52.3,50.16-56.49,89.02C229.42,479.22,228.58,495.51,227.32,511.77z"/>
		<path class="st3" d="M1078.01,498.13c10.2-3,20.54-5.64,30.54-9.2c3.88-1.38,6.73-1.68,10.67-0.1
			c31.33,12.52,49.24,35.77,55.74,68.44c4.04,20.29,3.76,40.76,2.58,61.24c-1.71,29.76-4.23,59.48-5.35,89.25
			c-0.46,12.35,0.87,24.97,3.04,37.18c2.56,14.36,10.43,26.13,22.11,35.2c3.67,2.85,7.34,5.81,10.51,9.19
			c7.95,8.49,8.85,21.92,1.78,29.2c-6.69,6.89-13.61,13.62-20.93,19.83c-27.2,23.08-59.39,35.73-93.65,43.67
			c-45.72,10.6-91.99,11.48-138.52,7.32c-27.53-2.46-54.78-6.61-81.69-12.93c1.24-1.15,2.31-2.77,3.77-3.33
			c2.43-0.93,5.11-1.29,7.72-1.69c13.87-2.16,27.7-4.92,41.65-6.22c15.5-1.44,31.16-1.13,46.7-2.3c11.84-0.89,23.64-2.66,35.39-4.47
			c14.53-2.24,29.07-4.57,43.47-7.54c10.5-2.17,21.21-4.39,31.03-8.49c9.68-4.03,18.36-10.47,27.49-15.82
			c5.57-3.27,11.5-6.09,14.74-12.19c2.42-4.55,5.27-8.92,7.18-13.67c1.57-3.9,2.47-8.19,2.92-12.39c0.99-9.37,0.86-18.91,2.41-28.17
			c1.64-9.78,3.61-19.39,2.73-29.39c-0.56-6.43-1.03-12.92-0.85-19.36c0.26-9.26,0.85-18.53,1.85-27.73
			c2-18.39,4.77-36.7,6.44-55.12c0.9-9.89,1.01-20.01,0.02-29.89c-1.6-16.07-7.77-30.89-16.17-44.53
			c-5.17-8.4-10.93-16.81-18.02-23.55c-7.98-7.57-18.01-12.93-26.62-19.91C1084.52,507.25,1081.54,502.35,1078.01,498.13z"/>
		<path class="st4" d="M437.96,194.11c-5.05-5.92-9.58-12.41-15.25-17.67c-17.63-16.35-39.16-24.01-62.74-26.57
			c-2.17,0.05-4.82-0.7-6.42,0.28c-12.75,7.82-16.66,16.1-12.25,30.47c4.02,13.09,5.32,26.25,4.57,39.69
			c-0.15,2.66-2.53,5.19-3.88,7.78c-5.89-8.79-10.97-18.28-17.84-26.22c-17.04-19.71-39.14-30.36-65.03-33.06
			c-2.25-0.23-4.58,0.3-6.88,0.47c-5.93-2.92-15.29-1.49-19.45,2.29c-5.54,5.03-2.99,16.12,0.42,22.22
			c3.76,6.73,7.61,13.54,10.2,20.76c1.68,4.68,1.18,10.14,1.66,15.25c-20.59-10.7-40.95-9.45-61.13,1.18
			c-0.43,0.23-0.94,0.3-1.43,0.41c-0.13,0.03-0.3-0.07-1.12-0.3c-1.04-7.72-2.28-15.71-3.17-23.74c-3.05-27.49-4.8-55.04-2.26-82.69
			c1.79-19.5,5.2-38.63,15.13-55.9c2.2-3.83,5.28-7.16,7.95-10.71c-1.22,12.03,2.7,22.82,7.68,33.49
			c5.53,11.84,13.19,22.17,21.48,32.11c5.64,6.76,18.44,5.65,23.76-1.96c7.02-2.28,7.34-4.49,6.63-11.85
			c-0.67-6.97,0.33-14.24,1.5-21.23c3.37-20.2,9.89-39.11,25.41-53.52c9.99-9.27,21.78-15.1,35.52-16.52
			c-0.75,1.07-1.56,2.1-2.24,3.2c-4.05,6.57-9.5,12.69-11.78,19.83c-4.18,13.08-5.18,26.78-2.49,40.58
			c1.65,8.44,4.96,15.74,11.56,21.38c4.12,3.53,10.72,3.53,14.29,0c6.47,1.36,8.27,0.57,11.82-5.23
			c7.99-13.06,17.51-24.67,31.51-31.68c8.27-4.14,17.01-6.4,26.38-4.77c-2.37,2.54-4.57,5.27-7.13,7.59
			c-7.54,6.83-12.32,15.14-13.63,25.24c-1.13,8.67-1.05,16.85,7.93,22.24c5.61,3.37,10.75,7.58,15.87,11.7
			c6.57,5.29,13.01,10.74,19.3,16.36c3.19,2.86,6.08,6.11,8.82,9.42c8.91,10.8,9.5,23.67,8.71,36.78
			C439.88,192.23,438.65,193.15,437.96,194.11z"/>
		<path class="st5" d="M1174.95,866.89c10.14-7.43,20.29-14.86,31.08-22.77c-1.37,7.82-2.53,15.4-4.06,22.91
			c-5.64,27.62-14.77,53.92-30.39,77.64c-25.33,38.47-61.55,60.33-106.14,69.3c-32.87,6.62-65.88,5.89-98.91,1.44
			c-8.56-1.15-17.03-2.94-25.53-4.44c1-1.32,1.72-3.31,3.04-3.86c6.28-2.59,12.55-5.55,19.12-7c25.66-5.65,51.5-10.47,77.13-16.25
			c11.57-2.61,23.66-5.07,34.01-10.49c21.53-11.26,39.15-28.24,57.58-43.86c13.56-11.49,22.41-26.97,33.15-40.83
			C1169.98,882.32,1174.47,875.43,1174.95,866.89z"/>
		<path class="st6" d="M264.02,957.75c-23.13-0.35-45.63-3.87-67.03-13.13c-26.17-11.32-46.63-29.94-64.69-51.33
			c-10.38-12.29-20.37-25.05-29.29-38.43c-16.45-24.71-25.75-52.39-31.05-81.48c-3.95-21.66-5.71-43.54-4.81-65.51
			c1.9-46.18,10.67-91,28.2-133.93c1.5-3.68,3.04-7.34,4.55-11.01c0.2,2.02,0.95,4.17,0.5,6.04c-6.37,26.61-10.13,53.65-11.17,80.91
			c-0.6,15.85,0.95,31.8,1.92,47.68c1.04,17,2.81,33.95,3.75,50.95c0.75,13.52,3.12,26.63,8.01,39.22
			c11.07,28.5,27.55,54.15,43.54,79.92c12.02,19.37,28.51,35.27,45.34,50.59c19.4,17.66,42.07,29.28,67.36,36.02
			C260.96,954.77,262.41,956.57,264.02,957.75z"/>
		<path class="st5" d="M845.98,322.68c24.47,1.92,47.99,8.38,71.36,15.34c52.66,15.67,102.47,37.59,147.8,68.99
			c13.3,9.21,26.11,19.16,36.27,31.9c4.19,5.26,7.82,11.23,10.47,17.4c3.34,7.79,0.67,14.34-7.06,17.77
			c-6.79,3.02-13.98,5.45-21.23,7.06c-32.12,7.13-64.74,10.09-97.58,11.02c-0.37-3.59,2.51-3.81,4.81-4.56
			c16.67-5.48,31.83-13.58,43.72-26.72c11.2-12.39,14.07-29.53-0.21-41.93c-8.99-7.8-18.17-15.55-28.04-22.14
			c-13.92-9.3-28.63-17.41-42.9-26.19c-22.84-14.06-47.77-23.01-73.24-30.81c-13.61-4.17-27.05-8.92-40.5-13.61
			C848.18,325.69,847.18,323.88,845.98,322.68z"/>
		<path class="st5" d="M1228.75,812.94c0.18-0.98,0.36-1.95,0.53-2.93c0.79-0.52,1.96-0.85,2.32-1.58
			c1.89-3.82,3.92-7.63,5.22-11.67c1.22-3.78,2.22-7.83,2.21-11.76c-0.03-7.81-5.4-12.82-10.88-17.37c-1.79-1.48-5.31-3.26-6.53-2.5
			c-1.89,1.19-2.36,4.5-3.66,6.79c-0.66,1.15-1.82,2.01-2.75,3.01c-20.36-12.2-28.57-31.07-28.12-53.84
			c0.37-18.94,2.14-37.85,3.32-56.77c0.18-2.82,0.49-5.63,0.87-9.79c1.44,2.32,2.34,3.73,3.19,5.16
			c12.01,20.16,23.81,40.46,39.04,58.47c6.19,7.32,13.37,13.25,22.12,17.51c17.25,8.41,24.16,24.31,21.13,45.25
			c-2.9,19.97-16.4,30.28-33.06,38.02c-3.09,1.44-6.37,2.49-9.56,3.72C1232.33,819.42,1230.54,816.18,1228.75,812.94z"/>
		<path class="st7" d="M78.59,183.53c2.51,5.25,5.21,9.13,6.26,13.4c3.68,14.93,6.45,30.1,10.22,45
			c6.24,24.69,16.18,47.83,31.28,68.48c3.9,5.33,9,9.77,13.25,14.86c1.19,1.42,2.2,3.9,1.82,5.56
			c-3.92,17.11-8.25,34.13-12.18,51.24c-0.91,3.95-2.54,4.32-5.96,3.2c-7.47-2.46-12.88-7.46-17.4-13.55
			c-10.29-13.88-16.19-29.82-19.68-46.44c-4.41-21-8.06-42.2-11.1-63.45c-2.43-17-4.07-34.18-4.81-51.33
			c-0.31-7.03,2.54-14.23,4.23-21.29C74.91,187.65,76.5,186.38,78.59,183.53z"/>
		<path class="st8" d="M818.4,861.16c9.36-7.29,20.94-7.8,31.84-10.02c16.19-3.3,32.5-6.06,48.83-8.58
			c10.61-1.63,21.32-2.94,32.03-3.45c16.76-0.79,33.6-0.19,50.34-1.3c15.31-1.02,30.53-3.42,45.76-5.43
			c15.06-1.99,30.06-4.48,45.13-6.34c13.51-1.67,23.93-8.34,32.38-18.57c3.37-4.08,6.87-8.13,9.69-12.58
			c1.79-2.82,2.97-6.27,3.48-9.58c1.01-6.52,1.74-13.13,1.9-19.72c0.14-5.93-0.54-11.9-1.05-17.84c-0.44-5.1-1.5-10.16-1.67-15.26
			c-0.52-15.78-1.53-31.6-0.84-47.34c0.64-14.49,2.66-28.98,5.1-43.3c4.18-24.57,2.64-48.16-6.9-71.55
			c-6.05-14.83-15.37-26.98-25.5-38.83c-5.06-5.93-9.99-12.02-15.6-17.4c-3.5-3.35-8.22-5.4-12.25-8.23
			c-1.61-1.13-2.83-2.82-4.23-4.26c2.72-0.43,5.44-0.85,8.16-1.28c0.8,1.3,1.35,2.89,2.46,3.84c3.5,3.02,7.51,5.49,10.77,8.73
			c7.31,7.25,13.78,15.43,21.53,22.15c12.45,10.81,19.94,24.62,26.15,39.36c9.76,23.18,8.1,47.14,4.77,71.28
			c-1.96,14.23-3.89,28.53-4.49,42.86c-0.6,14.41,0.88,28.89,0.69,43.33c-0.24,18.41-1.11,36.81-1.99,55.2
			c-0.18,3.7-0.99,7.63-2.55,10.97c-7.09,15.14-19.88,24.43-34.75,30.33c-9.24,3.67-19.44,5.08-29.31,6.96
			c-18.01,3.43-36,7.45-54.19,9.37c-20.57,2.17-41.35,2.29-62.04,3.31c-7.12,0.35-14.31,0.2-21.34,1.17
			c-14.4,1.98-28.73,4.46-43.05,6.92c-10.75,1.84-21.48,3.81-32.15,6.08c-2.98,0.63-6.97,0.67-7.62,5.15
			C831.4,865.26,824.9,863.21,818.4,861.16z"/>
		<path class="st9" d="M1130.55,453.1c0.15,1.22,0.3,2.44,0.45,3.66c-0.95,0.31-1.89,0.62-2.84,0.93
			c-6.08-23.79-23.44-38.95-41.51-53.24c-31.2-24.68-66.16-42.98-102.64-58.44c-32.27-13.68-65.46-24.61-99.71-32.19
			c-1.1-0.24-2.15-0.69-4.32-1.41c31.3-5.14,61.14-3.39,90.74,3.57c40.99,9.63,77.81,27.44,108.72,56.46
			c15.15,14.23,28.23,30.3,38.21,48.51c5.17,9.44,8.33,19.98,12.4,30.03C1130.21,451.69,1130.38,452.39,1130.55,453.1z"/>
		<path class="st10" d="M135.87,425.01c0.71,1.25,1.98,2.47,2.05,3.75c0.8,15.9,1.09,31.82,2.16,47.7
			c1.81,26.7-4.78,52.1-10.9,77.67c-4.77,19.93-8.92,40.01-13.2,60.05c-4.08,19.11-4.68,38.52-3.84,57.93
			c0.51,11.86,2.34,23.66,3.57,35.49c0.09,0.82,0.25,1.64,0.28,2.47c0.35,13.11,0.71,26.23,1.01,39.34
			c0.31,13.61,2.79,26.81,9.24,38.83c7.44,13.85,15.66,27.29,23.49,40.93c5.13,8.92,9.93,18.04,15.35,26.78
			c3.65,5.88,7.62,11.74,12.35,16.76c10.54,11.2,21.27,22.29,32.63,32.64c12.22,11.13,27.4,17.29,42.84,22.62
			c16.77,5.78,34.2,7.34,51.79,8.14c9.72,0.44,19.49,1.36,29.05,3.07c5.08,0.91,9.86,3.8,14.6,6.15c1.23,0.61,1.81,2.54,2.68,3.86
			c-4.3,0.71-8.61,1.43-12.92,2.14c-3.79-1.44-7.47-3.67-11.38-4.17c-18.03-2.32-36.2-3.6-54.17-6.31
			c-22.49-3.39-42.92-12.43-61.6-25.39c-12.24-8.49-22.5-19.13-32.17-30.3c-7.15-8.26-14.41-16.58-20.31-25.72
			c-9-13.93-17.15-28.44-25.16-42.98c-6.21-11.28-12.37-22.68-17.28-34.56c-6.37-15.39-6.63-31.97-7.07-48.41
			c-0.26-9.62-0.55-19.25-1.31-28.83c-0.96-12.19-3.16-24.32-3.45-36.51c-0.29-12.22,0.59-24.54,1.91-36.71
			c1.56-14.44,3.49-28.91,6.41-43.12c5.96-28.99,13.02-57.75,18.97-86.75c2.78-13.54,2.54-27.39-0.57-41.01
			c-0.23-0.99-1.47-1.75-2.25-2.62C131.08,446.96,133.47,435.99,135.87,425.01z"/>
		<path class="st11" d="M437.96,194.11c0.69-0.95,1.92-1.87,1.98-2.86c0.78-13.12,0.2-25.99-8.71-36.78
			c-2.73-3.31-5.62-6.56-8.82-9.42c-6.28-5.62-12.73-11.08-19.3-16.36c-5.12-4.12-10.26-8.33-15.87-11.7
			c-8.98-5.4-9.06-13.57-7.93-22.24c1.32-10.1,6.09-18.41,13.63-25.24c2.56-2.32,4.76-5.05,7.13-7.59
			c10.06,0.55,19.45,3.25,28.9,8.91c-2.16,0.92-3.74,1.6-5.33,2.28c-9.77,4.13-17.7,10.54-23.73,19.26
			c-5.4,7.8-3.56,13.84,4.85,18.28c10.72,5.67,21.74,11.02,31.66,17.91c7.96,5.53,15.21,12.51,21.45,19.96
			c11.98,14.3,15.26,31.13,11.08,49.3c-3.15,13.67-9.68,25.72-19.02,38.01C448.88,220.23,444.45,206.85,437.96,194.11z"/>
		<path class="st12" d="M1078.01,498.13c3.53,4.22,6.51,9.12,10.7,12.52c8.61,6.98,18.64,12.34,26.62,19.91
			c7.09,6.73,12.85,15.15,18.02,23.55c8.4,13.64,14.57,28.46,16.17,44.53c0.98,9.87,0.88,20-0.02,29.89
			c-1.67,18.42-4.44,36.73-6.44,55.12c-1,9.21-1.59,18.48-1.85,27.73c-0.18,6.44,0.28,12.92,0.85,19.36
			c0.88,10-1.09,19.62-2.73,29.39c-1.55,9.26-1.42,18.8-2.41,28.17c-0.44,4.2-1.35,8.49-2.92,12.39c-1.91,4.75-4.77,9.12-7.18,13.67
			c-3.24,6.1-9.17,8.92-14.74,12.19c-9.13,5.36-17.81,11.79-27.49,15.82c-9.83,4.1-20.53,6.32-31.03,8.49
			c-14.4,2.97-28.94,5.3-43.47,7.54c-11.75,1.81-23.55,3.58-35.39,4.47c-15.54,1.17-31.2,0.87-46.7,2.3
			c-13.96,1.29-27.78,4.05-41.65,6.22c-2.61,0.41-5.28,0.76-7.72,1.69c-1.47,0.56-2.53,2.18-3.77,3.33
			c-5.61-1.19-11.22-2.37-16.82-3.56c1.47-1.3,2.76-3.34,4.46-3.78c5.75-1.49,11.61-2.64,17.49-3.52
			c17.48-2.62,34.92-6.44,52.49-7.2c21.87-0.95,43.74-1.28,65.44-4.4c17-2.45,33.98-5.16,50.89-8.16
			c9.92-1.76,19.74-4.11,29.53-6.52c13.54-3.33,24.69-11.37,35.65-19.39c11.39-8.33,17.99-19.45,17.58-34.24
			c-0.19-6.9,0.68-13.86,1.34-20.76c0.9-9.38,2.53-18.7,2.98-28.09c0.37-7.7-0.83-15.46-0.79-23.19
			c0.08-12.79,0.51-25.58,0.99-38.36c0.14-3.78,0.91-7.54,1.47-11.3c1.8-12.26,4.36-24.46,5.3-36.78
			c1.54-20.23-0.35-40.2-9.25-58.86c-6.38-13.36-12.98-26.62-25.43-35.71c-3.47-2.54-6.87-5.21-10.07-8.08
			c-7.78-6.98-15.48-14.06-23.08-21.24c-1.06-1-1.35-2.83-1.99-4.27C1074.67,498.71,1076.34,498.42,1078.01,498.13z"/>
		<path class="st2" d="M499.82,188.34c-4.59-5.03-9.23-10-13.73-15.11c-0.94-1.07-1.6-2.57-1.91-3.97
			c-4.45-20.2-16.38-35.43-32.13-47.99c-3.29-2.62-4.2-4.51-1.37-8c9.76-12.01,19.32-24.17,29.01-36.23
			c0.91-1.13,2.23-1.94,3.35-2.9c0.45,1.17,0.56,2.88,1.42,3.43c9.29,5.99,14.17,15.36,19.64,24.44c8.08,13.4,9.95,27.84,6.96,42.66
			C508.08,159.38,503.62,173.79,499.82,188.34z"/>
		<path class="st13" d="M492.84,65.61c4.05-2.51,7.88-5.51,12.19-7.44c8.88-3.98,16.04-1.74,21.75,6.33
			c6.61,9.35,9.33,20.19,11.2,31.21c7.16,42.14,1.01,82.82-13.98,122.44c-2.07,5.47-5.04,10.6-7.6,15.89
			c-1.48-1.68-2.97-3.35-4.45-5.03c0-0.31,0-0.62,0-0.94c-0.61-1.69-1.22-3.39-1.83-5.08c-0.46-4.97-0.92-9.93-1.38-14.9
			c0.95-4.1,1.8-8.22,2.85-12.29c3.96-15.36,8.67-30.56,11.73-46.09c1.8-9.13,2.49-19.01,1.05-28.15
			c-3.25-20.65-14.02-37.67-29.23-51.92C494.06,68.64,493.59,66.97,492.84,65.61z"/>
		<path class="st14" d="M117.38,435.21c-0.19,2.1-0.37,4.19-0.7,7.82c-3.7-4.43-6.6-7.68-9.27-11.12
			c-28.46-36.71-52.69-75.89-69.85-119.26c-8.67-21.9-15.37-44.32-18.24-67.67c-3-24.46-2.57-48.88,6.74-72.2
			c2.27-5.69,6.56-10.58,9.91-15.84c-1.15,6.67-1.97,13.42-3.53,20c-4.24,17.92-5.79,35.89-2.44,54.14
			c1.85,10.07,3.47,20.19,5.04,30.31c0.81,5.22,0.8,10.61,2.05,15.71c1.64,6.68,4.07,13.17,6.32,19.68
			c2.76,7.99,6.39,15.75,8.39,23.91c3.44,13.99,9.76,26.4,18.22,37.85c11.82,15.99,23.8,31.86,35.6,47.87
			c4.98,6.76,8.99,13.89,8.56,22.86C114.09,431.19,116.26,433.23,117.38,435.21z"/>
		<path class="st15" d="M264.02,957.75c-1.61-1.18-3.06-2.98-4.85-3.46c-25.29-6.74-47.96-18.36-67.36-36.02
			c-16.83-15.32-33.32-31.22-45.34-50.59c-16-25.78-32.47-51.42-43.54-79.92c-4.89-12.59-7.27-25.7-8.01-39.22
			c-0.94-17-2.71-33.96-3.75-50.95c-0.97-15.88-2.53-31.83-1.92-47.68c1.04-27.27,4.79-54.3,11.17-80.91
			c0.45-1.87-0.31-4.02-0.5-6.04c6.62-21.35,13.25-42.71,19.87-64.06c0.32,1.51,1.15,3.13,0.87,4.53
			c-3.12,15.23-6.16,30.48-9.71,45.61c-6.58,28.04-13.01,56.03-15.19,84.92c-1.47,19.58-1.43,39,0.31,58.5
			c1.43,16.15,3.55,32.31,3.72,48.49c0.22,21.56,4.85,41.77,14.66,60.79c6.25,12.1,13.03,23.93,19.86,35.72
			c6.57,11.33,12.4,23.35,20.55,33.45c11.94,14.79,25.23,28.57,38.73,41.99c17.83,17.73,39.9,28.42,63.91,35.09
			c8.26,2.29,16.86,3.32,25.22,5.27c1.98,0.46,5.56-0.32,5.3,3.73C280.01,957.22,272.01,957.49,264.02,957.75z"/>
		<path class="st16" d="M837.89,867.31c0.65-4.47,4.64-4.51,7.62-5.15c10.66-2.27,21.4-4.24,32.15-6.08
			c14.33-2.46,28.66-4.94,43.05-6.92c7.03-0.97,14.22-0.82,21.34-1.17c20.69-1.02,41.48-1.14,62.04-3.31
			c18.19-1.92,36.18-5.94,54.19-9.37c9.87-1.88,20.07-3.3,29.31-6.96c14.88-5.9,27.67-15.19,34.75-30.33
			c1.56-3.34,2.37-7.26,2.55-10.97c0.88-18.39,1.76-36.8,1.99-55.2c0.19-14.44-1.29-28.93-0.69-43.33
			c0.6-14.33,2.53-28.63,4.49-42.86c3.33-24.14,4.99-48.11-4.77-71.28c-6.21-14.74-13.7-28.55-26.15-39.36
			c-7.75-6.72-14.22-14.9-21.53-22.15c-3.26-3.24-7.27-5.71-10.77-8.73c-1.1-0.95-1.65-2.54-2.46-3.84
			c1.29-0.21,2.58-0.42,3.87-0.62c0.82,1.39,1.38,3.06,2.51,4.11c11.67,10.82,23.66,21.3,35.11,32.34
			c15.9,15.33,24.75,34.56,29.49,55.88c0.01,1-0.14,2.03,0.06,2.99c3.3,15.49,1.46,30.83-0.86,46.24
			c-2.04,13.52-4.14,27.09-5.01,40.72c-0.85,13.35-0.24,26.79-0.1,40.2c0.01,1.29,1.25,2.58,1.91,3.86c0,0.67,0,1.33,0,2
			c0,3.67,0,7.33,0,11c0,1,0,2,0,3c-0.67,3.67-1.33,7.33-2,11c-0.67,12.23-1.22,24.47-2.07,36.69c-0.23,3.24-0.93,6.58-2.14,9.58
			c-3.94,9.74-11.32,16.41-19.78,22.39c-11.12,7.87-22.84,13.95-36.34,16.41c-15.59,2.85-31.12,6.1-46.76,8.68
			c-11.23,1.85-22.6,2.86-33.91,4.25c-1.33,0-2.67,0-4,0c-0.67,0-1.33,0-2,0c-12.17,0.34-24.33,0.63-36.5,1.04
			c-2.18,0.07-4.34,0.63-6.5,0.96c-2,0.33-4,0.67-6,1c-4.62-0.18-9.27-0.69-13.87-0.42c-2.75,0.17-5.43,1.57-8.13,2.42
			c-18.57,3.13-37.16,6.13-55.68,9.53c-2.94,0.54-5.55,2.88-8.32,4.39C844.64,869.05,841.26,868.18,837.89,867.31z"/>
		<path class="st17" d="M128.68,457.94c0.77,0.87,2.02,1.63,2.25,2.62c3.11,13.62,3.35,27.46,0.57,41.01
			c-5.94,28.99-13.01,57.76-18.97,86.75c-2.92,14.22-4.85,28.68-6.41,43.12c-1.32,12.17-2.2,24.49-1.91,36.71
			c0.29,12.19,2.49,24.32,3.45,36.51c0.76,9.59,1.05,19.22,1.31,28.83c0.44,16.43,0.71,33.02,7.07,48.41
			c4.91,11.87,11.07,23.28,17.28,34.56c8.01,14.54,16.15,29.05,25.16,42.98c5.91,9.14,13.16,17.46,20.31,25.72
			c9.67,11.17,19.93,21.81,32.17,30.3c18.68,12.96,39.11,22,61.6,25.39c17.96,2.71,36.14,3.99,54.17,6.31
			c3.91,0.5,7.59,2.73,11.38,4.17c-5.01,0.72-10.02,1.44-15.04,2.16c-0.83-0.82-1.58-2.25-2.5-2.37c-13.6-1.8-27.2-3.58-40.84-5.06
			c-23.41-2.53-44.61-11.06-64.5-23.27c-19.87-12.2-34.31-30.19-49.7-47.11c-4.65-5.11-8.51-11.05-12.1-16.98
			c-8.08-13.35-15.61-27.04-23.67-40.41c-8.18-13.57-15.46-27.53-19.79-42.82c-6.09-21.5-3.6-43.83-5.97-65.69
			c-0.91-8.38-1.93-16.76-2.58-25.16c-0.66-8.59-1.36-17.22-1.25-25.82c0.11-8.87,1.02-17.74,1.88-26.58
			c0.97-10.04,1.49-20.2,3.54-30.03c7-33.5,14.93-66.82,21.74-100.35c1.89-9.32,1.27-19.16,1.54-28.77c0.04-1.38-1.42-2.8-2.19-4.2
			C127.35,465.23,128.01,461.59,128.68,457.94z"/>
		<path class="st8" d="M891.99,999.03c1.82-1.1,3.53-2.9,5.47-3.2c18.93-2.97,36.7-9.82,54.87-15.48
			c17.14-5.34,34.93-8.77,52.59-12.17c18.39-3.54,37.04-6.28,54.02-14.45c18.38-8.84,36.22-18.8,54.27-28.31
			c1.16-0.61,2.24-1.44,3.18-2.36c13.71-13.33,27.48-26.59,40.98-40.12c2.45-2.45,3.72-6.08,5.54-9.16c1.69-0.93,3.39-1.86,5.08-2.8
			c-3.08,5.19-5.7,10.74-9.36,15.48c-3.93,5.06-8.73,9.47-13.35,13.97c-10.58,10.29-20.7,21.16-32.09,30.47
			c-10.09,8.25-21.5,14.96-32.6,21.91c-7.57,4.74-15.18,10.1-23.54,12.73c-15.25,4.79-31.06,7.86-46.68,11.45
			c-18.05,4.15-36.28,7.58-54.18,12.28c-12.97,3.4-25.54,8.31-38.24,12.7c-1.5,0.52-2.65,2.04-3.97,3.1
			C906.66,1003.05,899.33,1001.04,891.99,999.03z"/>
		<path class="st18" d="M848.01,869.92c2.76-1.51,5.37-3.85,8.32-4.39c18.52-3.4,37.11-6.4,55.68-9.53c7.33-0.67,14.67-1.33,22-2
			c2-0.33,4-0.67,6-1c0.4,0.28,0.8,0.81,1.19,0.8c13.32-0.26,26.64-0.54,39.96-0.95c0.64-0.02,1.23-1.21,1.85-1.86
			c0.67,0,1.33,0,2,0c1.33,0,2.67,0,4,0c11.31-1.39,22.68-2.4,33.91-4.25c15.64-2.57,31.16-5.83,46.76-8.68
			c13.5-2.46,25.22-8.55,36.34-16.41c8.45-5.98,15.84-12.65,19.78-22.39c1.21-3,1.92-6.34,2.14-9.58
			c0.85-12.22,1.41-24.46,2.07-36.69c3.19-3.21,2.89-7.05,2-11c0-1,0-2,0-3c0-3.67,0-7.33,0-11c0-0.67,0-1.33,0-2
			c0.33-17.12,0.08-34.27,1.18-51.34c0.91-14.15,3.22-28.23,5.25-42.29c1.83-12.73,2.22-25.38-0.49-38
			c-0.19-0.89-1.27-1.58-1.93-2.36c-4.74-21.32-13.59-40.55-29.49-55.88c-11.45-11.04-23.44-21.52-35.11-32.34
			c-1.13-1.05-1.69-2.73-2.51-4.11c1.37-0.23,2.74-0.45,4.11-0.68c0.64,1.44,0.93,3.27,1.99,4.27c7.6,7.18,15.29,14.26,23.08,21.24
			c3.2,2.87,6.6,5.54,10.07,8.08c12.45,9.09,19.05,22.35,25.43,35.71c8.91,18.67,10.8,38.63,9.25,58.86
			c-0.94,12.32-3.5,24.52-5.3,36.78c-0.55,3.76-1.32,7.52-1.47,11.3c-0.48,12.78-0.91,25.57-0.99,38.36
			c-0.05,7.73,1.16,15.49,0.79,23.19c-0.45,9.39-2.07,18.72-2.98,28.09c-0.66,6.9-1.53,13.86-1.34,20.76
			c0.41,14.79-6.19,25.9-17.58,34.24c-10.96,8.02-22.11,16.05-35.65,19.39c-9.79,2.41-19.61,4.77-29.53,6.52
			c-16.92,2.99-33.89,5.71-50.89,8.16c-21.69,3.12-43.57,3.45-65.44,4.4c-17.57,0.77-35.02,4.58-52.49,7.2
			c-5.88,0.88-11.74,2.03-17.49,3.52c-1.7,0.44-2.98,2.48-4.46,3.78C854.68,871.88,851.34,870.9,848.01,869.92z"/>
		<path class="st19" d="M46.99,149.94c2.35-0.56,4.7-1.12,7.05-1.68c1.05,2.47,1.44,5.7,3.26,7.28c5.63,4.88,11.8,9.13,17.76,13.62
			c-7.88,2.7-12.26,8.66-15.23,16.06c-5.16,12.88-5.96,26.36-4.45,39.83c2.78,24.78,5.85,49.55,9.76,74.17
			c2.29,14.41,6.44,28.52,9.75,42.76c-1.33-0.75-3.2-1.17-3.9-2.31c-1.89-3.08-3.71-6.33-4.81-9.76
			c-3.34-10.39-6.25-20.91-9.48-31.33c-2.1-6.78-5.23-13.34-6.55-20.25c-2.27-11.8-3.47-23.81-5.15-35.73
			c-1.31-9.3-3.06-18.56-3.92-27.91c-1.27-13.68,1.44-27,4.56-40.27C47.53,166.4,49.31,158.26,46.99,149.94z"/>
		<path class="st11" d="M342,228.09c1.35-2.59,3.73-5.12,3.88-7.78c0.75-13.44-0.55-26.6-4.57-39.69
			c-4.41-14.36-0.5-22.65,12.25-30.47c1.6-0.98,4.25-0.23,6.42-0.28c-6.47,4.06-7.17,7.28-2.83,13.96
			c10.88,16.72,16.77,34.69,13.89,54.87c-2.15,15.07-9.06,27.83-18.96,39.55C348.58,247.8,345.29,237.95,342,228.09z"/>
		<path class="st12" d="M845.98,322.68c1.2,1.2,2.2,3,3.64,3.51c13.45,4.68,26.89,9.44,40.5,13.61
			c25.47,7.8,50.41,16.76,73.24,30.81c14.27,8.78,28.97,16.9,42.9,26.19c9.88,6.59,19.05,14.34,28.04,22.14
			c14.28,12.39,11.41,29.54,0.21,41.93c-11.89,13.14-27.05,21.24-43.72,26.72c-2.29,0.75-5.18,0.97-4.81,4.56
			c-7.66,0.29-15.33,0.58-22.99,0.87c1.75-1.65,3.22-4.06,5.3-4.83c9.02-3.34,18.32-5.9,27.31-9.29
			c14.16-5.34,27.02-12.84,36.17-25.31c5.84-7.96,7.32-18.94,0.14-27.04c-4.91-5.54-10.03-11.24-16.06-15.4
			c-16.23-11.18-32.88-21.76-49.57-32.25c-23.65-14.86-49.16-25.61-76.06-32.95c-19.88-5.43-39.39-11.77-57.89-20.92
			c-1.94-0.96-3.15-3.37-4.71-5.1C833.75,320.84,839.87,321.76,845.98,322.68z"/>
		<path class="st20" d="M288.01,956.96c0.26-4.05-3.32-3.27-5.3-3.73c-8.36-1.95-16.96-2.98-25.22-5.27
			c-24.01-6.67-46.08-17.36-63.91-35.09c-13.5-13.42-26.79-27.2-38.73-41.99c-8.15-10.1-13.98-22.11-20.55-33.45
			c-6.83-11.79-13.61-23.62-19.86-35.72c-9.81-19.01-14.45-39.22-14.66-60.79c-0.16-16.17-2.28-32.34-3.72-48.49
			c-1.73-19.5-1.78-38.92-0.31-58.5c2.17-28.89,8.61-56.88,15.19-84.92c3.55-15.13,6.59-30.38,9.71-45.61
			c0.28-1.39-0.55-3.01-0.87-4.53c1.45-6.63,2.89-13.26,4.34-19.89c0.94,2.08,2.9,4.3,2.65,6.23c-1.47,11.29-2.96,22.62-5.37,33.74
			c-4.67,21.5-10.22,42.81-14.92,64.3c-5.36,24.46-9.04,49.23-8.32,74.32c0.55,19.5,2.57,38.96,3.78,58.45
			c0.83,13.4,1.46,26.81,2.05,40.21c0.74,16.81,6.68,32.12,14.2,46.75c6.59,12.82,14.64,24.89,21.54,37.57
			c9.95,18.3,21.4,35.44,35.85,50.54c15.53,16.23,31.3,32.06,51.96,41.96c16.21,7.77,32.95,13.66,50.87,15.98
			c8.18,1.06,16.33,2.4,24.45,3.87c1.18,0.21,2.11,1.82,3.15,2.78C300.01,956.11,294.01,956.54,288.01,956.96z"/>
		<path class="st9" d="M87.56,157.72c19.97,12.28,39.31,25.48,47.96,48.6c6.58,17.58,11.75,35.69,17.58,53.56
			c1.12,3.45,3.28,6.84,3.34,10.29c0.08,4.27-1.53,8.56-2.41,12.84c-1.24-0.74-2.9-1.2-3.66-2.28
			c-5.56-7.84-11.42-15.53-16.25-23.81c-7.26-12.44-11.07-26.32-13.91-40.31c-4.54-22.29-14.7-41.02-32.4-55.54
			C87.2,160.58,87.61,158.86,87.56,157.72z"/>
		<path class="st20" d="M117.38,435.21c-1.12-1.98-3.29-4.02-3.19-5.94c0.43-8.96-3.58-16.1-8.56-22.86
			c-11.79-16.01-23.77-31.88-35.6-47.87c-8.47-11.45-14.79-23.86-18.22-37.85c-2-8.16-5.63-15.92-8.39-23.91
			c-2.25-6.51-4.68-13.01-6.32-19.68c-1.25-5.1-1.23-10.49-2.05-15.71c-1.57-10.12-3.19-20.24-5.04-30.31
			c-3.35-18.26-1.8-36.22,2.44-54.14c1.56-6.58,2.37-13.33,3.53-20c2.3-1.74,4.6-3.48,6.9-5.21c-1.72,10.58-3.03,21.24-5.27,31.71
			c-3.31,15.46-3.3,30.86-0.82,46.37c1.43,8.97,2.85,17.94,4.24,26.92c1.36,8.81,1.77,17.88,4.18,26.39
			c4.47,15.77,10.05,31.22,15.27,46.77c4.25,12.64,12.61,22.89,19.99,33.69c0.58,0.85,2.28,0.95,3.46,1.4
			c5.65,8.24,11.3,16.49,16.95,24.73c0.97,2.19,1.68,4.55,2.96,6.54c4.39,6.83,8.91,13.58,13.55,20.24
			c0.79,1.14,2.42,1.69,3.66,2.51C119.82,424.41,118.6,429.81,117.38,435.21z"/>
		<path class="st12" d="M1174.95,866.89c-0.49,8.55-4.98,15.43-9.92,21.81c-10.74,13.86-19.59,29.33-33.15,40.83
			c-18.43,15.63-36.05,32.6-57.58,43.86c-10.35,5.41-22.44,7.88-34.01,10.49c-25.63,5.77-51.47,10.59-77.13,16.25
			c-6.58,1.45-12.85,4.4-19.12,7c-1.32,0.55-2.04,2.53-3.04,3.86c-4.35-0.9-8.71-1.8-13.06-2.69c1-1.13,1.8-2.65,3.05-3.3
			c2.04-1.06,4.46-1.37,6.56-2.33c27.33-12.53,56.93-15.98,85.98-21.77c12.79-2.55,25.83-5.11,37.84-9.94
			c10.91-4.39,21.11-11.15,30.66-18.18c13.86-10.2,27.53-20.87,40-32.69c11.51-10.91,21.64-23.36,31.74-35.65
			c3.65-4.44,5.48-10.38,8.14-15.63C1172.92,868.15,1173.94,867.52,1174.95,866.89z"/>
		<path class="st21" d="M306.01,955.69c-1.04-0.96-1.97-2.57-3.15-2.78c-8.12-1.46-16.27-2.81-24.45-3.87
			c-17.92-2.32-34.66-8.21-50.87-15.98c-20.66-9.9-36.43-25.73-51.96-41.96c-14.45-15.1-25.9-32.24-35.85-50.54
			c-6.9-12.68-14.94-24.75-21.54-37.57c-7.52-14.63-13.46-29.94-14.2-46.75c-0.59-13.41-1.22-26.82-2.05-40.21
			c-1.21-19.49-3.23-38.95-3.78-58.45c-0.71-25.09,2.97-49.86,8.32-74.32c4.71-21.49,10.25-42.8,14.92-64.3
			c2.41-11.12,3.9-22.45,5.37-33.74c0.25-1.93-1.71-4.14-2.65-6.23c0.85-3.37,1.71-6.75,2.56-10.12c0.77,1.4,2.23,2.82,2.19,4.19
			c-0.27,9.61,0.35,19.45-1.54,28.77c-6.82,33.54-14.74,66.85-21.74,100.35c-2.05,9.83-2.57,19.99-3.54,30.03
			c-0.85,8.84-1.76,17.71-1.88,26.58c-0.11,8.6,0.59,17.23,1.25,25.82c0.65,8.4,1.67,16.78,2.58,25.16
			c2.38,21.86-0.12,44.19,5.97,65.69c4.33,15.29,11.61,29.25,19.79,42.82c8.06,13.37,15.59,27.05,23.67,40.41
			c3.59,5.94,7.45,11.87,12.1,16.98c15.39,16.91,29.83,34.9,49.7,47.11c19.89,12.21,41.08,20.74,64.5,23.27
			c13.64,1.47,27.24,3.26,40.84,5.06c0.92,0.12,1.67,1.55,2.5,2.37C317.39,954.23,311.7,954.96,306.01,955.69z"/>
		<path class="st18" d="M827.64,319.92c1.55,1.74,2.77,4.15,4.71,5.1c18.49,9.15,38.01,15.49,57.89,20.92
			c26.9,7.35,52.41,18.1,76.06,32.95c16.69,10.49,33.35,21.06,49.57,32.25c6.03,4.16,11.15,9.85,16.06,15.4
			c7.18,8.1,5.7,19.09-0.14,27.04c-9.15,12.46-22.02,19.96-36.17,25.31c-8.99,3.39-18.3,5.96-27.31,9.29
			c-2.08,0.77-3.55,3.18-5.3,4.83c-3.67,0.08-7.34,0.15-11.01,0.23c-0.3-4.02,3.05-4.33,5.55-5.22
			c11.43-4.04,22.93-7.91,34.38-11.89c12.25-4.26,23.47-10.33,32.33-19.97c12.49-13.59,9.73-25.34-2.35-35.29
			c-12.75-10.5-26.66-19.65-40.47-28.78c-10.24-6.76-21.09-12.6-31.76-18.69c-1.31-0.75-3.46-3.25-4.64,0.43
			c-1.37-0.87-2.75-1.74-4.12-2.61c-0.65-0.38-1.3-0.76-1.95-1.14c-0.47-0.15-1-0.21-1.41-0.46c-25.72-15.45-53.54-23.74-83.56-24.6
			c-1.45-1.4-2.66-3.31-4.38-4.12c-12.48-5.81-25.13-11.27-37.57-17.18c-2.37-1.13-4.04-3.74-6.03-5.67
			C813.22,318.7,820.43,319.31,827.64,319.92z"/>
		<path class="st22" d="M1171.91,868.79c-2.66,5.25-4.49,11.19-8.14,15.63c-10.11,12.29-20.23,24.74-31.74,35.65
			c-12.47,11.82-26.14,22.48-40,32.69c-9.55,7.03-19.75,13.78-30.66,18.18c-12.01,4.84-25.05,7.39-37.84,9.94
			c-29.04,5.79-58.64,9.24-85.98,21.77c-2.1,0.96-4.52,1.27-6.56,2.33c-1.25,0.65-2.05,2.17-3.05,3.3
			c-4.65-1.07-9.3-2.15-13.95-3.22c1.31-1.06,2.47-2.58,3.97-3.1c12.7-4.39,25.27-9.3,38.24-12.7c17.9-4.7,36.13-8.13,54.18-12.28
			c15.62-3.59,31.42-6.66,46.68-11.45c8.36-2.62,15.97-7.99,23.54-12.73c11.1-6.95,22.51-13.65,32.6-21.91
			c11.39-9.31,21.51-20.18,32.09-30.47c4.62-4.49,9.42-8.9,13.35-13.97c3.67-4.73,6.28-10.29,9.36-15.48
			C1169.3,870.25,1170.6,869.52,1171.91,868.79z"/>
		<path class="st11" d="M330.37,103.57c-3.57,3.53-10.16,3.53-14.29,0c-6.6-5.65-9.91-12.94-11.56-21.38
			c-2.7-13.8-1.69-27.5,2.49-40.58c2.28-7.14,7.73-13.27,11.78-19.83c0.68-1.11,1.49-2.14,2.24-3.2c7.63-0.7,15.27-1.39,22.9-2.09
			c0.15,0.57,0.31,1.14,0.46,1.71c-2.32,2.49-4.72,4.9-6.94,7.48c-19.72,22.84-22.65,47.12-10.11,74
			C328.01,101.13,329.34,102.28,330.37,103.57z"/>
		<path class="st11" d="M245.08,229.8c-0.48-5.11,0.03-10.57-1.66-15.25c-2.59-7.21-6.45-14.02-10.2-20.76
			c-3.41-6.1-5.95-17.19-0.42-22.22c4.16-3.78,13.52-5.2,19.45-2.29c-4.54,4.96-4.69,7.57-1.26,13.23
			c7.99,13.19,14.34,27.1,15.39,42.69c0.45,6.62-0.77,13.35-1.29,20.98C257.52,239.99,251.3,234.89,245.08,229.8z"/>
		<path class="st11" d="M251.96,121.69c-5.32,7.61-18.12,8.72-23.76,1.96c-8.29-9.94-15.95-20.27-21.48-32.11
			c-4.98-10.67-8.9-21.46-7.68-33.49c4.42-5.9,10.4-9.5,17.82-12.24c-0.41,2.94-0.76,5.32-1.08,7.71
			c-3.35,24.77,4.91,45.05,24.01,60.89C243.39,117.39,247.88,119.29,251.96,121.69z"/>
		<path class="st23" d="M83.92,364.98c-1.18-0.45-2.87-0.54-3.46-1.4c-7.38-10.8-15.74-21.05-19.99-33.69
			c-5.23-15.55-10.8-31.01-15.27-46.77c-2.41-8.51-2.83-17.58-4.18-26.39c-1.38-8.98-2.81-17.95-4.24-26.92
			c-2.47-15.51-2.49-30.91,0.82-46.37c2.24-10.47,3.55-21.13,5.27-31.71c1.37-0.6,2.74-1.19,4.11-1.79
			c2.32,8.31,0.54,16.46-1.34,24.5c-3.11,13.26-5.83,26.59-4.56,40.27c0.87,9.34,2.61,18.6,3.92,27.91
			c1.68,11.92,2.88,23.93,5.15,35.73c1.33,6.91,4.45,13.47,6.55,20.25c3.23,10.42,6.14,20.95,9.48,31.33
			c1.1,3.42,2.92,6.68,4.81,9.76c0.7,1.14,2.56,1.56,3.9,2.31c1.78,5.17,3.45,10.38,5.37,15.5
			C81.25,360.08,82.69,362.49,83.92,364.98z"/>
		<path class="st10" d="M720.4,352.4c1.25-0.77,2.5-1.53,4.03-2.47c5.12,5.56,6.7,12.37,7.46,19.23c0.95,8.67-0.83,17.1-3.53,25.42
			c-2.82,8.69-5.11,17.54-1.44,26.69c3.55,8.86,10.31,14.88,17.61,20.46c9.07,6.93,18.69,13.26,27.08,20.94
			c5.15,4.72,11.18,9.57,12.38,17.43c-3.65-0.78-7.31-1.57-10.96-2.35c-1.08-1.82-1.81-4.03-3.3-5.4
			c-6.1-5.59-12.35-11.03-18.72-16.31c-7.39-6.12-15.67-11.33-22.29-18.16c-9.69-10-14.19-22.04-10.1-36.41
			c3.47-12.21,7.39-24.49,4.37-37.51C725.28,359.4,723.81,355.69,720.4,352.4z"/>
		<path class="st14" d="M748.01,469.97c-21.86-6.28-36.57-20.29-44.66-41.42c-2.91-7.6-6-15.14-8.52-22.87
			c-1.22-3.72-1.46-7.8-1.9-11.74c-0.91-7.99,2.85-13.89,9.06-18.26c3.36-2.36,7.25-3.98,10.9-5.93c0.81,8.63-1.14,16.83-3.93,24.88
			c-7.34,21.2-0.7,38.89,14.36,53.91c5.93,5.92,13.34,10.34,19.9,15.65C745.12,465.74,746.43,468.03,748.01,469.97z"/>
		<path class="st24" d="M499.82,188.34c3.81-14.55,8.26-28.96,11.24-43.68c3-14.82,1.12-29.26-6.96-42.66
			c-5.47-9.08-10.35-18.45-19.64-24.44c-0.85-0.55-0.96-2.26-1.42-3.43c1.08-1.01,2.16-2.02,3.24-3.02
			c9.3,4.89,15.39,12.87,20.84,21.52c8.12,12.87,13.51,26.63,12.76,42.07c-0.33,6.89-1.29,13.88-3.01,20.55
			c-3.63,14.04-7.97,27.89-12.01,41.82C503.18,194.15,501.5,191.25,499.82,188.34z"/>
		<path class="st24" d="M932.01,493.48c-3.67-0.08-7.35-0.17-11.02-0.25c1.26-1.68,2.17-4.25,3.82-4.89
			c13.25-5.13,26.65-9.89,40-14.76c10.86-3.95,21.82-7.65,32.53-11.98c3.25-1.31,5.79-4.35,8.66-6.6c1.34-0.46,2.69-0.93,4.03-1.39
			c2.18-2.19,4.37-4.38,6.55-6.57c-0.07-1.02-0.14-2.04-0.21-3.07c-0.36-0.89-0.73-1.77-1.09-2.66c0.47-1.57,1.77-3.47,1.29-4.67
			c-3.78-9.44-10.7-15.65-20.41-18.71c-6.19-6.25-12.37-12.49-18.56-18.74c1.59,0.33,3.43,0.24,4.73,1.04
			c6.92,4.26,13.92,8.45,20.48,13.23c5.34,3.89,10.37,8.31,15.04,12.99c8.37,8.4,8.14,18.02-0.15,26.34
			c-9.54,9.57-21.62,14.66-34.02,19.13c-15.77,5.69-31.63,11.16-47.35,16.98C934.56,489.57,933.43,491.92,932.01,493.48z"/>
		<path class="st25" d="M504.86,197.06c4.05-13.93,8.38-27.78,12.01-41.82c1.73-6.67,2.68-13.66,3.01-20.55
			c0.75-15.44-4.64-29.2-12.76-42.07c-5.45-8.65-11.54-16.62-20.84-21.52c2.19-1.83,4.37-3.67,6.56-5.5
			c0.75,1.36,1.22,3.03,2.3,4.04c15.22,14.25,25.98,31.27,29.23,51.92c1.44,9.13,0.74,19.01-1.05,28.15
			c-3.05,15.53-7.76,30.74-11.73,46.09c-1.05,4.07-1.91,8.19-2.85,12.29C507.45,204.42,506.15,200.74,504.86,197.06z"/>
		<path class="st16" d="M932.01,493.48c1.42-1.56,2.55-3.9,4.31-4.56c15.72-5.82,31.58-11.29,47.35-16.98
			c12.39-4.47,24.48-9.56,34.02-19.13c8.29-8.32,8.52-17.94,0.15-26.34c-4.67-4.68-9.7-9.1-15.04-12.99
			c-6.56-4.78-13.55-8.97-20.48-13.23c-1.3-0.8-3.14-0.72-4.73-1.04c-5.59-4.71-11.18-9.43-16.78-14.14
			c2.65,0.8,5.69,1.02,7.89,2.49c16.69,11.11,33.68,21.85,49.65,33.94c12.34,9.34,15.05,22.07,2.72,33.42
			c-7.64,7.04-17.15,12.7-26.74,16.83c-15.53,6.68-31.84,11.51-47.73,17.37c-1.53,0.56-2.43,2.85-3.62,4.34
			C939.33,493.46,935.67,493.47,932.01,493.48z"/>
		<path class="st20" d="M748.01,469.97c-1.58-1.94-2.88-4.23-4.79-5.77c-6.56-5.31-13.97-9.73-19.9-15.65
			c-15.06-15.02-21.69-32.71-14.36-53.91c2.79-8.06,4.74-16.25,3.93-24.88c1.35-0.62,2.71-1.23,4.06-1.84
			c0.41,3.34,1.54,6.79,1.07,10c-1.06,7.34-2.61,14.64-4.49,21.81c-4.26,16.3-0.29,30.47,11.74,41.79
			c9.01,8.48,19.37,15.51,28.72,23.65c3.28,2.86,8.62,4.18,9,9.81C758,473.32,753.01,471.64,748.01,469.97z"/>
		<path class="st17" d="M763,474.99c-0.38-5.63-5.72-6.95-9-9.81c-9.35-8.15-19.71-15.18-28.72-23.65
			c-12.03-11.31-15.99-25.48-11.74-41.79c1.87-7.18,3.43-14.48,4.49-21.81c0.46-3.22-0.67-6.66-1.07-10
			c2.01-1.32,4.02-2.64,6.03-3.96c3.02,13.02-0.9,25.31-4.37,37.51c-4.09,14.38,0.41,26.41,10.1,36.41
			c6.62,6.83,14.9,12.04,22.29,18.16c6.37,5.28,12.62,10.72,18.72,16.31c1.5,1.37,2.22,3.58,3.3,5.4
			C769.68,476.83,766.34,475.91,763,474.99z"/>
		<path class="st8" d="M806.01,318.08c1.99,1.93,3.66,4.54,6.03,5.67c12.44,5.91,25.09,11.36,37.57,17.18
			c1.73,0.8,2.93,2.72,4.38,4.12c-5.65,0.37-11.3,0.73-16.95,1.1c-0.69,0.13-1.39,0.26-2.08,0.39c-1.32,0.15-2.65,0.3-3.97,0.45
			c-3.08-2.19-5.95-4.81-9.28-6.5c-11.92-6.05-24.06-11.68-35.96-17.76c-1.42-0.72-1.89-3.29-2.81-5
			C790.64,317.84,798.33,317.96,806.01,318.08z"/>
		<path class="st22" d="M942.99,493.44c1.19-1.49,2.09-3.77,3.62-4.34c15.89-5.86,32.21-10.69,47.73-17.37
			c9.59-4.13,19.1-9.79,26.74-16.83c12.33-11.35,9.63-24.08-2.72-33.42c-15.97-12.09-32.96-22.83-49.65-33.94
			c-2.2-1.47-5.24-1.69-7.89-2.49c-5.27-3.74-10.53-7.47-15.8-11.21c1.18-3.68,3.33-1.18,4.64-0.43
			c10.67,6.09,21.52,11.92,31.76,18.69c13.81,9.13,27.72,18.28,40.47,28.78c12.08,9.95,14.84,21.7,2.35,35.29
			c-8.86,9.64-20.08,15.7-32.33,19.97c-11.45,3.99-22.95,7.85-34.38,11.89c-2.5,0.88-5.85,1.2-5.55,5.22
			C948.99,493.32,945.99,493.38,942.99,493.44z"/>
		<path class="st12" d="M87.56,157.72c0.06,1.14-0.36,2.86,0.23,3.35c17.7,14.52,27.86,33.25,32.4,55.54
			c2.85,13.99,6.65,27.87,13.91,40.31c4.83,8.28,10.7,15.97,16.25,23.81c0.77,1.08,2.42,1.53,3.66,2.28
			c-0.46,1.76-0.91,3.53-1.37,5.29c-1.88-1.75-3.96-3.33-5.58-5.3c-2.1-2.55-3.63-5.57-5.73-8.11
			c-13.29-16.01-19.91-34.91-24.44-54.85c-2.63-11.59-5.19-23.27-11.85-33.51c-8.75-13.44-20.09-24.12-33.72-32.48
			c-0.76-0.46-0.82-2.05-1.21-3.11C75.93,153.19,81.75,155.45,87.56,157.72z"/>
		<path class="st24" d="M103.39,205.97c-2.83-8.31-5.66-16.62-8.49-24.93c1.37,0.82,3.37,1.32,4.01,2.53
			c3.87,7.41,8.27,14.71,10.91,22.58c4.05,12.02,6.67,24.51,10.16,36.73c4.61,16.13,15.17,28.86,24.65,42.17
			c1.91,2.68,4.62,4.78,6.96,7.15c-0.47,1.64-0.94,3.27-1.4,4.91c-1.74-1.04-3.91-1.72-5.12-3.19c-3.25-3.96-6.17-8.21-9.06-12.45
			c-4.95-7.24-10.89-14.07-14.41-21.97c-5.1-11.45-8.35-23.72-12.54-35.59c-0.52-1.46-1.93-2.61-2.92-3.9
			c-0.1-0.64-0.2-1.28-0.31-1.92c-0.21-1.03-0.41-2.05-0.62-3.08c-0.1-0.65-0.21-1.3-0.31-1.94c-0.17-0.69-0.34-1.38-0.51-2.07
			c-0.15-0.98-0.31-1.96-0.46-2.94C103.75,207.34,103.57,206.65,103.39,205.97z"/>
		<path class="st2" d="M106.14,219.99c1,1.29,2.41,2.44,2.92,3.9c4.19,11.87,7.44,24.13,12.54,35.59
			c3.51,7.9,9.46,14.73,14.41,21.97c2.9,4.24,5.81,8.49,9.06,12.45c1.21,1.47,3.39,2.15,5.12,3.19c-1.07,4.3-2.13,8.6-3.57,14.41
			c-3.62-4.54-6.53-7.86-9.06-11.44C120.54,275.94,110.44,249.1,106.14,219.99z"/>
		<path class="st22" d="M151.59,292.18c-2.34-2.37-5.06-4.47-6.96-7.15c-9.48-13.31-20.05-26.04-24.65-42.17
			c-3.49-12.22-6.12-24.71-10.16-36.73c-2.65-7.87-7.04-15.16-10.91-22.58c-0.63-1.21-2.64-1.7-4.01-2.53
			c-2.97-3.34-5.94-6.67-8.9-10.01c-0.9-1.62-1.41-3.76-2.76-4.78c-5.25-3.94-10.92-7.32-16.11-11.33
			c-1.85-1.43-2.79-4.05-4.14-6.12c2.38,0.71,4.76,1.42,7.14,2.13c0.39,1.06,0.45,2.65,1.21,3.11
			c13.64,8.36,24.98,19.04,33.72,32.48c6.66,10.24,9.22,21.92,11.85,33.51c4.53,19.94,11.15,38.84,24.44,54.85
			c2.11,2.54,3.64,5.56,5.73,8.11c1.62,1.97,3.7,3.55,5.58,5.3C152.3,289.59,151.95,290.88,151.59,292.18z"/>
		<path class="st8" d="M1006,455c-2.87,2.25-5.42,5.28-8.66,6.6c-10.71,4.33-21.67,8.03-32.53,11.98
			c-13.36,4.86-26.75,9.63-40,14.76c-1.66,0.64-2.57,3.21-3.82,4.89c-5-0.09-9.99-0.17-14.99-0.26c-0.11-4.24,3.74-4.42,6.18-5.4
			c10.62-4.28,21.36-8.27,32.13-12.16c15.45-5.58,31-10.88,46.42-16.56c2.81-1.04,6.86-1.2,7.28-5.63c2.31,0.11,4.63,0.21,6.94,0.32
			C1005.3,454.02,1005.65,454.51,1006,455z"/>
		<path class="st26" d="M454.74,83.5c-5.05,6.52-10.11,13.03-15.13,19.58c-1.5,1.95-2.87,4-4.4,6.13
			c-7.02-3.7-13.71-7.23-20.82-10.98c10.77-13.18,25.09-15.27,40.4-14.7C454.8,83.53,454.74,83.5,454.74,83.5z"/>
		<path class="st12" d="M1215.2,774.93c0.93-0.99,2.1-1.86,2.75-3.01c1.3-2.28,1.77-5.6,3.66-6.79c1.22-0.77,4.74,1.01,6.53,2.5
			c5.48,4.55,10.85,9.56,10.88,17.37c0.01,3.93-0.99,7.98-2.21,11.76c-1.3,4.03-3.33,7.84-5.22,11.67
			c-0.36,0.73-1.53,1.06-2.32,1.58C1230.89,795.79,1224.72,784.69,1215.2,774.93z"/>
		<path class="st24" d="M62.98,148.8c1.35,2.08,2.29,4.69,4.14,6.12c5.19,4.01,10.86,7.39,16.11,11.33
			c1.35,1.01,1.86,3.15,2.76,4.78c-3.64-0.62-7.28-1.24-10.93-1.86c-5.96-4.49-12.14-8.74-17.76-13.62
			c-1.82-1.58-2.22-4.8-3.26-7.28C57.02,148.44,60,148.62,62.98,148.8z"/>
		<path class="st23" d="M121.05,419.01c-1.24-0.82-2.87-1.38-3.66-2.51c-4.64-6.66-9.16-13.41-13.55-20.24
			c-1.28-1.99-1.99-4.35-2.96-6.54c0.86,0.46,1.9,0.75,2.56,1.41c5.09,5.06,11.12,8.16,18.24,9.17c1.09,0.15,2.11,0.79,3.45,1.31
			C123.74,407.54,122.39,413.28,121.05,419.01z"/>
		<path class="st12" d="M1228.75,812.94c1.79,3.24,3.58,6.48,5.37,9.72c-3.2,1.16-6.4,2.32-10.75,3.89
			C1225.46,821.25,1227.1,817.09,1228.75,812.94z"/>
		<path class="st9" d="M1131.44,460.08c-0.48,4.57-0.76,9.18-1.59,13.69c-0.18,0.98-2.32,1.6-4.09,2.73
			c0.96-6.61,1.72-11.79,2.47-16.96C1129.3,459.72,1130.37,459.9,1131.44,460.08z"/>
		<path class="st12" d="M511.95,229.01c1.48,1.67,2.97,3.35,4.45,5.03c-0.35,1.39-0.7,2.78-1.06,4.17c-1.3-1.43-2.6-2.87-3.91-4.3
			c-0.15-1.3-0.29-2.6-0.44-3.91C511.31,229.67,511.63,229.34,511.95,229.01z"/>
		<path class="st2" d="M511.43,233.91c1.3,1.43,2.6,2.87,3.91,4.3c-0.6,1.46-1.2,2.91-1.8,4.37c-0.39-0.04-0.78-0.09-1.17-0.13
			C512.06,239.6,511.75,236.75,511.43,233.91z"/>
		<path class="st12" d="M510.12,222.99c0.61,1.69,1.22,3.39,1.83,5.08c-0.54-0.05-1.09-0.11-1.63-0.16
			C510.25,226.28,510.19,224.64,510.12,222.99z"/>
		<path class="st16" d="M1131.44,460.08c-1.07-0.18-2.14-0.36-3.21-0.54c-0.02-0.62-0.04-1.24-0.07-1.85
			c0.94-0.31,1.89-0.62,2.83-0.93C1131.14,457.87,1131.29,458.97,1131.44,460.08z"/>
		<path class="st2" d="M105.21,214.98c0.21,1.03,0.41,2.05,0.62,3.08C105.62,217.03,105.42,216.01,105.21,214.98z"/>
		<path class="st2" d="M103.39,205.97c0.18,0.69,0.36,1.37,0.54,2.06C103.75,207.34,103.57,206.65,103.39,205.97z"/>
		<path class="st2" d="M104.38,210.97c0.17,0.69,0.34,1.38,0.51,2.07C104.73,212.35,104.55,211.66,104.38,210.97z"/>
		<path class="st2" d="M510.32,227.92c0.55,0.05,1.09,0.11,1.63,0.16c-0.01,0.31-0.01,0.62-0.01,0.94
			c-0.32,0.33-0.63,0.66-0.95,0.99C510.77,229.31,510.54,228.61,510.32,227.92z"/>
		<path class="st16" d="M1130.55,453.1c-0.17-0.7-0.34-1.41-0.5-2.11C1130.21,451.69,1130.38,452.39,1130.55,453.1z"/>
		<path class="st10" d="M136.73,420.91c-0.17,0.7-0.34,1.41-0.51,2.11C136.39,422.31,136.56,421.61,136.73,420.91z"/>
		<path class="st26" d="M454.8,83.53c-0.24-0.27-0.47-0.53-0.21-0.24c-0.21-0.39-0.05-0.1,0.12,0.2
			C454.74,83.5,454.8,83.53,454.8,83.53z"/>
		<path class="st0" d="M457.55,78.11c0.1,0.12,0.28,0.25,0.27,0.37c-0.01,0.12-0.2,0.23-0.31,0.34c-0.1-0.12-0.28-0.25-0.27-0.37
			C457.25,78.33,457.44,78.22,457.55,78.11z"/>
		<path class="st2" d="M767,957c0.24,0.13,0.47,0.27,0.71,0.4C767.47,957.27,767.24,957.13,767,957C767.01,956.99,767,957,767,957z"
			/>
		<path class="st27" d="M227.32,511.77c1.25-16.25,2.1-32.55,3.84-48.75c4.18-38.87,22.5-69.43,56.49-89.02
			c43.02-24.8,95.49-11.38,123.49,30.37c10.53,15.7,16.55,33.03,17.68,51.84c0.29,4.73-1.9,9.56-2.6,14.4
			c-0.92,6.41-1.25,12.9-2.28,19.29c-3.13,19.36-5.34,38.96-9.97,57.96c-9.35,38.41-35.57,59.22-73.68,65.98
			c-17.29,3.07-34.7,4.23-52.09,0.41c-29.34-6.46-47.83-24.21-55.23-53.37C228.91,544.77,227.8,528.36,227.32,511.77z
			 M264.83,414.95c-4.25,7.66-8.96,15.1-12.64,23.02c-4.8,10.34-3.82,11.65,7.73,14.19c3.71,1.18,7.41,2.37,11.12,3.55
			c1.56,0.51,3.09,1.24,4.69,1.49c16.7,2.56,33.34,5.88,50.14,7.29c13.3,1.12,26.8-0.13,40.21-0.33c0.98-0.07,1.96-0.14,2.93-0.21
			c2.68-0.19,5.37-0.37,8.05-0.56c2.32-0.2,4.64-0.4,6.96-0.6c9.98-1.21,19.96-2.42,30.2-3.67c-1.4-17.39-5.99-32.75-15.47-46.21
			c-17.9-25.41-41.96-38.63-73.73-35.64c-3.01,0.55-6.02,1.11-9.03,1.66c-2.73,0.81-5.47,1.62-8.2,2.43
			c-3.31,1.42-6.63,2.84-9.94,4.25c-6.99,5.05-13.97,10.1-20.96,15.15C272.87,405.49,268.85,410.22,264.83,414.95z M263.22,470.89
			c0.93,8.2,0.74,17.06,3.1,25.18c4.8,16.54,15.75,21.52,31.2,19.31c15.15-2.17,27.36-22.13,29.69-34.46
			C306.27,477.63,285.33,474.35,263.22,470.89z"/>
		<path class="st28" d="M1004.96,453.52c-2.31-0.11-4.63-0.21-6.94-0.32c-33.93-0.5-67.85-1.34-101.78-1.37
			c-17.95-0.02-35.9,1.29-53.85,2.15c-10.13,0.49-20.24,1.73-30.36,1.82c-11.07,0.1-21.82-2.15-31.82-7.24
			c-27.06-13.76-33.7-45.1-14.58-68.69c13.46-16.6,31.77-24.71,51.8-29.85c4.49-1.15,9.05-2.04,13.58-3.05
			c1.32-0.15,2.65-0.3,3.97-0.45c0.69-0.13,1.39-0.26,2.08-0.39c5.65-0.37,11.3-0.73,16.95-1.1c30.01,0.86,57.84,9.15,83.56,24.6
			c0.41,0.25,0.94,0.31,1.41,0.46c0.65,0.38,1.3,0.76,1.95,1.14c1.37,0.87,2.75,1.74,4.12,2.61c5.27,3.74,10.53,7.47,15.8,11.21
			c5.59,4.71,11.18,9.43,16.77,14.14c6.19,6.25,12.37,12.49,18.56,18.74c6.37,7.79,12.75,15.58,19.12,23.38
			c0.36,0.89,0.73,1.77,1.09,2.66c0.07,1.02,0.14,2.04,0.21,3.07c-2.18,2.19-4.37,4.38-6.55,6.57
			C1008.34,453.58,1006.65,453.55,1004.96,453.52z M991.39,437.61c0.26-0.36,0.53-0.73,0.79-1.09c-4.09-4.7-7.92-9.65-12.3-14.04
			c-16.12-16.12-33.61-30.67-53.38-42.04c-22.35-12.85-46.59-20.19-72.54-20.27c-8.53-0.03-17.17,1.3-25.58,2.95
			c-18.82,3.69-36.38,9.89-49.94,24.76c-12.89,14.14-11.11,34.28,4.71,44.85c8.73,5.84,18.66,8.22,28.81,8.07
			c12.55-0.18,25.06-2.03,37.61-2.72c16.73-0.92,33.48-1.66,50.22-2c16.48-0.34,32.98-0.09,49.47-0.06c1.82,0,3.63,0.31,5.45,0.37
			C966.95,436.82,979.17,437.21,991.39,437.61z"/>
		<path class="st29" d="M450.23,588.61c14.39-3.36,28.77-6.79,43.19-10.03c2.73-0.61,5.63-0.65,8.45-0.68
			c4.93-0.05,7.93,2.62,8.1,6.91c0.17,4.17-2.7,7.28-7.33,7.98c-9.21,1.39-18.5,2.39-27.61,4.27c-13.47,2.79-26.28,7.43-37.36,15.98
			c-14.25,10.99-19.48,26.48-21.65,43.48c-0.8,6.27-1.48,12.57-2.37,18.83c-2.46,17.3-12.1,30.28-25.93,39.94
			c-30.01,20.95-63.26,27.61-98.87,19.12c-28.75-6.85-47.9-29.31-51.61-60.05c-2.14-17.66-2.68-35.5-3.86-53.27
			c-0.12-1.78-0.21-4.13,0.77-5.3c1.77-2.11,4.42-4.95,6.6-4.87c2.47,0.09,5.38,2.65,7.07,4.91c1.2,1.6,0.77,4.47,0.94,6.78
			c1.41,18.24,2.61,36.5,4.32,54.71c0.37,3.98,2.55,7.8,3.9,11.69c2.43,4.06,4.87,8.11,7.3,12.17c3.58,3.56,7.16,7.12,10.73,10.68
			c5.83,2.69,11.42,6.38,17.55,7.91c23.59,5.88,46.7,3.29,68.86-6.42c22.77-9.98,37.92-25.41,39.04-52.3
			c0.87-20.89,7.24-40.3,22.72-55.61c3.99-3.04,7.97-6.08,11.96-9.12C440.17,593.75,445.2,591.18,450.23,588.61z"/>
		<path class="st29" d="M565.78,795.51c4.55,0.89,9.09,1.8,13.64,2.65c1.63,0.3,3.32,0.3,4.92,0.68c4.19,1,6.14,3.77,5.76,8.05
			c-0.37,4.22-3.3,6.68-6.99,6.48c-21.02-1.14-40.66-6.31-54.79-23.32c-10.71-12.9-12.36-28.26-9.84-44.36
			c6.03-38.58,37.97-60.72,72.45-63.74c18.92-1.66,36.46,1.74,51.95,13.16c7.4,5.46,12.84,12.58,15.69,21.42
			c1.49,4.62-0.28,8.25-4.36,9.8c-3.67,1.39-7.46-0.17-9.25-4.48c-6.87-16.5-20.73-22.58-37-24.79c-4.9-0.67-9.97-0.08-14.96-0.06
			c-4.01,0.64-8.03,1.28-12.04,1.92c-3.98,1.38-7.96,2.76-11.94,4.15c-0.79,0.19-1.66,0.24-2.37,0.6
			c-18.96,9.37-30.68,24.38-33.47,45.4c-1.87,14.15-0.32,27.78,12.72,37.14c3.05,1.88,6.09,3.75,9.14,5.63
			C558.62,793.05,562.2,794.28,565.78,795.51z"/>
		<path class="st24" d="M264.28,701.18c-2.43-4.06-4.87-8.11-7.3-12.17c8.76-1.63,17.54-3.16,26.27-4.91
			c16.61-3.34,31.07-11.15,44.52-21.23c11.91-8.93,25.04-16.32,34.81-27.93c6.4-7.6,12.88-15.13,19.3-22.7
			c4.58-5.41,9.98-9.35,16.96-11.45c13.64-4.09,27.12-8.72,40.68-13.07c2.19-0.7,4.5-1.47,6.75-1.45c1.33,0.01,2.64,1.5,3.96,2.33
			c-5.03,2.57-10.06,5.14-15.09,7.71c-1.2-0.55-2.54-1.75-3.56-1.52c-3.7,0.82-7.34,1.98-10.91,3.27
			c-12.77,4.62-24.72,10.37-33.05,21.87c-13.22,18.24-28.66,34.37-46.84,47.77c-12.83,9.46-25.62,19.13-41.1,23.89
			C288,695.18,276.09,698.01,264.28,701.18z"/>
		<path class="st10" d="M565.78,795.51c-3.58-1.23-7.16-2.46-10.74-3.69c-0.13-3.15-0.32-6.3-0.39-9.45
			c-0.18-7.8-1.44-15.77-0.25-23.35c2.74-17.34,8.56-33.61,20.11-47.47c2.95-3.54,4.34-8.38,6.45-12.63
			c4.01-0.64,8.03-1.28,12.04-1.92c-0.63,8.42-5.94,14.58-10.54,20.93c-10.01,13.83-17.35,28.61-17.41,46.08
			C565.01,774.51,565.52,785.01,565.78,795.51z"/>
		<path class="st22" d="M1136,592c0.66,0.78,1.74,1.48,1.93,2.36c2.71,12.62,2.32,25.27,0.49,38c-2.02,14.06-4.34,28.14-5.25,42.29
			c-1.1,17.07-0.84,34.22-1.18,51.34c-0.67-1.29-1.9-2.57-1.91-3.86c-0.14-13.4-0.75-26.85,0.1-40.2
			c0.87-13.63,2.98-27.2,5.01-40.72c2.32-15.41,4.16-30.75,0.86-46.24C1135.86,594.03,1136.01,593,1136,592z"/>
		<path class="st22" d="M983,851c-0.62,0.65-1.22,1.84-1.85,1.86c-13.32,0.41-26.64,0.69-39.96,0.95c-0.39,0.01-0.79-0.52-1.19-0.8
			c2.17-0.33,4.33-0.88,6.5-0.96C958.67,851.63,970.83,851.34,983,851z"/>
		<path class="st22" d="M934,854c-7.33,0.67-14.67,1.33-22,2c2.71-0.85,5.38-2.25,8.13-2.42C924.73,853.3,929.38,853.82,934,854z"/>
		<path class="st22" d="M1132,728c0,3.67,0,7.33,0,11C1132,735.33,1132,731.67,1132,728z"/>
		<path class="st22" d="M1132,742c0.89,3.95,1.2,7.79-2,11C1130.67,749.33,1131.33,745.67,1132,742z"/>
		<path class="st22" d="M989,851c-1.33,0-2.67,0-4,0C986.33,851,987.67,851,989,851z"/>
		<path class="st22" d="M940.91,371.25c-0.65-0.38-1.3-0.76-1.95-1.14C939.61,370.48,940.26,370.87,940.91,371.25z"/>
		<path class="st2" d="M1015.28,441.31c-6.37-7.79-12.75-15.58-19.12-23.38c9.71,3.07,16.63,9.28,20.41,18.71
			C1017.05,437.84,1015.76,439.74,1015.28,441.31z"/>
		<path class="st2" d="M1004.96,453.52c1.69,0.03,3.39,0.06,5.08,0.08c-1.34,0.47-2.69,0.93-4.03,1.4
			C1005.65,454.51,1005.3,454.02,1004.96,453.52z"/>
		<path class="st2" d="M1016.58,447.04c-0.07-1.02-0.14-2.04-0.21-3.07C1016.45,444.99,1016.52,446.01,1016.58,447.04z"/>
		<path class="st2" d="M837.05,346.14c-0.69,0.13-1.39,0.26-2.08,0.39C835.66,346.4,836.35,346.27,837.05,346.14z"/>
		<path class="st2" d="M276.89,400.76c6.99-5.05,13.97-10.1,20.96-15.15c0.95,1.59,1.56,3.56,2.89,4.72
			c9.24,8.06,19.29,15.31,27.81,24.06c10.06,10.32,18.45,22.06,24.71,35.31c2.72,5.76,4.1,13.62,12.81,14.46
			c-13.41,0.2-26.91,1.45-40.21,0.33c-16.8-1.41-33.44-4.73-50.14-7.29c-1.6-0.25-3.13-0.98-4.69-1.49
			c0.28-2.27,0.42-4.57,0.85-6.81C274.93,433,279.5,417.26,276.89,400.76z"/>
		<path class="st5" d="M325.02,377.28c31.77-3,55.83,10.23,73.73,35.64c9.48,13.46,14.08,28.82,15.47,46.21
			c-10.25,1.24-20.23,2.46-30.2,3.67c-0.23-1.28-0.19-2.69-0.73-3.82c-3.66-7.61-7.18-15.3-11.23-22.7
			c-11.12-20.3-24.78-38.58-43.13-53.06C327.17,381.8,326.3,379.28,325.02,377.28z"/>
		<path class="st26" d="M263.22,470.89c22.11,3.46,43.06,6.74,63.98,10.02c-2.33,12.34-14.54,32.29-29.69,34.46
			c-15.45,2.22-26.39-2.77-31.2-19.31C263.95,487.94,264.14,479.08,263.22,470.89z"/>
		<path class="st8" d="M366.07,464.16c-8.7-0.84-10.08-8.7-12.81-14.46c-6.26-13.25-14.65-24.99-24.71-35.31
			c-8.52-8.74-18.57-16-27.81-24.06c-1.33-1.16-1.94-3.12-2.89-4.72c3.31-1.42,6.63-2.84,9.94-4.25c1.3,1.83,2.33,3.95,3.94,5.43
			c8.03,7.35,16.79,13.99,24.2,21.91c11.71,12.52,21.04,26.9,28.79,42.2c2.04,4.04,2.88,8.68,4.28,13.05
			C368.03,464.02,367.05,464.09,366.07,464.16z"/>
		<path class="st12" d="M325.02,377.28c1.28,2,2.15,4.53,3.91,5.92c18.35,14.48,32.01,32.76,43.13,53.06
			c4.05,7.4,7.57,15.09,11.23,22.7c0.54,1.13,0.5,2.54,0.73,3.82c-2.32,0.2-4.64,0.4-6.96,0.6c-0.69-1.99-1.23-4.04-2.09-5.95
			c-12.33-27.31-28.22-51.96-52.38-70.54c-2.66-2.05-4.41-5.28-6.59-7.96C319,378.38,322.01,377.83,325.02,377.28z"/>
		<path class="st22" d="M315.99,378.94c2.17,2.68,3.93,5.91,6.59,7.96c24.16,18.58,40.05,43.22,52.38,70.54
			c0.86,1.91,1.4,3.96,2.09,5.95c-2.68,0.19-5.37,0.37-8.05,0.56c-1.39-4.37-2.23-9.01-4.28-13.05
			c-7.75-15.3-17.08-29.68-28.79-42.2c-7.41-7.92-16.18-14.55-24.2-21.91c-1.62-1.48-2.64-3.6-3.94-5.43
			C310.53,380.55,313.26,379.74,315.99,378.94z"/>
		<path class="st10" d="M276.89,400.76c2.6,16.49-1.96,32.24-5.01,48.14c-0.43,2.24-0.57,4.54-0.85,6.81
			c-3.71-1.19-7.41-2.37-11.12-3.56c2.31-11.07,4.7-22.12,6.81-33.23c0.22-1.16-1.22-2.65-1.9-3.98
			C268.85,410.22,272.87,405.49,276.89,400.76z"/>
		<path class="st20" d="M264.83,414.95c0.67,1.33,2.12,2.82,1.9,3.98c-2.11,11.11-4.5,22.16-6.81,33.23
			c-11.54-2.54-12.52-3.85-7.73-14.19C255.87,430.05,260.58,422.61,264.83,414.95z"/>
		<path class="st7" d="M991.39,437.61c-12.22-0.4-24.44-0.79-36.66-1.21c-1.82-0.06-3.63-0.37-5.45-0.37
			c-16.49-0.03-32.99-0.28-49.47,0.06c-16.75,0.34-33.5,1.09-50.22,2c-12.55,0.69-25.06,2.54-37.61,2.72
			c-10.15,0.15-20.08-2.23-28.81-8.07c-15.82-10.58-17.61-30.71-4.71-44.85c13.55-14.87,31.12-21.07,49.94-24.76
			c8.41-1.65,17.05-2.98,25.58-2.95c25.95,0.08,50.19,7.42,72.54,20.27c19.77,11.37,37.27,25.92,53.38,42.04
			c4.39,4.39,8.22,9.34,12.3,14.04C991.92,436.88,991.65,437.25,991.39,437.61z"/>
		<path class="st13" d="M423.18,605.43c-15.47,15.3-21.84,34.72-22.72,55.61c-1.12,26.88-16.27,42.32-39.04,52.3
			c-22.16,9.71-45.27,12.31-68.86,6.42c-6.13-1.53-11.71-5.21-17.55-7.91c1.37-1.59,2.46-4,4.18-4.61
			c5.14-1.83,10.56-2.84,15.81-4.39c24.24-7.16,43.99-21.97,61.95-38.78c13.01-12.18,24.21-26.38,35.57-40.22
			c7.15-8.71,15.06-15.9,25.72-19.73C419.95,603.51,422.49,601.49,423.18,605.43z"/>
		<path class="st25" d="M423.18,605.43c-0.69-3.94-3.23-1.92-4.93-1.31c-10.66,3.83-18.57,11.03-25.72,19.73
			c-11.36,13.83-22.56,28.03-35.57,40.22c-17.96,16.81-37.71,31.62-61.95,38.78c-5.25,1.55-10.67,2.55-15.81,4.39
			c-1.72,0.61-2.8,3.02-4.18,4.61c-3.58-3.56-7.15-7.12-10.73-10.68c11.8-3.17,23.71-5.99,35.39-9.59
			c15.48-4.77,28.27-14.44,41.1-23.89c18.18-13.4,33.62-29.53,46.84-47.77c8.33-11.49,20.29-17.25,33.05-21.87
			c3.57-1.29,7.21-2.45,10.91-3.27c1.02-0.23,2.36,0.98,3.56,1.52C431.15,599.35,427.17,602.39,423.18,605.43z"/>
		<path class="st14" d="M545.9,786.19c-13.03-9.36-14.59-22.99-12.72-37.14c2.78-21.02,14.51-36.02,33.47-45.4
			c0.71-0.35,1.58-0.4,2.37-0.6c-0.64,1.46-1,3.13-1.97,4.33c-15.44,19.3-22.12,41.51-22.01,65.97
			C545.06,777.64,545.6,781.92,545.9,786.19z"/>
		<path class="st21" d="M545.9,786.19c-0.3-4.28-0.84-8.55-0.86-12.83c-0.11-24.45,6.57-46.67,22.01-65.97
			c0.96-1.2,1.32-2.88,1.97-4.33c3.98-1.38,7.96-2.76,11.94-4.15c-2.11,4.24-3.5,9.08-6.45,12.63
			c-11.54,13.86-17.37,30.13-20.11,47.47c-1.2,7.58,0.06,15.56,0.25,23.35c0.07,3.15,0.26,6.3,0.39,9.45
			C551.99,789.94,548.94,788.07,545.9,786.19z"/>
	</g>
</g>
</svg>
