<?xml version="1.0" encoding="utf-8"?>
<!-- Generator: Adobe Illustrator 23.0.2, SVG Export Plug-In . SVG Version: 6.00 Build 0)  -->
<svg version="1.1" id="Livello_1" xmlns="http://www.w3.org/2000/svg" xmlns:xlink="http://www.w3.org/1999/xlink" x="0px" y="0px"
	 viewBox="0 0 546.28 669.51" style="enable-background:new 0 0 546.28 669.51;" xml:space="preserve">
<style type="text/css">
	.st0{fill:#080705;}
	.st1{fill:#FDFDFD;}
	.st2{fill:#FCFCFC;}
	.st3{fill:#D7D7D7;}
	.st4{fill:#684D32;}
	.st5{fill:#A0764C;}
	.st6{fill:#9E754B;}
	.st7{fill:#D39D65;}
	.st8{fill:#D39C65;}
	.st9{fill:#63492F;}
	.st10{fill:#D3B73C;}
	.st11{fill:#D2B63C;}
	.st12{fill:#956F47;}
	.st13{fill:#AC7F51;}
	.st14{fill:#BB8A59;}
	.st15{fill:#AB7E51;}
	.st16{fill:#896541;}
	.st17{fill:#715435;}
	.st18{fill:#7D5C3B;}
	.st19{fill:#CA9660;}
	.st20{fill:#B98958;}
	.st21{fill:#C99560;}
	.st22{fill:#867426;}
	.st23{fill:#644B30;}
	.st24{fill:#775838;}
	.st25{fill:#84623E;}
	.st26{fill:#946E46;}
	.st27{fill:#8B6742;}
</style>
<g>
	<g>
		<path class="st0" d="M346.39,1.24c3.65,0,7.3,0,10.95,0c1.83,0.85,3.57,2.05,5.49,2.49c10.43,2.38,21.11,3.86,31.32,6.94
			c47.92,14.42,78.36,44.65,88.13,95.18c11.24,58.12,18.16,116.63,20.9,175.71c0.22,4.84,1.6,9.92,3.62,14.35
			c17.22,37.74,29.73,76.9,36.09,117.94c1.38,8.92,2.25,17.93,3.35,26.89c0,11.86,0.01,23.73,0.01,35.59
			c-0.29,1.8-0.71,3.59-0.85,5.4c-3.73,49.18-26.18,88.95-61.44,122.28c-40.66,38.44-87.98,62.47-144.62,64.83
			c-76.05,3.17-151.5-47.25-180.57-120.01c-3.35-8.39-9.28-12.57-17.84-13.7c-21.68-2.87-43.36-5.71-65.05-8.5
			c-1.45-0.19-3.6-0.38-4.36,0.43c-3.88,4.13-8.22,3.22-12.65,1.67c-7.95-2.78-15.83-5.75-23.77-8.53
			c-17.6-6.17-27.61-18.55-30.41-36.89c-0.28-1.87-0.56-3.74-0.84-5.61c-0.3-2.24-0.6-4.48-0.89-6.72
			c0.04-11.48,0.08-22.96,0.13-34.44c0.26-2.18,0.51-4.36,0.77-6.54c-0.84-0.07-1.68-0.14-2.52-0.21c0-0.91,0-1.83,0-2.74
			c0.93-0.27,2.62-0.43,2.67-0.82c0.65-4.74,1.16-9.51,1.52-14.28c1.19-15.66,3.94-30.69,14.45-43.34
			c9.72-11.7,20.72-21.81,33.96-29.34c2.36-1.34,4.9-2.52,7.51-3.2c5.9-1.53,10.44,2.88,9.29,8.89c-0.33,1.71-1.11,3.34-1.8,5.35
			c1.27,0,2.17,0.12,3.03-0.02c19.37-2.98,38.7-6.23,58.11-8.88c7.55-1.03,12.82-4.77,14.33-11.69c2.37-10.83,4.24-21.91,4.75-32.96
			c0.41-8.84-7.55-18.19-15.46-19.65c-10.93-2.02-22-3.24-33.44-4.87c-1.34,7.58-6.73,8.71-12.41,6.7
			c-12.18-4.31-24.47-8.6-36-14.34c-18.27-9.1-28.08-24.82-30.82-44.89c-0.95-6.99-2.21-14.16-1.61-21.09
			c2.18-24.94,4.48-49.91,7.9-74.7c3.18-23.05,16.4-39.55,38.05-47.97c14.37-5.59,29.42-9.57,44.36-13.54
			c8.82-2.34,12.54,0.93,13.46,8.67c18.83,0,37.54,0.8,56.14-0.28c12.17-0.71,24.27-5.52,32.17-14.89
			c24.01-28.48,54.06-45.58,90.5-52.05c1.65-0.29,3.1-1.71,4.64-2.61c3.65,0,7.3,0,10.95,0c3.17,0.37,6.34,0.74,9.51,1.11
			c4.16,0,8.33-0.01,12.49-0.01C341.89,1.98,344.14,1.61,346.39,1.24z M112.33,260.91c6.39,0.91,12.78,1.82,19.16,2.74
			c7.69,3.24,15.38,6.49,23.36,9.85c0.23-1.4,0.67-4.03,1.1-6.67c0.48-2.73,0.96-5.47,1.44-8.2c0.47-1.76,1.04-3.49,1.41-5.27
			c11.94-57.42,23.86-114.85,35.66-171.65c-9.89,0.94-20.63,2.34-31.41,2.9c-15.93,0.83-31.9,0.9-47.83,1.64
			c-5.2,0.24-10.91,0.26-14.35,5.92c5.45,4.33,11.03,8.01,15.55,12.72c1.86,1.93,2.78,6.78,1.62,8.97
			c-1.01,1.91-5.53,2.49-8.55,2.62c-2.34,0.1-4.71-1.59-7.14-2.15c-6.85-1.6-13.58-1.71-20.54,1.96
			c8.57,5.54,16.52,10.4,24.15,15.73c4.5,3.14,9.34,7.05,7.18,13.41c-2.18,6.42-8.28,6.18-13.86,6.1
			c-3.42-0.05-6.86-0.32-10.25-0.07c-5.07,0.37-10.12,1.12-16.41,1.85c7.38,15.29,14.88,28.3,28.42,36.81
			c3.41,2.14,6.52,4.91,4.33,9.48c-2.22,4.64-6.24,4.71-10.54,3.13c-4.16-1.53-8.3-3.08-12.46-4.62c-0.56,0.58-1.12,1.16-1.68,1.74
			c7.73,11.87,15.47,23.74,23.2,35.61c0,1.78,0,3.56,0,5.35c-0.38,0.52-0.77,1.03-1.15,1.55c-2.3,0.87-4.6,1.75-6.9,2.62
			c-5.6-2.88-11.2-5.77-16.8-8.65c-0.35,0.54-0.7,1.09-1.05,1.63c5.83,8.92,8.49,21,23.04,21.07
			C104.81,259.04,108.57,260.25,112.33,260.91z M145.91,507.71c-0.15-0.85-0.29-1.69-0.44-2.54c-5.57-33.37-7.07-67-5.73-100.75
			c0.69-17.44,2.15-34.86,3.3-52.85c-27.81,4.56-55.36,9.07-82.92,13.58c-0.12,1.03-0.24,2.05-0.36,3.08
			c3.39,1.97,6.56,4.81,10.22,5.71c4.99,1.24,10.48,0.43,15.5,1.61c3.12,0.73,7.32,3,8.16,5.54c0.88,2.63-0.88,7.15-2.98,9.51
			c-2.94,3.3-7.15,5.57-11.02,7.93c-6.35,3.88-12.87,7.48-19.32,11.19c6.47,2.7,13.01,3.35,19.14,5.3c3,0.95,7.13,4.17,7.34,6.64
			c0.25,3.02-2.44,7.09-5.04,9.33c-2.98,2.58-7.18,3.85-10.99,5.34c-4.99,1.95-10.12,3.56-15.94,5.58
			c3.88,5.87,7.59,10.75,10.51,16.08c5.26,9.57,13.72,18.1,10.94,30.58c-1.44,1.36-2.89,2.71-4.33,4.07
			c-2.05-0.13-4.09-0.25-6.14-0.38c-3.86-2.05-7.72-4.09-11.59-6.14c-0.47,0.39-0.94,0.77-1.4,1.16c2.71,5.59,5.45,11.16,8.14,16.76
			c2.29,4.78,5.63,7.8,11.23,8.63c15.44,2.29,30.78,5.23,46.24,7.4c9.98,1.4,20.09,1.91,31.48,2.93c-1.28-4.9-2.28-8.7-3.27-12.49
			C146.4,509.59,146.15,508.65,145.91,507.71z M391.64,24.28c-1.85-0.84-3.7-1.68-5.55-2.52c-2.29-0.55-4.58-1.1-6.87-1.65
			c-23.21-6.4-46.82-6.66-70.51-4.1c-57.52,6.22-106.61,53.73-110.53,106.92c-2.28,30.87-12.48,61.1-18.28,91.78
			c-7.07,37.38-13.27,74.93-19.84,112.4c-0.59,4.08-1.18,8.16-1.77,12.24c-0.45,4.11-0.9,8.22-1.35,12.33
			c-0.72,7.78-1.44,15.56-2.16,23.34c-0.49,7.76-0.99,15.52-1.48,23.28c-0.35,13.23-0.69,26.47-1.04,39.7
			c1.67,18.77,2.66,37.63,5.14,56.28c6.71,50.31,29.46,91.83,69.51,123.54c32.22,25.51,68.4,39.37,109.9,37.85
			c5.01-0.37,10.03-0.75,15.04-1.12c2.8-0.32,5.6-0.64,8.4-0.96c2.25-0.41,4.5-0.82,6.75-1.23c2.74-0.55,5.48-1.1,8.22-1.64
			c3.62-0.99,7.24-1.99,10.87-2.98c1.76-0.43,3.56-0.72,5.26-1.3c31.09-10.5,58.33-27.4,82.01-49.98
			c6.65-6.34,12.32-13.71,18.43-20.61c3.17-4.14,6.33-8.28,9.5-12.41c3.23-4.36,6.45-8.71,9.68-13.07
			c2.77-5.49,5.54-10.98,8.31-16.47c10.78-22.24,14.27-46.13,14.53-70.4c0.61-56.53-14.64-109.53-38.52-160.14
			c-3.95-8.37-11.72-15.9-19.47-21.33c-25.94-18.17-56.16-23.59-86.99-26.32c-1.31-0.22-2.61-0.44-3.92-0.66
			c-1.88-0.1-3.75-0.21-5.63-0.31c-2.2-0.79-4.4-1.59-6.59-2.38c-2.39-7.91,0.28-11.66,8.32-10.43c20.44,3.11,40.81,6.67,61.2,10.05
			c2.3,0.79,4.59,1.57,6.89,2.36c1.26,0.39,2.53,0.78,3.79,1.17c1.89,0.76,3.79,1.52,5.68,2.27c10.29,5.62,20.58,11.23,31.44,17.16
			c0-1.67,0.08-3.17-0.01-4.65c-3.31-57.13-9.65-113.88-21.95-169.85c-8.26-37.59-32.2-60.8-67.36-73.8
			C397.67,25.85,394.66,25.07,391.64,24.28z M16.84,444.23c-0.51,1.89-1.54,3.82-1.43,5.67c0.64,11.07,0.85,22.24,2.53,33.17
			c2.49,16.16,14.23,26.2,33.08,28.25c-3.71-5.45-6.71-9.87-9.72-14.28c-1.63-7.49-3.65-14.93-4.69-22.5
			c-0.4-2.89,0.56-7.71,2.47-8.74c2.49-1.34,6.74-0.38,9.85,0.71c2.88,1,5.24,3.47,7.83,5.29c0.55,0.13,1.09,0.27,1.64,0.4
			c-0.21-0.54-0.41-1.08-0.62-1.62c-5.32-8.19-10.51-16.47-15.99-24.56c-5.56-8.22-4.13-12.51,5.53-15.48
			c4.93-1.52,9.87-3,16.24-4.93c-4.23-1.59-6.93-2.49-9.54-3.6c-5.49-2.33-10.17-5.65-10.66-12.16c-0.5-6.69,5.22-8.41,9.72-10.91
			c6.14-3.42,12.34-6.75,19.41-10.61c-14.88-4.7-26.85-10.12-26.43-28.33C33.98,370.69,22.93,380.8,20.66,396
			C18.28,411.91,18.03,428.14,16.84,444.23z M62.64,234.74c-0.48-1.52-1.05-3.02-1.44-4.57c-2.15-8.66,2.76-13.82,11.54-12.2
			c1.22,0.22,2.44,0.41,4.09,0.68c-4.81-9.21-9.55-17.77-13.74-26.59c-1.47-3.09-3.02-7.44-1.9-10.09c1.12-2.64,5.56-3.86,8.86-5.91
			c-2.88-5.57-6.35-11.7-9.27-18.08c-3.88-8.45-2.11-12.89,6.84-15.62c7.43-2.27,15.21-3.38,24-5.26
			c-8.47-4.75-16.16-9.07-23.85-13.39c-8.22-4.62-8.48-10.58-0.14-15.14c6.11-3.34,12.79-5.62,19.18-8.35
			c-1.4-2.36-4.07-4.97-4.32-7.79c-0.25-2.82,1.91-5.86,3.02-8.82c-20.51,1.46-40.39,16.56-44.18,35.83
			c-3.07,15.6-4.51,31.52-6.67,47.29c-0.47,1.02-1.33,2.04-1.34,3.06c-0.12,15.43-1.55,31.02,0.17,46.26
			c2.72,24.12,20.43,41.72,43.54,46.16C72.22,253.03,67.43,243.89,62.64,234.74z"/>
		<path class="st1" d="M4.72,483.3c2.8,18.35,12.81,30.72,30.41,36.89c7.94,2.79,15.83,5.75,23.77,8.53
			c4.44,1.55,8.78,2.46,12.65-1.67c0.76-0.81,2.91-0.62,4.36-0.43c21.69,2.78,43.37,5.63,65.05,8.5c8.56,1.13,14.49,5.32,17.84,13.7
			c29.07,72.76,104.52,123.18,180.57,120.01c56.64-2.36,103.96-26.39,144.62-64.83c35.26-33.33,57.71-73.1,61.44-122.28
			c0.14-1.81,0.56-3.6,0.85-5.4c0.46,0,0.92,0,1.38,0c0,65.26,0,130.52,0,195.79c-182.09,0-364.19,0-546.28,0
			c0-62.98,0-125.96,0-188.94C2.49,483.22,3.6,483.26,4.72,483.3z"/>
		<path class="st2" d="M306.69,1.24c-1.54,0.89-2.99,2.31-4.64,2.61c-36.45,6.47-66.5,23.58-90.5,52.05
			c-7.91,9.38-20,14.19-32.17,14.89c-18.6,1.08-37.31,0.28-56.14,0.28c-0.92-7.75-4.64-11.01-13.46-8.67
			c-14.94,3.96-29.99,7.95-44.36,13.54c-21.65,8.42-34.86,24.92-38.05,47.97c-3.42,24.79-5.72,49.76-7.9,74.7
			c-0.61,6.94,0.65,14.11,1.61,21.09c2.73,20.07,12.54,35.79,30.82,44.89c11.53,5.74,23.83,10.03,36,14.34
			c5.69,2.01,11.08,0.88,12.41-6.7c11.44,1.62,22.51,2.85,33.44,4.87c7.91,1.46,15.87,10.81,15.46,19.65
			c-0.51,11.05-2.38,22.13-4.75,32.96c-1.52,6.92-6.78,10.66-14.33,11.69c-19.41,2.65-38.74,5.9-58.11,8.88
			c-0.86,0.13-1.76,0.02-3.03,0.02c0.69-2.01,1.48-3.64,1.8-5.35c1.15-6.01-3.39-10.43-9.29-8.89c-2.61,0.68-5.16,1.86-7.51,3.2
			c-13.25,7.53-24.24,17.64-33.96,29.34C9.5,381.26,6.76,396.28,5.56,411.94c-0.36,4.77-0.87,9.54-1.52,14.28
			c-0.05,0.39-1.74,0.55-2.67,0.82c0-141.93,0-283.87,0-425.8C103.14,1.24,204.91,1.24,306.69,1.24z"/>
		<path class="st2" d="M546.26,440.74c-1.1-8.97-1.97-17.97-3.35-26.89c-6.36-41.04-18.87-80.2-36.09-117.94
			c-2.02-4.43-3.4-9.51-3.62-14.35c-2.74-59.08-9.66-117.59-20.9-175.71c-9.77-50.54-40.21-80.77-88.13-95.18
			c-10.21-3.07-20.89-4.56-31.32-6.94c-1.92-0.44-3.67-1.64-5.49-2.49c63.44,0,126.87,0,190.31,0c0,146.5,0,292.99,0,439.49
			C547.19,440.74,546.72,440.74,546.26,440.74z"/>
		<path class="st3" d="M3.11,436.53c-0.04,11.48-0.08,22.96-0.13,34.44c-0.54-0.04-1.08-0.08-1.62-0.11c0-11.41,0-22.82,0-34.23
			C1.95,436.59,2.53,436.56,3.11,436.53z"/>
		<path class="st3" d="M546.26,440.74c0.46,0,0.93,0,1.39-0.01c0,11.87,0,23.73,0,35.6c-0.46,0-0.92,0-1.38,0
			C546.27,464.47,546.26,452.6,546.26,440.74z"/>
		<path class="st1" d="M1.37,470.85c0.54,0.04,1.08,0.08,1.62,0.11c0.3,2.24,0.6,4.48,0.89,6.72c-0.84,0.92-1.67,1.83-2.51,2.75
			C1.37,477.24,1.37,474.05,1.37,470.85z"/>
		<path class="st2" d="M3.11,436.53c-0.58,0.03-1.16,0.06-1.74,0.1c0-2.28,0-4.56,0-6.85c0.84,0.07,1.68,0.14,2.52,0.21
			C3.63,432.17,3.37,434.35,3.11,436.53z"/>
		<path class="st4" d="M339.63,2.34c-4.16,0-8.33,0.01-12.49,0.01c0.04-0.37,0.07-0.74,0.08-1.11c4.11,0,8.21,0,12.32,0
			C339.57,1.61,339.6,1.98,339.63,2.34z"/>
		<path class="st3" d="M1.37,480.44c0.84-0.92,1.67-1.83,2.51-2.75c0.28,1.87,0.56,3.74,0.84,5.61c-1.12-0.04-2.23-0.08-3.35-0.13
			C1.37,482.26,1.37,481.35,1.37,480.44z"/>
		<path class="st5" d="M327.22,1.24c-0.01,0.37-0.04,0.74-0.08,1.11c-3.17-0.37-6.34-0.74-9.5-1.11
			C320.83,1.24,324.03,1.24,327.22,1.24z"/>
		<path class="st6" d="M339.63,2.34c-0.04-0.37-0.07-0.73-0.09-1.1c2.28,0,4.56,0,6.85,0C344.14,1.61,341.89,1.98,339.63,2.34z"/>
		<path class="st5" d="M442.21,251.98c-20.4-3.38-40.76-6.94-61.2-10.05c-8.04-1.22-10.72,2.53-8.33,10.44
			c-0.94,2.48-3.25,5.44-2.57,7.33c2.25,6.26,4.37,13.27,8.73,17.94c12.43,13.31,28.18,22.33,45.04,28.78
			c19.46,7.45,36.97,17.44,46.46,36.54c8.33,16.77,15.62,34.25,21.4,52.05c9.86,30.39,10.92,62.32,13.4,93.9
			c1.31,16.69-1.52,32.93-5.91,49.1c-3.36,12.38-5.02,25.21-7.44,37.84c-6.12,6.9-11.79,14.27-18.43,20.61
			c-23.67,22.58-50.92,39.48-82.01,49.98c-1.71,0.58-3.51,0.87-5.26,1.3c-1.74-1.5-3.25-3.65-5.26-4.39
			c-21.71-7.94-42.94-17.34-66.4-19.64c-21.37-2.09-34.01-17.68-47.35-32.06c-6.64-7.16-13.8-13.84-20.6-20.85
			c-9.13-9.4-20.29-17.63-26.82-28.61c-21.42-36.01-32.66-75.88-38.77-117.11c-3.88-26.19-6.19-52.62-10.03-78.82
			c-1.05-7.19-2.66-15.35-10.79-19.15c6.58-37.47,12.77-75.02,19.84-112.4c5.8-30.68,16.01-60.91,18.28-91.78
			C202.1,69.73,251.19,22.22,308.71,16c23.7-2.56,47.3-2.3,70.51,4.1c0.42,4.12-0.52,9.18,1.54,12.18
			c5.46,7.96,11.69,15.56,18.56,22.34c11.94,11.79,20.85,25.4,25.2,41.43c4.79,17.64,8.82,35.55,12.03,53.55
			c2.74,15.31,4.7,30.87,5.46,46.4C442.93,214.62,442.21,233.32,442.21,251.98z"/>
		<path class="st6" d="M103.89,235.45c-7.73-11.87-15.47-23.74-23.2-35.61c0.56-0.58,1.12-1.16,1.68-1.74
			c4.15,1.54,8.3,3.09,12.46,4.62c4.29,1.58,8.32,1.51,10.54-3.13c2.19-4.57-0.92-7.34-4.33-9.48
			c-13.54-8.51-21.04-21.52-28.42-36.81c6.3-0.73,11.34-1.47,16.41-1.85c3.4-0.25,6.83,0.02,10.25,0.07
			c5.58,0.08,11.68,0.32,13.86-6.1c2.16-6.36-2.68-10.27-7.18-13.41c-7.63-5.33-15.59-10.19-24.15-15.73
			c6.96-3.67,13.69-3.56,20.54-1.96c2.43,0.57,4.8,2.25,7.14,2.15c3.01-0.13,7.53-0.72,8.55-2.62c1.16-2.19,0.23-7.04-1.62-8.97
			c-4.52-4.7-10.1-8.39-15.55-12.72c3.44-5.65,9.15-5.67,14.35-5.92c15.94-0.74,31.9-0.82,47.83-1.64
			c10.78-0.56,21.52-1.96,31.41-2.9c-11.8,56.8-23.72,114.23-35.66,171.65c-0.37,1.78-0.94,3.51-1.41,5.27
			c-2.39-0.52-5.02-0.58-7.13-1.65c-13.87-7.08-27.6-14.44-41.48-21.53C107.5,234.79,105.54,235.42,103.89,235.45z"/>
		<path class="st6" d="M76.29,488.58c2.78-12.48-5.68-21.01-10.94-30.58c-2.92-5.32-6.64-10.21-10.51-16.08
			c5.82-2.02,10.95-3.63,15.94-5.58c3.81-1.49,8.01-2.76,10.99-5.34c2.6-2.25,5.29-6.31,5.04-9.33c-0.21-2.48-4.34-5.69-7.34-6.64
			c-6.13-1.95-12.67-2.59-19.14-5.3c6.45-3.72,12.97-7.32,19.32-11.19c3.88-2.37,8.08-4.63,11.02-7.93c2.1-2.36,3.86-6.88,2.98-9.51
			c-0.85-2.54-5.05-4.8-8.16-5.54c-5.01-1.18-10.5-0.37-15.5-1.61c-3.65-0.9-6.83-3.74-10.22-5.71c0.12-1.03,0.24-2.05,0.36-3.08
			c27.56-4.51,55.11-9.03,82.92-13.58c-1.15,17.99-2.61,35.4-3.3,52.85c-1.34,33.75,0.16,67.37,5.73,100.75
			c-14.1-1.83-28.39-2.77-42.22-5.81C93.93,497.31,85.26,492.28,76.29,488.58z"/>
		<path class="st7" d="M388.82,255.71c30.84,2.73,61.05,8.15,86.99,26.32c7.75,5.43,15.52,12.96,19.47,21.33
			c23.88,50.61,39.13,103.61,38.52,160.14c-0.26,24.27-3.75,48.16-14.53,70.4c-0.72-1.65-2.15-3.33-2.05-4.93
			c0.86-14.48,3.38-29.02,2.71-43.41c-1-21.45-4.14-42.8-6.47-64.19c-3.09-28.32-10.68-55.06-25.46-79.83
			c-12.18-20.42-27.47-36.81-50.03-45.19c-16.51-6.14-30.44-16.22-43.4-27.64C391.34,265.87,390.67,260.12,388.82,255.71z"/>
		<path class="st8" d="M400.69,26.63c35.15,13.01,59.09,36.22,67.36,73.81c12.3,55.98,18.64,112.72,21.95,169.85
			c0.09,1.49,0.01,2.98,0.01,4.65c-10.86-5.93-21.15-11.54-31.44-17.16c-0.13-1.81-0.31-3.61-0.37-5.42
			c-0.35-10.1-0.98-20.2-0.89-30.3c0.08-8.31,2.25-16.74,1.39-24.89c-2.67-25.4-5.48-50.85-9.89-75.98
			c-3.85-21.89-9.01-43.87-22.99-62.05c-7.17-9.32-15.87-17.47-23.73-26.27C400.62,31.24,396.44,29.72,400.69,26.63z"/>
		<path class="st9" d="M336.81,655.67c-41.5,1.51-77.68-12.35-109.9-37.85c-40.05-31.71-62.8-73.23-69.51-123.54
			c-2.49-18.66-3.47-37.52-5.15-56.28c1.27,1.93,3.19,3.7,3.69,5.81c1.41,5.93,1.4,12.3,3.43,17.97
			c7.03,19.63,14.41,39.14,22.23,58.47c3.65,9.03,8.07,17.85,13.1,26.19c6.43,10.65,12.65,21.81,21.06,30.79
			c14.11,15.07,29.69,28.8,45,42.71c13.78,12.53,29.06,22.42,48.06,25.37c7.36,1.14,14.66,2.94,21.79,5.1
			C332.99,651.11,334.76,653.85,336.81,655.67z"/>
		<path class="st10" d="M34.66,166.74c2.16-15.78,3.6-31.7,6.67-47.29c3.79-19.27,23.67-34.37,44.18-35.83
			c-1.11,2.96-3.27,6-3.02,8.82c0.25,2.82,2.91,5.43,4.32,7.79c-6.39,2.73-13.07,5.01-19.18,8.35c-8.34,4.56-8.08,10.52,0.14,15.14
			c7.69,4.32,15.38,8.64,23.85,13.39c-8.79,1.87-16.57,2.99-24,5.26c-8.96,2.73-10.72,7.17-6.84,15.62
			c2.93,6.38,6.4,12.51,9.27,18.08c-3.31,2.05-7.74,3.27-8.86,5.91c-1.12,2.65,0.43,7,1.9,10.09c4.19,8.82,8.93,17.38,13.74,26.59
			c-1.65-0.27-2.87-0.45-4.09-0.68c-8.78-1.62-13.68,3.55-11.54,12.2c0.38,1.55,0.95,3.04,1.43,4.56
			c-12.1-4.46-16.58-15.1-19.86-25.99c-2.47-8.2-2.99-16.98-4.55-25.47C37.2,177.74,35.86,172.25,34.66,166.74z"/>
		<path class="st11" d="M56.77,471.81c-2.59-1.82-4.96-4.29-7.83-5.3c-3.11-1.08-7.36-2.05-9.85-0.71
			c-1.91,1.03-2.87,5.85-2.47,8.74c1.04,7.57,3.06,15.01,4.69,22.5c-4.73-6.87-10.59-13.25-13.91-20.74
			c-4.53-10.24-7.13-21.34-10.55-32.07c1.18-16.09,1.44-32.32,3.81-48.23c2.27-15.2,13.32-25.31,25.41-36.01
			c-0.42,18.21,11.55,23.63,26.43,28.33c-7.07,3.86-13.27,7.18-19.41,10.61c-4.49,2.5-10.21,4.22-9.72,10.91
			c0.48,6.51,5.17,9.83,10.66,12.16c2.61,1.11,5.31,2.02,9.54,3.6c-6.37,1.93-11.31,3.42-16.24,4.93
			c-9.66,2.97-11.09,7.26-5.53,15.48c5.47,8.09,10.67,16.36,15.99,24.56C57.45,470.99,57.11,471.4,56.77,471.81z"/>
		<path class="st12" d="M160.06,327.11c8.13,3.8,9.74,11.95,10.79,19.15c3.84,26.2,6.14,52.62,10.03,78.82
			c6.12,41.23,17.35,81.1,38.77,117.11c6.53,10.97,17.69,19.21,26.82,28.61c6.81,7.01,13.96,13.69,20.6,20.85
			c13.33,14.38,25.98,29.97,47.35,32.06c23.46,2.3,44.69,11.7,66.4,19.64c2.02,0.74,3.52,2.89,5.26,4.39
			c-3.62,0.99-7.24,1.99-10.87,2.98c-0.84-1.24-1.44-3.25-2.55-3.6c-18.79-5.93-37.35-13.24-56.58-16.99
			c-18.94-3.69-33.51-12.72-46.31-26.24c-8.12-8.58-16.79-16.63-25.05-25.09c-9.48-9.72-20.63-18.45-27.71-29.71
			c-9.97-15.84-18.68-33-24.63-50.71c-7.84-23.33-13.11-47.6-18.25-71.73c-3.48-16.34-4.85-33.13-7.12-49.72
			c-1.44-10.54-2.62-21.12-4.39-31.6c-0.37-2.17-2.83-3.99-4.33-5.98C158.88,335.26,159.47,331.19,160.06,327.11z"/>
		<path class="st13" d="M491.79,575.85c2.42-12.63,4.08-25.46,7.44-37.84c4.39-16.17,7.21-32.41,5.91-49.1
			c-2.48-31.58-3.54-63.51-13.4-93.9c-5.77-17.81-13.07-35.28-21.4-52.05c-9.49-19.1-27-29.1-46.46-36.54
			c-16.86-6.45-32.61-15.47-45.04-28.78c-4.36-4.67-6.48-11.68-8.73-17.94c-0.68-1.89,1.63-4.86,2.57-7.33
			c2.2,0.79,4.4,1.59,6.6,2.38c-1.16,9.54,2.53,17.52,10.07,22.56c12.98,8.68,26.62,16.4,40.14,24.24
			c9.01,5.22,19.48,8.61,27.14,15.28c8.69,7.57,15.9,17.32,22.11,27.16c13.25,20.98,21.3,44.26,24.89,68.72
			c3.22,21.94,4.45,44.15,7.22,66.17c2.63,20.87,0.16,41.1-5.15,61.25c-2.01,7.63-2.97,15.53-4.41,23.31
			C498.12,567.57,494.96,571.71,491.79,575.85z"/>
		<path class="st4" d="M336.81,655.67c-2.05-1.82-3.82-4.57-6.2-5.29c-7.13-2.15-14.43-3.96-21.79-5.1
			c-19-2.95-34.28-12.84-48.06-25.37c-15.3-13.92-30.89-27.64-45-42.71c-8.41-8.98-14.63-20.14-21.06-30.79
			c-5.03-8.34-9.45-17.16-13.1-26.19c-7.82-19.33-15.2-38.84-22.23-58.47c-2.03-5.67-2.02-12.03-3.43-17.97
			c-0.5-2.11-2.42-3.88-3.69-5.81c0.35-13.23,0.69-26.47,1.04-39.7c1.37,1.83,3.55,3.49,3.96,5.51c0.97,4.85,0.71,9.95,1.65,14.81
			c3.28,17.1,6.25,34.29,10.47,51.16c6.32,25.26,17.94,48.47,29.46,71.69c6.54,13.18,14.57,25.11,25.36,35.17
			c15.62,14.56,30.86,29.54,46.76,43.79c11.11,9.95,24.01,16.39,39.11,19.25c13.01,2.46,25.55,7.46,38.23,11.53
			c1.4,0.45,2.38,2.2,3.56,3.34C346.83,654.92,341.82,655.3,336.81,655.67z"/>
		<path class="st14" d="M501.29,563.44c1.44-7.78,2.4-15.68,4.41-23.31c5.31-20.15,7.78-40.38,5.15-61.25
			c-2.77-22.01-4-44.23-7.22-66.17c-3.59-24.46-11.64-47.74-24.89-68.72c-6.21-9.84-13.42-19.59-22.11-27.16
			c-7.66-6.68-18.14-10.06-27.14-15.28c-13.52-7.84-27.16-15.57-40.14-24.24c-7.54-5.04-11.23-13.02-10.07-22.56
			c1.88,0.1,3.75,0.21,5.63,0.31c-1.34,6.96,1.05,13.13,6.21,17.16c13.93,10.89,28.44,20.78,44.97,27.84
			c10.47,4.47,21.19,10.44,29.1,18.41c20.1,20.27,33.15,45.29,38.43,73.27c5.41,28.65,9.35,57.66,12.22,86.69
			c2.13,21.5,0.29,43.14-5.84,64.19c-0.62,2.12-4.53,5.91,0.97,7.75C507.74,554.73,504.51,559.08,501.29,563.44z"/>
		<path class="st15" d="M442.21,251.98c0.01-18.66,0.72-37.36-0.19-55.98c-0.76-15.53-2.72-31.08-5.46-46.4
			c-3.22-18-7.24-35.9-12.03-53.55c-4.35-16.03-13.26-29.64-25.2-41.43c-6.87-6.78-13.1-14.38-18.56-22.34
			c-2.06-3-1.11-8.06-1.54-12.18c2.29,0.55,4.58,1.1,6.87,1.65c1.3,4.25,1.57,9.28,4.1,12.59c5.5,7.18,11.96,13.66,18.37,20.09
			c9.67,9.69,17.21,20.89,20.8,33.95c5.02,18.29,9.35,36.82,12.73,55.48c3.17,17.52,5.31,35.29,6.75,53.04
			c0.82,10.09-1.02,20.37-1.04,30.56c-0.02,8.96,0.82,17.92,1.29,26.89C446.8,253.56,444.5,252.77,442.21,251.98z"/>
		<path class="st16" d="M158.29,339.34c1.5,1.98,3.97,3.8,4.33,5.98c1.77,10.48,2.94,21.06,4.39,31.6
			c2.27,16.59,3.64,33.38,7.12,49.72c5.14,24.13,10.42,48.4,18.25,71.73c5.95,17.71,14.66,34.87,24.63,50.71
			c7.09,11.26,18.23,20,27.71,29.71c8.25,8.46,16.92,16.51,25.05,25.09c12.8,13.52,27.37,22.55,46.31,26.24
			c19.24,3.75,37.79,11.05,56.58,16.99c1.12,0.35,1.71,2.36,2.55,3.6c-2.74,0.55-5.48,1.1-8.22,1.64c-1.17-1.49-2.06-3.86-3.55-4.33
			c-15.77-4.95-31.54-9.95-47.5-14.19c-10.07-2.68-20.7-3.6-29.07-10.64c-7.06-5.95-13.99-12.06-20.8-18.3
			c-6.37-5.84-12.53-11.91-18.74-17.92c-9.14-8.84-19.58-16.72-27.02-26.82c-8.95-12.13-16.51-25.63-22.55-39.46
			c-8.14-18.68-16.62-37.75-20.73-57.53c-7.29-35.18-11.37-71.02-16.96-106.56c-0.28-1.76-2.06-3.29-3.15-4.92
			C157.38,347.56,157.84,343.45,158.29,339.34z"/>
		<path class="st17" d="M351.85,654.55c-1.18-1.14-2.16-2.89-3.56-3.34c-12.68-4.07-25.22-9.07-38.23-11.53
			c-15.1-2.86-28-9.3-39.11-19.25c-15.9-14.24-31.14-29.22-46.76-43.79c-10.8-10.06-18.82-21.99-25.36-35.17
			c-11.52-23.22-23.14-46.43-29.46-71.69c-4.22-16.87-7.19-34.06-10.47-51.16c-0.93-4.86-0.68-9.96-1.65-14.81
			c-0.4-2.02-2.58-3.69-3.96-5.51c0.49-7.76,0.99-15.52,1.48-23.28c1.35,2.83,3.44,5.54,3.91,8.51c2.28,14.29,3.36,28.81,6.29,42.95
			c4.09,19.7,9.23,39.2,14.33,58.68c6.4,24.46,19.01,46.2,31.06,68.11c3.24,5.89,7.57,11.44,12.38,16.15
			c16.41,16.07,32.97,32,50.07,47.32c6.46,5.79,13.94,11.44,21.97,14.25c17.24,6.04,35.22,9.94,52.73,15.28
			c4.56,1.39,8.5,4.84,12.72,7.34C357.44,653.91,354.65,654.23,351.85,654.55z"/>
		<path class="st18" d="M360.24,653.59c-4.22-2.5-8.16-5.95-12.72-7.34c-17.51-5.34-35.49-9.24-52.73-15.28
			c-8.03-2.81-15.52-8.46-21.97-14.25c-17.1-15.32-33.66-31.26-50.07-47.32c-4.81-4.71-9.14-10.26-12.38-16.15
			c-12.06-21.9-24.66-43.65-31.06-68.11c-5.1-19.48-10.24-38.97-14.33-58.68c-2.94-14.14-4.02-28.66-6.29-42.95
			c-0.47-2.97-2.57-5.68-3.91-8.51c0.72-7.78,1.44-15.56,2.16-23.34c1.08,1.64,2.87,3.16,3.15,4.92
			c5.58,35.54,9.66,71.38,16.96,106.56c4.1,19.78,12.58,38.85,20.73,57.53c6.03,13.84,13.6,27.34,22.55,39.46
			c7.45,10.09,17.88,17.98,27.02,26.82c6.21,6.01,12.37,12.08,18.74,17.92c6.81,6.24,13.74,12.35,20.8,18.3
			c8.37,7.04,19,7.96,29.07,10.64c15.97,4.25,31.74,9.24,47.5,14.19c1.49,0.47,2.38,2.84,3.55,4.33
			C364.75,652.77,362.49,653.18,360.24,653.59z"/>
		<path class="st19" d="M510.97,550.37c-5.5-1.84-1.59-5.63-0.97-7.75c6.13-21.05,7.97-42.68,5.84-64.19
			c-2.87-29.02-6.81-58.04-12.22-86.69c-5.28-27.98-18.33-53-38.43-73.27c-7.91-7.97-18.63-13.94-29.1-18.41
			c-16.53-7.06-31.04-16.95-44.97-27.84c-5.16-4.03-7.55-10.21-6.21-17.16c1.31,0.22,2.61,0.44,3.92,0.66
			c1.85,4.41,2.52,10.15,5.75,13c12.96,11.41,26.88,21.5,43.4,27.64c22.57,8.39,37.85,24.77,50.03,45.19
			c14.78,24.78,22.37,51.51,25.46,79.83c2.33,21.38,5.47,42.74,6.47,64.19c0.67,14.39-1.85,28.93-2.71,43.41
			c-0.09,1.6,1.33,3.28,2.05,4.93C516.5,539.39,513.74,544.88,510.97,550.37z"/>
		<path class="st20" d="M449.1,254.34c-0.46-8.96-1.31-17.92-1.29-26.89c0.02-10.2,1.86-20.47,1.04-30.56
			c-1.44-17.75-3.58-35.52-6.75-53.04c-3.38-18.65-7.72-37.19-12.73-55.48c-3.58-13.07-11.12-24.26-20.8-33.95
			c-6.41-6.43-12.87-12.91-18.37-20.09c-2.53-3.3-2.81-8.34-4.1-12.59c1.85,0.84,3.7,1.68,5.55,2.52c2.18,3.88,3.77,8.27,6.65,11.53
			c6.46,7.32,14.17,13.6,20.28,21.18c16.05,19.91,21.56,44.2,26.2,68.49c3.22,16.83,4.54,34.02,7.03,50.99
			c1.98,13.46,4.24,26.82,1.45,40.48c-0.99,4.83-1.26,9.88-1.25,14.83c0.02,7.91,0.56,15.82,0.88,23.73
			C451.62,255.12,450.36,254.73,449.1,254.34z"/>
		<path class="st21" d="M452.89,255.51c-0.32-7.91-0.86-15.82-0.88-23.73c-0.02-4.95,0.26-10,1.25-14.83
			c2.79-13.66,0.53-27.02-1.45-40.48c-2.49-16.98-3.81-34.16-7.03-50.99c-4.64-24.29-10.15-48.58-26.2-68.49
			c-6.11-7.58-13.82-13.85-20.28-21.18c-2.88-3.26-4.47-7.65-6.65-11.53c3.02,0.79,6.03,1.58,9.05,2.36
			c-4.25,3.09-0.07,4.6,1.39,6.23c7.87,8.8,16.56,16.95,23.73,26.27c13.99,18.17,19.15,40.16,22.99,62.05
			c4.42,25.14,7.22,50.58,9.89,75.98c0.86,8.15-1.31,16.58-1.39,24.89c-0.1,10.1,0.54,20.2,0.89,30.3c0.06,1.81,0.25,3.61,0.37,5.42
			C456.67,257.02,454.78,256.27,452.89,255.51z"/>
		<path class="st22" d="M34.66,166.74c1.2,5.51,2.55,11,3.57,16.54c1.57,8.49,2.08,17.26,4.55,25.47
			c3.28,10.89,7.76,21.53,19.86,25.99c4.79,9.14,9.58,18.29,14.39,27.47c-23.12-4.44-40.82-22.04-43.54-46.16
			c-1.72-15.23-0.29-30.82-0.17-46.26C33.33,168.78,34.19,167.76,34.66,166.74z"/>
		<path class="st23" d="M146.64,510.53c0.99,3.8,1.99,7.59,3.27,12.49c-11.39-1.03-21.5-1.53-31.48-2.93
			c-15.45-2.17-30.8-5.11-46.24-7.4c-5.6-0.83-8.93-3.85-11.23-8.63c-2.69-5.6-5.42-11.18-8.14-16.76c0.47-0.39,0.94-0.77,1.4-1.16
			c3.86,2.05,7.72,4.09,11.59,6.14c1.85,6.96,8.6,6.47,13.46,8.52c16.77,7.08,33.26,15.65,52.59,11.21
			C136.66,510.92,141.71,510.99,146.64,510.53z"/>
		<path class="st22" d="M16.84,444.23c3.43,10.73,6.02,21.83,10.55,32.07c3.32,7.5,9.18,13.87,13.91,20.74
			c3,4.41,6.01,8.83,9.72,14.28c-18.85-2.06-30.59-12.1-33.08-28.25c-1.68-10.93-1.89-22.09-2.53-33.17
			C15.31,448.05,16.34,446.12,16.84,444.23z"/>
		<path class="st24" d="M146.64,510.53c-4.93,0.47-9.98,0.39-14.77,1.49c-19.33,4.43-35.82-4.14-52.59-11.21
			c-4.86-2.05-11.61-1.56-13.46-8.52c2.05,0.12,4.09,0.25,6.14,0.37c6.57,2.7,13.03,5.66,19.7,8.04
			c17.54,6.27,35.78,7.64,54.24,7.02C146.15,508.65,146.4,509.59,146.64,510.53z"/>
		<path class="st25" d="M102.74,242.35c0.38-0.52,0.77-1.03,1.15-1.55c0.91,0.08,1.96-0.12,2.7,0.27
			c14.12,7.39,28.2,14.85,42.3,22.28c2.32,1.22,4.71,2.33,7.06,3.48c-0.44,2.63-0.87,5.27-1.1,6.67
			c-7.97-3.36-15.67-6.61-23.36-9.85c-1.49-1.71-2.66-3.99-4.52-5.04c-5.88-3.31-12.2-5.87-17.98-9.34
			C106.45,247.74,104.8,244.7,102.74,242.35z"/>
		<path class="st26" d="M155.96,266.83c-2.36-1.16-4.74-2.26-7.06-3.48c-14.1-7.42-28.18-14.89-42.3-22.28
			c-0.74-0.39-1.79-0.2-2.7-0.27c0-1.78,0-3.56,0-5.35c1.65-0.03,3.6-0.66,4.9,0c13.87,7.08,27.6,14.45,41.48,21.53
			c2.11,1.08,4.74,1.13,7.13,1.65C156.92,261.37,156.44,264.1,155.96,266.83z"/>
		<path class="st27" d="M145.91,507.71c-18.46,0.62-36.7-0.75-54.24-7.02c-6.67-2.39-13.14-5.35-19.7-8.04
			c1.44-1.36,2.88-2.71,4.33-4.07c8.96,3.7,17.64,8.72,26.96,10.78c13.83,3.04,28.12,3.98,42.22,5.81
			C145.62,506.02,145.76,506.86,145.91,507.71z"/>
		<path class="st23" d="M112.33,260.91c-3.76-0.66-7.52-1.87-11.29-1.89c-14.55-0.07-17.21-12.15-23.04-21.07
			c0.35-0.54,0.7-1.09,1.05-1.63c5.6,2.88,11.2,5.77,16.8,8.65c-0.22,6,5.35,6.47,8.65,9.14
			C107.19,256.28,109.73,258.63,112.33,260.91z"/>
		<path class="st24" d="M112.33,260.91c-2.61-2.27-5.14-4.63-7.84-6.8c-3.3-2.66-8.87-3.14-8.65-9.14c2.3-0.87,4.6-1.75,6.9-2.62
			c2.06,2.35,3.7,5.39,6.25,6.92c5.78,3.47,12.1,6.02,17.98,9.34c1.86,1.05,3.03,3.33,4.52,5.04
			C125.11,262.73,118.72,261.82,112.33,260.91z"/>
		<path class="st11" d="M57.79,470.58c0.21,0.54,0.41,1.08,0.62,1.62c-0.55-0.13-1.09-0.27-1.64-0.39
			C57.11,471.4,57.45,470.99,57.79,470.58z"/>
	</g>
</g>
</svg>
