<?xml version="1.0" encoding="utf-8"?>
<!-- Generator: Adobe Illustrator 23.0.2, SVG Export Plug-In . SVG Version: 6.00 Build 0)  -->
<svg version="1.1" id="Livello_1" xmlns="http://www.w3.org/2000/svg" xmlns:xlink="http://www.w3.org/1999/xlink" x="0px" y="0px"
	 viewBox="0 0 273 252.42" style="enable-background:new 0 0 273 252.42;" xml:space="preserve">
<style type="text/css">
	.st0{fill:#FBFBFB;}
	.st1{fill:#0B0A09;}
	.st2{fill:#9F764B;}
	.st3{fill:#D39C65;}
	.st4{fill:#D29C64;}
	.st5{fill:#634A2F;}
	.st6{fill:#8F6A44;}
	.st7{fill:#AA7D50;}
	.st8{fill:#775838;}
	.st9{fill:#694E32;}
	.st10{fill:#BB8A59;}
	.st11{fill:#6A4F32;}
	.st12{fill:#674C31;}
	.st13{fill:#C89460;}
	.st14{fill:#AA7E51;}
	.st15{fill:#B88858;}
	.st16{fill:#AB7E51;}
	.st17{fill:#B38455;}
</style>
<g>
	<g>
		<path class="st0" d="M274.37,102.46c0,50.76,0,101.52,0,152.28c-91,0-182,0-273,0c0-84.6,0-169.2,0-253.79c91,0,182,0,273,0
			c0,32.01,0,64.02,0,96.03c-1.15-3.66-2.32-7.31-3.44-10.97c-9.94-32.3-32.5-53.19-62.63-65.59
			C177.36,7.68,144.45,3.55,111.08,3.59C96.62,3.6,81.78,3.77,69.31,12C37.71,32.87,14.23,60.55,6.39,98.34
			c-7.14,34.38,1.63,64.95,28.11,89.39c1.04,0.96,1.48,2.7,1.93,4.17c7.05,22.97,19.9,33.06,44.27,34.93
			c2.13,0.16,4.83,0.68,6.19,2.08c13.77,14.18,31.09,16.53,49.36,14.42c6.62-0.77,12.23-0.19,18.38,2.43
			c36.25,15.44,75.07-6.6,80.33-45.66c1.27-9.45,1.45-19.17,0.95-28.7c-0.41-7.87-0.44-14.36,9.17-16.22c1.64-0.32,3.12-1.84,4.52-3
			c13.85-11.42,19.91-26.86,22.76-43.99C272.7,106.21,273.69,104.36,274.37,102.46z"/>
		<path class="st1" d="M274.37,102.46c-0.68,1.9-1.67,3.75-2,5.71c-2.85,17.13-8.91,32.58-22.76,43.99c-1.4,1.15-2.88,2.68-4.52,3
			c-9.61,1.86-9.59,8.35-9.17,16.22c0.5,9.53,0.32,19.25-0.95,28.7c-5.26,39.06-44.08,61.1-80.33,45.66
			c-6.15-2.62-11.77-3.19-18.38-2.43c-18.28,2.11-35.59-0.23-49.36-14.42c-1.36-1.4-4.06-1.91-6.19-2.08
			c-24.37-1.87-37.22-11.96-44.27-34.93c-0.45-1.46-0.89-3.2-1.93-4.17C8.02,163.29-0.75,132.71,6.39,98.34
			C14.23,60.55,37.71,32.87,69.31,12c12.47-8.23,27.31-8.4,41.77-8.42c33.37-0.04,66.29,4.09,97.22,16.82
			c30.13,12.4,52.69,33.29,62.63,65.59c1.13,3.66,2.29,7.31,3.44,10.97C274.37,98.8,274.37,100.63,274.37,102.46z M197.21,27.35
			c-1.62-0.44-3.24-0.89-4.86-1.33c-2.85-0.8-5.7-1.6-8.55-2.41c-0.81-0.39-1.59-0.93-2.45-1.15c-27.97-7.05-56.34-10.19-85.13-7.85
			c-10.99,0.89-21.56,3.64-29.67,12.05c-1.69,1.35-3.37,2.7-5.06,4.05c-2.2,1.99-4.39,3.98-6.59,5.97
			C8.11,79.24,2.86,135.26,34.28,172.24c0-4.17,0-7.48,0-10.8c0.4-3.67,0.8-7.35,1.2-11.02c1.51-3.15,3.02-6.29,4.53-9.44
			c2.56,0.98,5.12,1.96,7.68,2.95c-0.82,13.55-2.67,27.15-2.15,40.65c0.49,12.84,9.47,28.23,25.87,30.16
			c1.51,0.6,3.02,1.19,4.96,1.96c0.25-1.7,0.52-2.56,0.46-3.4c-0.06-0.85-0.44-1.68-0.68-2.51c-4.28-14.93-5.2-30.12-2.87-45.42
			c0.37-2.44,2.6-5.3,4.77-6.45c1.07-0.56,3.97,2.36,6.05,3.71c-0.13,11.32-1.34,22.75-0.18,33.93
			c2.36,22.75,19.26,37.86,39.76,37.05c2.12-0.03,4.24-0.07,6.37-0.1c0.79-0.05,1.59-0.1,2.38-0.14c-0.58-0.77-1.16-1.54-1.75-2.3
			c-17.35-17.63-21.29-38.96-16.8-62.39c0.46-2.38,3.34-4.3,5.09-6.43c1.8,1.93,3.61,3.85,5.41,5.78c-0.61,3.56-1.4,7.09-1.79,10.67
			c-2.09,19.36,6.36,43.06,26.96,52.7l0.51,0.18c0,0,0.54-0.05,0.54-0.05c2.37,1.41,4.74,2.82,7.11,4.22
			c1.86,0.77,3.71,1.53,5.57,2.3c13.01,5.18,25.35,3.98,37-3.88c1.32-0.94,2.64-1.88,3.95-2.82c19.85-15.24,28.9-47.29,19.92-70.99
			c-2.85-0.19-5.78-0.39-8.72-0.59c-1.37-0.45-2.75-0.9-4.12-1.35c-1.69-0.41-3.38-0.82-6.63-1.61c1.97,6.71,3.49,11.89,5.01,17.08
			c-0.84,4.15-1.69,8.3-2.53,12.45c-1.81-0.13-3.63-0.27-5.44-0.4c-0.9-1.54-2.28-2.98-2.64-4.64c-2.32-10.86-4.57-21.73-6.54-32.66
			c-2.84-15.78-0.01-30.49,9.88-43.28c1.6-2.07,5.48-2.37,8.3-3.49c0.03,3.04,0.86,6.37-0.09,9.06c-2.1,5.95-5.98,11.36-7.54,17.4
			c-3.21,12.44-2.5,13.06,9.52,18.03c1.37,0.49,2.73,0.98,4.1,1.47c0.81,0.23,1.62,0.45,2.44,0.68c1.48,0.24,2.95,0.47,4.43,0.71
			c8.57,1.79,15.74-1.04,21.89-6.85c16.3-15.41,21.68-41.96,12.74-62.62c-7.82-18.08-21.7-30.85-37.46-41.7
			c-4.82-3.32-10.8-4.93-16.26-7.32C202.08,29.59,199.64,28.47,197.21,27.35z"/>
		<path class="st2" d="M124.39,168.01c-1.8-1.93-3.61-3.85-5.41-5.78c-1.76,2.13-4.64,4.05-5.09,6.43
			c-4.48,23.43-0.54,44.76,16.8,62.39c-0.21,0.82-0.42,1.63-0.63,2.45c-2.12,0.03-4.24,0.07-6.37,0.1
			c-6.01-3.91-12.17-7.62-17.99-11.79c-6.58-4.71-12.12-10.23-12.74-19.12c-0.62-8.78-1.45-17.56-2.52-26.3
			c-0.63-5.16,0.33-11.29-6.33-13.77c-2.07-1.35-4.98-4.27-6.05-3.71c-2.17,1.15-4.4,4.01-4.77,6.45
			c-2.33,15.3-1.41,30.49,2.87,45.42c-0.68-0.06-1.59,0.15-2.01-0.21c-11.24-9.61-22.91-19-22-36.04
			c0.44-8.14,1.22-16.28,1.16-24.42c-0.02-2.17-2.55-4.33-3.93-6.5c-0.56,0.1-1.12,0.21-1.68,0.31c-2.56-0.98-5.12-1.96-7.68-2.95
			c-1.74-1.14-4.79-2.08-4.99-3.45c-0.96-6.43-2.28-13.14-1.38-19.45c2.9-20.25,15.03-36.83,23.05-55.08
			c4.52-10.28,7.89-21.07,11.49-31.73c0.41-1.21-1.05-3.06-1.64-4.61c8.1-8.4,18.68-11.16,29.67-12.05
			c28.8-2.34,57.17,0.79,85.13,7.85c0.86,0.22,1.63,0.76,2.45,1.15c0.88,2.23,1.25,4.91,2.74,6.6c6.3,7.16,12.59,14.39,19.52,20.9
			c11.04,10.37,18.86,22.96,24.29,36.68c4.55,11.5,8.12,24.04-2.05,35.24c-2.74,3.02-5.57,6.04-7.79,9.43
			c-2.91,4.44-5.26,9.24-7.86,13.88c-12.02-4.97-12.72-5.59-9.52-18.03c1.56-6.04,5.44-11.45,7.54-17.4
			c0.95-2.7,0.11-6.02,0.09-9.06c-2.82,1.12-6.7,1.42-8.3,3.49c-9.9,12.79-12.73,27.5-9.88,43.28c1.97,10.93,4.22,21.8,6.54,32.66
			c0.35,1.66,1.73,3.1,2.64,4.64c-1.21,2.4-1.96,5.21-3.71,7.12c-5.09,5.55-10.12,11.33-16.01,15.95
			c-10.13,7.94-20.91,15.06-31.41,22.52l-0.54,0.05c0,0-0.51-0.18-0.51-0.18c-2.34-3.44-4.1-7.54-7.13-10.17
			c-6.44-5.59-9.73-12.48-10.59-20.67c-0.71-6.76-0.47-13.67-1.77-20.29C129.22,175.96,126.35,172.08,124.39,168.01z"/>
		<path class="st3" d="M204.51,30.7c5.45,2.39,11.44,4,16.26,7.32c15.76,10.85,29.64,23.63,37.46,41.7
			c8.94,20.66,3.56,47.22-12.74,62.62c-6.15,5.81-13.32,8.64-21.89,6.85c1.93-4.01,3.59-8.17,5.85-11.98
			c3.34-5.62,7.92-10.63,10.51-16.54c5.51-12.55,3.38-25.44-0.92-37.85c-4.97-14.34-13.06-26.81-23.82-37.67
			C211.05,40.94,208.05,35.55,204.51,30.7z"/>
		<path class="st4" d="M200.29,234.15c-11.64,7.86-23.99,9.06-37,3.88c2.2-2.63,4.1-5.59,6.65-7.82
			c11.07-9.69,22.64-18.83,33.4-28.84c6.48-6.03,11.92-13.35,12.39-22.8c0.31-6.25-0.16-12.55-0.28-18.82
			c2.94,0.2,5.87,0.4,8.72,0.59c8.98,23.7-0.07,55.76-19.92,70.99C202.93,232.28,201.61,233.22,200.29,234.15z"/>
		<path class="st5" d="M34.28,161.44c0,3.31,0,6.62,0,10.8C2.86,135.26,8.11,79.24,54.9,36.68c-1.27,4.77-1.95,9.81-3.93,14.27
			c-6.52,14.72-14.21,28.95-20.17,43.89c-8.21,20.58-6.99,41.73-0.69,62.66C30.6,159.09,32.85,160.14,34.28,161.44z"/>
		<path class="st6" d="M66.55,26.67c0.59,1.55,2.05,3.39,1.64,4.61c-3.6,10.66-6.97,21.45-11.49,31.73
			c-8.02,18.24-20.14,34.83-23.05,55.08c-0.9,6.31,0.42,13.02,1.38,19.45c0.2,1.37,3.25,2.31,4.99,3.45
			c-1.51,3.15-3.02,6.29-4.53,9.44c-1.27-1.08-3.43-2-3.66-3.27c-1.26-6.9-2.87-13.9-2.86-20.86C29,102.19,40,81.6,51.42,61.38
			c5.47-9.68,9.34-19.58,10.07-30.66C63.17,29.37,64.86,28.02,66.55,26.67z"/>
		<path class="st7" d="M212.64,146.35c2.59-4.64,4.94-9.45,7.86-13.88c2.22-3.39,5.05-6.41,7.79-9.43
			c10.17-11.19,6.6-23.73,2.05-35.24c-5.42-13.72-13.24-26.31-24.29-36.68c-6.94-6.51-13.22-13.75-19.52-20.9
			c-1.49-1.69-1.85-4.37-2.74-6.6c2.85,0.8,5.7,1.6,8.55,2.4c0.7,1.81,0.98,4.01,2.19,5.36c6.36,7.11,13.31,13.73,19.4,21.05
			c11.86,14.26,22.01,29.46,23.51,48.81c0.11,1.38,1.7,2.65,2.6,3.97c0,1.36,0,2.72-0.01,4.07c-2.27,5.05-4.53,10.09-6.8,15.14
			c-0.01,0.45-0.02,0.9-0.03,1.34c-7.65,5.73-13.45,12.85-16.47,22.04C215.37,147.33,214.01,146.84,212.64,146.35z"/>
		<path class="st8" d="M61.49,30.72c-0.72,11.09-4.6,20.99-10.07,30.66C40,81.6,29,102.19,28.96,126.3
			c-0.01,6.96,1.59,13.95,2.86,20.86c0.23,1.27,2.39,2.19,3.66,3.27c-0.4,3.67-0.8,7.35-1.2,11.02c-1.43-1.3-3.68-2.36-4.16-3.95
			c-6.31-20.93-7.52-42.08,0.69-62.66c5.96-14.93,13.64-29.17,20.17-43.89c1.98-4.46,2.65-9.5,3.93-14.27
			C57.1,34.7,59.29,32.71,61.49,30.72z"/>
		<path class="st9" d="M84.1,162.62c6.66,2.48,5.7,8.6,6.33,13.77c1.07,8.74,1.9,17.52,2.52,26.3c0.62,8.89,6.16,14.41,12.74,19.12
			c5.83,4.17,11.98,7.88,17.99,11.79c-20.5,0.8-37.4-14.3-39.76-37.05C82.77,185.37,83.97,173.94,84.1,162.62z"/>
		<path class="st10" d="M215.45,159.75c0.12,6.28,0.59,12.57,0.28,18.82c-0.47,9.45-5.91,16.77-12.39,22.8
			c-10.76,10.01-22.33,19.15-33.4,28.84c-2.55,2.23-4.45,5.19-6.65,7.82c-1.86-0.77-3.71-1.53-5.57-2.3
			c1.22-1.81,2.08-4.08,3.72-5.34c9.35-7.19,19.59-13.39,28.14-21.41c6.89-6.46,11.81-15.03,17.6-22.66
			c0.84-4.15,1.69-8.3,2.53-12.45c0.54-5.15,1.08-10.31,1.62-15.46C212.7,158.85,214.07,159.3,215.45,159.75z"/>
		<path class="st11" d="M124.39,168.01c1.96,4.07,4.83,7.95,5.68,12.24c1.3,6.62,1.06,13.53,1.77,20.29
			c0.86,8.2,4.15,15.08,10.59,20.67c3.03,2.63,4.79,6.73,7.13,10.17c-20.6-9.64-29.04-33.34-26.96-52.7
			C122.99,175.1,123.78,171.57,124.39,168.01z"/>
		<path class="st12" d="M47.7,143.93c0.56-0.1,1.12-0.21,1.68-0.31c0.2,6.49,0.86,13,0.5,19.45c-0.73,12.75-2.09,25.34,8.26,35.64
			c4.9,4.87,8.89,10.66,13.29,16.03c-16.4-1.94-25.38-17.32-25.87-30.16C45.03,171.08,46.88,157.48,47.7,143.93z"/>
		<path class="st13" d="M233.21,125.78c0.01-0.45,0.02-0.9,0.03-1.35c7.13-2.86,6.35-9.27,6.8-15.14c0-1.36,0-2.72,0.01-4.07
			c-0.21-3.63,0.08-7.36-0.7-10.86c-3.93-17.49-12.41-32.51-24.69-45.61c-6.28-6.7-11.66-14.23-17.45-21.39
			c2.43,1.12,4.87,2.23,7.3,3.35c3.54,4.85,6.54,10.23,10.72,14.45c10.75,10.87,18.85,23.33,23.82,37.67
			c4.3,12.41,6.43,25.3,0.92,37.85c-2.59,5.91-7.18,10.92-10.51,16.54c-2.26,3.81-3.92,7.97-5.85,11.98
			c-1.48-0.24-2.95-0.47-4.43-0.71c1.33-2.58,2.49-5.26,4.04-7.7C226.44,135.72,229.87,130.77,233.21,125.78z"/>
		<path class="st14" d="M207.17,186.32c-5.79,7.63-10.71,16.2-17.6,22.66c-8.55,8.02-18.79,14.22-28.14,21.41
			c-1.64,1.26-2.5,3.53-3.72,5.34c-2.37-1.41-4.74-2.81-7.11-4.22c10.5-7.46,21.27-14.59,31.41-22.52
			c5.89-4.62,10.92-10.39,16.01-15.95c1.75-1.9,2.5-4.72,3.71-7.12C203.55,186.05,205.36,186.18,207.17,186.32z"/>
		<path class="st15" d="M197.21,27.35c5.79,7.16,11.17,14.69,17.45,21.39c12.28,13.11,20.75,28.12,24.69,45.61
			c0.79,3.5,0.5,7.23,0.7,10.86c-0.9-1.32-2.5-2.59-2.6-3.97c-1.5-19.35-11.66-34.55-23.51-48.81c-6.09-7.33-13.04-13.94-19.4-21.05
			c-1.21-1.36-1.49-3.55-2.19-5.36C193.97,26.46,195.59,26.91,197.21,27.35z"/>
		<path class="st6" d="M71.42,214.74c-4.4-5.37-8.39-11.16-13.29-16.03c-10.36-10.3-8.99-22.89-8.26-35.64
			c0.37-6.45-0.3-12.96-0.5-19.45c1.38,2.17,3.91,4.32,3.93,6.5c0.06,8.14-0.72,16.28-1.16,24.42c-0.91,17.03,10.75,26.42,22,36.04
			c0.42,0.36,1.33,0.15,2.01,0.21c0.24,0.84,0.63,1.67,0.69,2.52c0.06,0.84-0.21,1.69-0.46,3.4
			C74.45,215.94,72.93,215.34,71.42,214.74z"/>
		<path class="st15" d="M233.21,125.78c-3.35,5-6.78,9.94-10,15.01c-1.55,2.44-2.7,5.12-4.04,7.7c-0.81-0.22-1.63-0.45-2.44-0.67
			C219.76,138.62,225.56,131.51,233.21,125.78z"/>
		<path class="st16" d="M211.33,158.4c-0.54,5.15-1.08,10.31-1.62,15.46c-1.52-5.18-3.04-10.36-5.01-17.08
			C207.94,157.58,209.63,157.99,211.33,158.4z"/>
		<path class="st17" d="M200.29,234.15c1.32-0.94,2.64-1.88,3.95-2.82C202.93,232.28,201.61,233.22,200.29,234.15z"/>
		<path class="st9" d="M130.06,233.5c0.21-0.82,0.42-1.63,0.63-2.45c0.58,0.77,1.17,1.53,1.75,2.3
			C131.64,233.41,130.85,233.45,130.06,233.5z"/>
		<path class="st15" d="M240.04,109.29c-0.44,5.86,0.33,12.28-6.8,15.14C235.51,119.39,237.78,114.34,240.04,109.29z"/>
	</g>
</g>
</svg>
