<?xml version="1.0" encoding="utf-8"?>
<!-- Generator: Adobe Illustrator 23.0.2, SVG Export Plug-In . SVG Version: 6.00 Build 0)  -->
<svg version="1.1" id="Livello_1" xmlns="http://www.w3.org/2000/svg" xmlns:xlink="http://www.w3.org/1999/xlink" x="0px" y="0px"
	 viewBox="0 0 144.75 66.75" style="enable-background:new 0 0 144.75 66.75;" xml:space="preserve">
<style type="text/css">
	.st0{fill:#FCFCFC;}
	.st1{fill:#674E34;}
	.st2{fill:#080807;}
	.st3{fill:#765838;}
	.st4{fill:#9C734A;}
	.st5{fill:#D4B83C;}
	.st6{fill:#887526;}
</style>
<g>
	<g>
		<path class="st0" d="M145.5,30.25c0,12.5,0,25,0,37.5c-48.25,0-96.5,0-144.75,0c0-22.5,0-45,0-67.5c48.25,0,96.5,0,144.75,0
			c0,8.5,0,17,0,25.5c-1.76-3.31-3.74-6.52-5.23-9.94c-2.98-6.85-7.91-11.27-15.13-13.15c-1.95,0.38-4.77,0.06-5.72,1.24
			c-8.9,11.17-20.7,18.04-33.79,22.65c-11.04,3.89-21.97,8.98-34.49,4.91c-3.99-1.3-8.88,0.29-13.37,0.37
			C23.01,32.07,12.36,39.7,3.83,50.89c-1.14,1.5-1.5,4.26-0.99,6.09c0.28,1,3.14,1.29,5.19,2.03c0.6,3.48,2.02,4.99,4.91,3.85
			c4.79-1.9,9.29-1.06,13.87,0.46c8.17,2.72,16.57,3.81,25.11,2.89c7.34-0.79,14.02-2.97,16.89-11.26c4.33,0,8.7,0.3,13.02-0.05
			c20.14-1.64,39.41-6.38,56.8-17.1c1.9-1.17,3-3.64,4.48-5.5C143.9,31.61,144.7,30.93,145.5,30.25z"/>
		<path class="st1" d="M145.5,30.25c-0.8,0.68-1.6,1.36-2.39,2.04c-1.93-3.17-4.47-2.63-7.17-1.2c-0.32-0.62-0.68-1.23-0.96-1.88
			c-2.95-6.95-7.07-12.87-14.17-16.2c2.16-3.16,6.18-5.53,4.33-10.37c7.22,1.88,12.15,6.3,15.13,13.15
			c1.49,3.43,3.47,6.64,5.23,9.94C145.5,27.25,145.5,28.75,145.5,30.25z"/>
		<path class="st2" d="M125.14,2.66c1.85,4.83-2.17,7.21-4.33,10.37c-0.75,0.75-1.5,1.5-2.26,2.26
			c-15.32,13.41-33.74,20.25-53.47,24.49c1.31,3.43,2.4,6.29,3.5,9.17c7.98-0.73,15.71-1.11,23.34-2.22
			c14.15-2.06,27.81-5.82,40.21-13.28c1.27-0.78,2.54-1.57,3.81-2.35c2.7-1.44,5.24-1.97,7.17,1.2c-1.47,1.87-2.57,4.33-4.47,5.51
			c-17.39,10.72-36.66,15.46-56.8,17.1c-4.32,0.35-8.69,0.05-13.02,0.05c-2.87,8.29-9.55,10.47-16.89,11.26
			c-8.54,0.92-16.94-0.17-25.11-2.89c-4.58-1.53-9.08-2.36-13.87-0.46c-2.89,1.15-4.31-0.37-4.91-3.85
			c-2.06-0.74-4.92-1.03-5.19-2.03c-0.51-1.83-0.15-4.59,0.99-6.09c8.53-11.19,19.19-18.82,33.95-19.08
			c4.48-0.08,9.37-1.66,13.37-0.37c12.52,4.07,23.45-1.02,34.49-4.91c13.09-4.61,24.89-11.48,33.79-22.65
			C120.36,2.71,123.19,3.03,125.14,2.66z M56.57,57.69c2.82-0.51,4.94-1.66,5.05-4.99c0.3-8.77-5.47-15.06-14.09-14.66
			c-6.1,0.28-12.24,0.89-18.21,2.08c-3.42,0.68-6.56,2.82-10.05,4.41c3.37,1.46,5.96,2.57,8.54,3.69c-0.83,2.39-1.66,4.79-2.7,7.77
			c5.38,1.12,10.91,2.91,16.55,3.26C46.57,59.56,51.59,58.27,56.57,57.69z"/>
		<path class="st3" d="M118.55,15.28c0.75-0.75,1.5-1.5,2.26-2.26c7.09,3.33,11.22,9.25,14.17,16.2c0.27,0.64,0.63,1.25,0.96,1.88
			c-1.27,0.78-2.54,1.57-3.81,2.35C131,24.85,125.75,19.33,118.55,15.28z"/>
		<path class="st4" d="M118.55,15.28c7.2,4.06,12.45,9.57,13.58,18.17c-12.4,7.45-26.06,11.22-40.21,13.28
			c-7.63,1.11-15.36,1.49-23.34,2.22c-1.1-2.88-2.19-5.74-3.5-9.17C84.82,35.52,103.23,28.69,118.55,15.28z"/>
		<path class="st5" d="M27.81,48.21c-2.58-1.12-5.17-2.23-8.54-3.69c3.49-1.59,6.62-3.73,10.05-4.41c5.97-1.19,12.11-1.8,18.21-2.08
			c8.62-0.39,14.4,5.89,14.09,14.66c-0.12,3.33-2.23,4.48-5.05,4.99c-8.07-2.67-16.15-5.35-24.22-8.01
			C30.84,49.17,29.32,48.7,27.81,48.21z"/>
		<path class="st6" d="M27.81,48.21c1.51,0.49,3.03,0.96,4.54,1.46c8.07,2.67,16.15,5.34,24.22,8.01
			c-4.97,0.58-9.99,1.87-14.91,1.56c-5.63-0.36-11.17-2.14-16.55-3.26C26.15,53,26.98,50.61,27.81,48.21z"/>
	</g>
</g>
</svg>
